<svg id="Capa_1" data-name="Capa 1" xmlns="http://www.w3.org/2000/svg" xmlns:xlink="http://www.w3.org/1999/xlink" viewBox="0 0 100 100"><defs><style>.cls-1{fill:url(#Degradado_sin_nombre_94);}</style><linearGradient id="Degradado_sin_nombre_94" x1="99.12" y1="78.44" x2="18.16" y2="31.7" gradientUnits="userSpaceOnUse"><stop offset="0" stop-color="#392a5e"/><stop offset="0.25" stop-color="#ef8195"/><stop offset="0.5" stop-color="#909a90"/><stop offset="0.75" stop-color="#373c7e"/><stop offset="1" stop-color="#5488ae"/></linearGradient></defs><path class="cls-1" d="M38.7,51.57A33.73,33.73,0,0,0,5,85.26a1.18,1.18,0,0,0,1.18,1.19h65a1.18,1.18,0,0,0,1.18-1.19A33.73,33.73,0,0,0,38.7,51.57ZM7.39,84.08a31.33,31.33,0,0,1,62.62,0ZM38.7,48.43A17.44,17.44,0,1,0,21.26,31,17.46,17.46,0,0,0,38.7,48.43Zm0-32.51A15.08,15.08,0,1,1,23.62,31,15.1,15.1,0,0,1,38.7,15.92ZM93.82,84.08H89.73V15.92h3.8a1.19,1.19,0,1,0,0-2.37h-10a1.19,1.19,0,0,0,0,2.37h3.86V84.08H83.78a1.19,1.19,0,0,0,0,2.37h10a1.19,1.19,0,0,0,0-2.37Z"/></svg>