<?xml version="1.0" encoding="utf-8"?>
<!-- Generator: Adobe Illustrator 24.1.2, SVG Export Plug-In . SVG Version: 6.00 Build 0)  -->
<svg version="1.1" id="Capa_1" xmlns="http://www.w3.org/2000/svg" xmlns:xlink="http://www.w3.org/1999/xlink" x="0px" y="0px"
	 viewBox="0 0 100 100" style="enable-background:new 0 0 100 100;" xml:space="preserve">
<style type="text/css">
	.st0{fill:url(#SVGID_1_);}
</style>
<linearGradient id="SVGID_1_" gradientUnits="userSpaceOnUse" x1="77.2359" y1="65.1832" x2="21.6138" y2="33.0697">
	<stop  offset="0" style="stop-color:#E37D8E"/>
	<stop  offset="0.3" style="stop-color:#37295C"/>
	<stop  offset="0.7" style="stop-color:#353A78"/>
	<stop  offset="1" style="stop-color:#E37D8E"/>
</linearGradient>
<path class="st0" d="M41.2,65.9c0.9,0.8,1.5,2,1.8,2.4c0,0.1,0.1,0.1,0.1,0.1c0.1,0,0.1,0,0.1-0.1c0.3-0.5,1-1.6,1.8-2.4
	c0.7-0.7,2-1.5,2.6-2c0.4-0.3,0.4-0.8,0-1.2c-1-1.1-2.2-2.7-4.6-2.7c-2.4,0-3.6,1.6-4.6,2.7c-0.3,0.3-0.3,0.9,0,1.2
	C39.2,64.4,40.5,65.2,41.2,65.9z M38.6,72.2c-0.3,0.3-0.3,0.9,0,1.2c0.6,0.5,1.9,1.3,2.6,2c0.9,0.8,1.5,2,1.8,2.4
	c0,0.1,0.1,0.1,0.1,0.1c0.1,0,0.1,0,0.1-0.1c0.3-0.5,1-1.6,1.8-2.4c0.7-0.7,2-1.5,2.6-2c0.4-0.3,0.4-0.8,0-1.2
	c-1-1.1-2.2-2.7-4.6-2.7C40.7,69.5,39.6,71.1,38.6,72.2z M47,79.8c0.9,0.8,1.5,2,1.8,2.4c0,0.1,0.1,0.1,0.1,0.1c0.1,0,0.1,0,0.1-0.1
	c0.3-0.5,1-1.6,1.8-2.4c0.7-0.7,2-1.5,2.6-2c0.4-0.3,0.4-0.8,0-1.2c-1-1.1-2.2-2.7-4.6-2.7c-2.4,0-3.6,1.6-4.6,2.7
	c-0.3,0.3-0.3,0.9,0,1.2C45,78.3,46.3,79.2,47,79.8z M32.4,58.4c0,0.2,0.1,0.5,0.3,0.7c0.6,0.5,1.9,1.3,2.6,2c0.9,0.8,1.5,2,1.8,2.4
	c0,0.1,0.1,0.1,0.1,0.1c0.1,0,0.1,0,0.1-0.1c0.3-0.5,1-1.6,1.8-2.4c0.7-0.7,2-1.5,2.6-2c0.4-0.3,0.4-0.8,0-1.2
	c-1-1.1-2.2-2.7-4.6-2.7c-1.2,0-2.1,0.4-2.9,1c-0.7,0.7-1.3,1.4-1.9,2.1C32.4,58.3,32.4,58.3,32.4,58.4z M37.6,53.3
	c0,0,1.7-4.5,3.1-5.3c0,0-3.1-0.3-3.8-0.2c-1.8,1.1-3.2,6-3.2,7.9C34.9,53.9,37.6,53.3,37.6,53.3z M60.7,63.6c0.1,0,0.1,0,0.1-0.1
	c0.3-0.5,1-1.6,1.8-2.4c0.7-0.7,2-1.5,2.6-2c0.2-0.2,0.3-0.4,0.3-0.7c0,0,0-0.1-0.1-0.1c-0.6-0.7-1.2-1.4-1.9-2.1
	c-0.7-0.5-1.6-1-2.9-1c-2.4,0-3.6,1.6-4.6,2.7c-0.3,0.3-0.3,0.9,0,1.2c0.6,0.5,1.9,1.3,2.6,2c0.9,0.8,1.5,2,1.8,2.4
	C60.6,63.5,60.7,63.6,60.7,63.6z M40.4,19.9c-1.8-0.8-4-1.4-4.1-1.9c-0.1,0.9,2.2,6.8,4.5,8.9c1-1.5,2.3-2.5,2.3-2.5
	s0.2,3.6,0.5,4.7c0.1,0.6,0.9,2.1,0.9,2.1s1.8-3.4,2-3.7c0.1-0.3-1.7-4.1-3.4-5.8C42.3,21,41.5,20.4,40.4,19.9z M45.8,30
	c-0.5,1.1-1.1,2.4,0,3.9c1.1,1.5,2.5,3.7,2.5,3.7s1.8-1.6,2.4-2.2c0.6-0.6,2-1.5,2-4s-0.4-9.3,0.3-12C50.9,21.8,46.3,28.9,45.8,30z
	 M61.9,42.9c0,0-3.9,1.6-5,4.3c1.1-0.3,6.6-1.3,10.8,1.3C65.6,43.4,61.9,42.9,61.9,42.9z M33.7,49.5c2-2.5,6.2-2.8,7.8-2.3
	c1.5-1.3,3.3-1.4,3.3-1.4v-1.1c0,0-0.4-0.2-3.1-0.4C38.8,44.3,33.7,46.8,33.7,49.5z M56.8,65.9c0.7-0.7,2-1.5,2.6-2
	c0.4-0.3,0.4-0.8,0-1.2c-1-1.1-2.2-2.7-4.6-2.7c-2.4,0-3.6,1.6-4.6,2.7c-0.3,0.3-0.3,0.9,0,1.2c0.6,0.5,1.9,1.3,2.6,2
	c0.9,0.8,1.5,2,1.8,2.4c0,0.1,0.1,0.1,0.1,0.1c0.1,0,0.1,0,0.1-0.1C55.3,67.9,56,66.7,56.8,65.9z M51.1,36.3
	c-2.1,1.6-4.1,4.1-4.6,8.8c0,0,2,0.3,2.8,1c0.8-0.6,3.1-0.6,3.3-0.4c0.9-1.6,1.2-2.9,1.1-6.7c-0.1-3.8,0.7-6.8,0.7-6.8
	S53.2,34.7,51.1,36.3z M50.1,49c0.2,0.5,0.4,0.8,0.5,1c0.1,0,0.1,0,0.2,0c1.3,0,5.3,0.3,7.9,3.2c-0.5-4.9-3.7-6.7-5.9-6.8
	c-1.4,0.1-2.2,0.3-2.6,0.4c0.2,0.5,0.4,1.3,0.2,1.9C50.2,48.9,50.1,48.9,50.1,49z M48.2,46.5c-0.2-0.2-0.5-0.2-0.8-0.2
	c-0.1,0-0.2,0-0.3,0c-5.2,0.9-7.9,3.6-8.4,8.3c5-6,8.8-6.8,10.3-6.9C48.8,47.3,48.6,46.8,48.2,46.5z M60.7,35.6
	c1.4-1.8,4-2.8,4.3-3.2c-0.5-0.5-4.8,0.3-5.4,0.4c-0.5,0.1-3.3,2.9-4,4C55.6,36.9,58,35.4,60.7,35.6z M64,41.9
	c-2-0.7-7.8-0.1-10.7,3.7c0,0,1.4,0,2.7,0.8C57.9,43.9,62,41.9,64,41.9z M54.5,38.5c-0.1,1.4-0.2,4.4-0.4,4.8c0,0,3.3-2.7,6.9-2.5
	c2.8-1.4,5.5-4.7,5.5-4.7s-4.4,0.3-6.9,0.7C57.1,37.1,54.6,37.9,54.5,38.5z M55.6,29.7c-0.6,1.4-1.1,7.2-1.1,7.2s3.2-3.8,5.6-5.4
	c2.1-1.4,3.6-1.8,6.4-3.6c2.8-1.8,4.8-4.6,4.9-5.5c-0.4,0.9-5.1,0.9-9.4,1.5C57.8,24.4,56.2,28.3,55.6,29.7z M63.7,55.5
	c0-3.7-2.6-7.5-3.2-7.7c-0.7-0.3-2.9,0-2.9,0s1.7,4.1,1.8,5.1C60.5,53.2,61.8,53.6,63.7,55.5z M43.9,50.7c-1.3,1-2.8,2.4-4.5,4.4
	c0.6,0.4,1.3,0.9,1.8,1.4c0.9,0.8,1.5,2,1.8,2.4c0,0.1,0.1,0.1,0.1,0.1c0.1,0,0.1,0,0.1-0.1c0.3-0.5,1-1.6,1.8-2.4
	c0.7-0.7,2-1.5,2.6-2c0.4-0.3,0.4-0.8,0-1.2c-0.3-0.4-0.7-0.8-1.1-1.2c-0.6-0.4-1.2-0.7-2-0.9c-0.1,0-0.2-0.1-0.3-0.3
	c0-0.1,0-0.1,0-0.2C44.2,50.7,44.1,50.7,43.9,50.7z M52.7,51.1c-0.8,0.4-1.4,1-1.9,1.6c0.1,0.6,0.2,1.4,0.2,2.2c0.6,0.5,1.4,1,2,1.5
	c0.9,0.8,1.5,2,1.8,2.4c0,0.1,0.1,0.1,0.1,0.1c0.1,0,0.1,0,0.1-0.1c0.3-0.5,1-1.6,1.8-2.4c0.5-0.5,1.4-1.1,2-1.5c0,0,0-0.1-0.1-0.1
	C57.3,52.3,54.6,51.4,52.7,51.1z M48.4,49c-1.6,0.1-2.7,0.8-3.2,1.3c2.5,0.9,4.1,2.9,4.9,4.2C49.8,50.3,48.7,49.2,48.4,49z
	 M44.4,67.3c-0.3,0.3-0.3,0.9,0,1.2c0.6,0.5,1.9,1.3,2.6,2c0.9,0.8,1.5,2,1.8,2.4c0,0.1,0.1,0.1,0.1,0.1c0.1,0,0.1,0,0.1-0.1
	c0.3-0.5,1-1.6,1.8-2.4c0.7-0.7,2-1.5,2.6-2c0.4-0.3,0.4-0.8,0-1.2c-1-1.1-2.2-2.7-4.6-2.7C46.5,64.6,45.4,66.2,44.4,67.3z
	 M44.4,57.9c-0.3,0.3-0.3,0.9,0,1.2c0.6,0.5,1.9,1.3,2.6,2c0.9,0.8,1.5,2,1.8,2.4c0,0.1,0.1,0.1,0.1,0.1c0.1,0,0.1,0,0.1-0.1
	c0.3-0.5,1-1.6,1.8-2.4c0.7-0.7,2-1.5,2.6-2c0.4-0.3,0.4-0.8,0-1.2c-1-1.1-2.2-2.7-4.6-2.7C46.5,55.2,45.4,56.8,44.4,57.9z
	 M54.9,77.8c0.1,0,0.1,0,0.1-0.1c0.3-0.5,1-1.6,1.8-2.4c0.7-0.7,2-1.5,2.6-2c0.4-0.3,0.4-0.8,0-1.2c-1-1.1-2.2-2.7-4.6-2.7
	c-2.4,0-3.6,1.6-4.6,2.7c-0.3,0.3-0.3,0.9,0,1.2c0.6,0.5,1.9,1.3,2.6,2c0.9,0.8,1.5,2,1.8,2.4C54.7,77.8,54.8,77.8,54.9,77.8z
	 M36,81.5c-1-1.1-2.2-2.7-4.6-2.7c-0.7,0-1.3,0.1-1.8,0.4c-0.2,0.2-0.4,0.3-0.3,0.4c0.3,0.5,1.2,1.6,1.5,2c1,1.2,1.6,2,2.3,2.9
	c0.1,0.1,0.2,0.2,0.2,0.3c0,0,0.1-0.1,0.1-0.1c0.7-0.7,2-1.5,2.6-2C36.3,82.3,36.3,81.8,36,81.5z M39.1,89.2c0.7-0.7,2-1.5,2.6-2
	c0.4-0.3,0.4-0.8,0-1.2c-1-1.1-2.2-2.7-4.6-2.7c-1.7,0-2.8,0.8-3.7,1.7c0.1,0.1,0.1,0.3,0,0.5c-0.1,0.5-0.3,1.5-0.1,1.8
	c0.3,0.3,1.6,1.6,1.9,1.9c0.7,0.8,1.4,1.4,2.2,2C37.9,90.7,38.5,89.8,39.1,89.2z M30,74.4c0,0.2,0.1,0.8-0.1,1
	c-0.2,0.1-0.2,0.2,0,0.4c0.1,0.1,0.2,0.3,0.3,0.4c0.1,0.1,0.2,0.3,0.3,0.4c0.3,0.5,0.6,0.7,0.9,1.2c0,0,0,0,0,0c0,0,0.1,0,0.1-0.1
	c0.3-0.5,1-1.6,1.8-2.4c0.7-0.7,2-1.5,2.6-2c0.4-0.3,0.4-0.8,0-1.2c-1-1.1-2.2-2.7-4.6-2.7c-1.1,0-2,0.3-2.6,0.8
	c0.3,0.8,0.4,1.3,0.6,2C29.6,72.9,29.9,73.8,30,74.4z M35.4,31.6c0.7,1.5,3.1,7.5,8.3,8.7c0,0-3.8-4.3-3.8-8.7
	c0-2.5,1.1-3.4,1.1-3.4s-2.5-5-11.3-5C32.1,24.3,34.6,30.1,35.4,31.6z M32.2,33.7c0.6,0.9,4.1,5,5.7,6.2h2.8c0,0-2.5-1.5-4.8-6
	c-0.7-1.5-1-1.6-2.2-2c-1.2-0.4-4.7-1.7-5.9-2C29.9,30.8,31.6,32.8,32.2,33.7z M47.8,91c-1-1.1-2.2-2.7-4.6-2.7
	c-2.4,0-3.6,1.6-4.6,2.7c-0.2,0.3-0.3,0.6-0.2,0.9c2.3,1.6,4.5,2.3,6.3,2.6c0,0,0.1,0,0.1,0c0.1-0.1,0.2-0.2,0.3-0.3
	c0.7-0.7,2-1.5,2.6-2C48.1,91.9,48.1,91.3,47.8,91z M68.2,79c-0.4-0.1-0.9-0.2-1.5-0.2c-2.4,0-3.6,1.6-4.6,2.7
	c-0.3,0.3-0.3,0.9,0,1.2c0.6,0.5,1.9,1.3,2.6,2c0,0,0,0,0,0c0.1-0.1,0.1-0.1,0.2-0.2c0.7-1,1.3-1.8,2.3-2.9c0.3-0.4,1.2-1.5,1.5-2
	C68.7,79.4,68.5,79.2,68.2,79z M62.1,72.2c-0.3,0.3-0.3,0.9,0,1.2c0.6,0.5,1.9,1.3,2.6,2c0.8,0.8,1.5,2,1.8,2.4
	c0.3-0.5,0.5-0.7,0.9-1.2c0.3-0.4,1.1-1.1,0.6-1.2c-0.2-0.2-0.1-0.8-0.1-1c0.1-0.6,0.4-1.5,0.6-2.1c0.2-0.7,0.3-1.3,0.6-2
	c0,0,0,0,0,0c-0.7-0.4-1.5-0.7-2.5-0.7C64.2,69.5,63.1,71.1,62.1,72.2z M39.7,16.7c0.5,1,2.3,3.1,4.3,4.9c1.5,1.4,1.6,2.9,1.9,3.2
	c0,0-0.2-6.3,1.8-9.8c-1.1-0.8-2.8-2.7-3.6-3.1c-0.8-0.4-1.4-1.3-9.4-1.5C37.1,12,39,15.1,39.7,16.7z M54.9,88.3
	c-2.4,0-3.6,1.6-4.6,2.7c-0.3,0.3-0.3,0.9,0,1.2c0.6,0.5,1.9,1.3,2.6,2c0.1,0.1,0.2,0.2,0.3,0.3c0,0,0,0,0,0
	c1.8-0.3,4.1-1.1,6.4-2.7c0.1-0.3,0-0.6-0.2-0.8C58.5,89.9,57.3,88.3,54.9,88.3z M64.4,85c-0.8-0.8-1.9-1.7-3.7-1.7
	c-2.4,0-3.6,1.6-4.6,2.7c-0.3,0.3-0.3,0.9,0,1.2c0.6,0.5,1.9,1.3,2.6,2c0.7,0.6,1.2,1.5,1.6,2c0.7-0.6,1.5-1.2,2.2-2
	c0.3-0.3,1.6-1.6,1.9-1.9c0.2-0.3,0-1.3-0.1-1.8C64.3,85.3,64.3,85.1,64.4,85z M49.1,92.2c-0.1,0-0.1,0-0.2,0l-2.4,1.6
	c-0.1,0.1-0.1,0.2,0,0.3l1.8,0.9c0.1,0,0.2,0.1,0.3,0.1c0.1,0,0.3,0,0.4,0c0.1,0,0.3,0,0.4,0c0.1,0,0.2,0,0.3-0.1l1.8-0.9
	c0.1,0,0.1-0.2,0-0.3L49.1,92.2z M32.6,76.6c-0.3,0.3-0.3,0.9,0,1.2c0.6,0.5,1.9,1.3,2.6,2c0.9,0.8,1.5,2,1.8,2.4
	c0,0.1,0.1,0.1,0.1,0.1c0.1,0,0.1,0,0.1-0.1c0.3-0.5,1-1.6,1.8-2.4c0.7-0.7,2-1.5,2.6-2c0.4-0.3,0.4-0.8,0-1.2
	c-1-1.1-2.2-2.7-4.6-2.7C34.7,74,33.6,75.6,32.6,76.6z M35.2,70.5c0.9,0.8,1.5,2,1.8,2.4c0,0.1,0.1,0.1,0.1,0.1c0.1,0,0.1,0,0.1-0.1
	c0.3-0.5,1-1.6,1.8-2.4c0.7-0.7,2-1.5,2.6-2c0.4-0.3,0.4-0.8,0-1.2c-1-1.1-2.2-2.7-4.6-2.7c-2.4,0-3.6,1.6-4.6,2.7
	c-0.3,0.3-0.3,0.9,0,1.2C33.2,69,34.5,69.8,35.2,70.5z M42.3,36.9c0.7,1.3,3,3.6,3.2,8.5c0.6-5,2.1-7.4,2.1-7.4s-2.2-3.3-3.6-5.3
	c-1.3-2-1.8-5-1.5-6.6c-1,1-2,4.1-2,5.9C40.5,33.8,41.6,35.5,42.3,36.9z M41.2,84.8c0.9,0.8,1.5,2,1.8,2.4c0,0.1,0.1,0.1,0.1,0.1
	c0.1,0,0.1,0,0.1-0.1c0.3-0.5,1-1.6,1.8-2.4c0.7-0.7,2-1.5,2.6-2c0.4-0.3,0.4-0.8,0-1.2c-1-1.1-2.2-2.7-4.6-2.7
	c-2.4,0-3.6,1.6-4.6,2.7c-0.3,0.3-0.3,0.9,0,1.2C39.2,83.3,40.5,84.1,41.2,84.8z M47,89.2c0.9,0.8,1.5,2,1.8,2.4
	c0,0.1,0.1,0.1,0.1,0.1c0.1,0,0.1,0,0.1-0.1c0.3-0.5,1-1.6,1.8-2.4c0.7-0.7,2-1.5,2.6-2c0.4-0.3,0.4-0.8,0-1.2
	c-1-1.1-2.2-2.7-4.6-2.7c-2.4,0-3.6,1.6-4.6,2.7c-0.3,0.3-0.3,0.9,0,1.2C45,87.7,46.3,88.5,47,89.2z M30.3,47.3
	c3.2-3.9,8.1-4.3,9-4.3s4.6,0.5,5.4,1.1c-0.2-0.4-0.5-2.7-0.5-2.7c-0.3-0.4-2.5-1-3.8-1C39.2,40.5,34.1,40.2,30.3,47.3z M29.4,65.9
	c0.9,0.8,1.5,2,1.8,2.4c0,0.1,0.1,0.1,0.1,0.1c0.1,0,0.1,0,0.1-0.1c0.3-0.5,1-1.6,1.8-2.4c0.7-0.7,2-1.5,2.6-2
	c0.4-0.3,0.4-0.8,0-1.2c-0.9-1-2-2.5-4.2-2.7c-0.4,0.5-0.9,1.1-1.3,1.7c-0.7,1.1-1.3,2.3-1.8,3.6C29,65.5,29.3,65.7,29.4,65.9z
	 M53.4,22.5v10.2c0,0,2.4-5.1,3.4-6.6c1-1.4,1.9-2.4,5.6-3.1c2.1-1.7,3.3-8,3.5-10c-1.4,1.6-3.5,3.2-5.3,4
	C58.8,18,54.6,20.7,53.4,22.5z M46.7,26.7l6.6-9v3.7c0.5-0.5,2.4-1.9,2.6-2.8C56.9,16,58.4,5.6,58.3,5c-0.4,0.4-7,6.2-9.6,10.2
	C46.1,19.3,46.7,26.7,46.7,26.7z M66.7,68.4c0.1,0,0.1,0,0.1-0.1c0.3-0.5,1-1.6,1.8-2.4c0.2-0.2,0.4-0.3,0.6-0.5
	c-0.5-1.2-1.1-2.5-1.8-3.6c-0.4-0.6-0.9-1.2-1.3-1.7c-2.1,0.2-3.1,1.7-4,2.6c-0.3,0.3-0.3,0.9,0,1.2c0.6,0.5,1.9,1.3,2.6,2
	c0.9,0.8,1.5,2,1.8,2.4C66.6,68.4,66.6,68.4,66.7,68.4z M54.9,87.3c0.1,0,0.1,0,0.1-0.1c0.3-0.5,1-1.6,1.8-2.4c0.7-0.7,2-1.5,2.6-2
	c0.4-0.3,0.4-0.8,0-1.2c-1-1.1-2.2-2.7-4.6-2.7c-2.4,0-3.6,1.6-4.6,2.7c-0.3,0.3-0.3,0.9,0,1.2c0.6,0.5,1.9,1.3,2.6,2
	c0.9,0.8,1.5,2,1.8,2.4C54.7,87.2,54.8,87.3,54.9,87.3z M62.7,70.5c0.7-0.7,2-1.5,2.6-2c0.4-0.3,0.4-0.8,0-1.2
	c-1-1.1-2.2-2.7-4.6-2.7c-2.4,0-3.6,1.6-4.6,2.7c-0.3,0.3-0.3,0.9,0,1.2c0.6,0.5,1.9,1.3,2.6,2c0.9,0.8,1.5,2,1.8,2.4
	c0,0.1,0.1,0.1,0.1,0.1c0.1,0,0.1,0,0.1-0.1C61.2,72.4,61.8,71.2,62.7,70.5z M60.7,82.3c0.1,0,0.1,0,0.1-0.1c0.3-0.5,1-1.6,1.8-2.4
	c0.7-0.7,2-1.5,2.6-2c0.4-0.3,0.4-0.8,0-1.2c-1-1.1-2.2-2.7-4.6-2.7c-2.4,0-3.6,1.6-4.6,2.7c-0.3,0.3-0.3,0.9,0,1.2
	c0.6,0.5,1.9,1.3,2.6,2c0.9,0.8,1.5,2,1.8,2.4C60.6,82.3,60.7,82.3,60.7,82.3z"/>
</svg>
