<?xml version="1.0" encoding="utf-8"?>
<!-- Generator: Adobe Illustrator 24.1.2, SVG Export Plug-In . SVG Version: 6.00 Build 0)  -->
<svg version="1.1" id="Capa_1" xmlns="http://www.w3.org/2000/svg" xmlns:xlink="http://www.w3.org/1999/xlink" x="0px" y="0px"
	 viewBox="0 0 100 100" style="enable-background:new 0 0 100 100;" xml:space="preserve">
<style type="text/css">
	.st0{fill:#3C5472;}
</style>
<g>
	<path class="st0" d="M58.3,78.4c-0.1,0-0.1,0-0.2,0.2c-0.2,0.3-0.4,0.6-0.7,1c-0.3,0.4-0.5,0.7-0.8,1.1c-0.3,0.4-0.6,0.8-0.9,1.1
		c-0.3,0.4-0.6,0.7-0.8,1c-0.3,0.3-0.5,0.5-0.7,0.7c-0.2,0.2-0.4,0.3-0.5,0.3c-0.2,0-0.2-0.2-0.1-0.5c0.1-0.4,0.3-0.9,0.6-1.6
		c0.2-0.6,0.5-1.2,0.7-1.9c0.2-0.6,0.4-1.2,0.6-1.7c0.2-0.5,0.3-0.8,0.3-1c0-0.2-0.1-0.4-0.3-0.6c-0.2-0.2-0.4-0.4-0.6-0.5
		c-0.2-0.1-0.5-0.2-0.7-0.2c-0.2,0-0.3,0.1-0.3,0.3c0,0.2-0.2,0.6-0.4,1.1c-0.1-0.2-0.3-0.3-0.5-0.5c-0.2-0.2-0.4-0.4-0.6-0.5
		c-0.2-0.2-0.5-0.3-0.8-0.4c-0.3-0.1-0.6-0.2-0.9-0.2c-0.2,0-0.5,0.1-0.8,0.4c-0.3,0.3-0.6,0.6-0.9,1c-0.3,0.4-0.6,0.9-0.9,1.4
		c-0.3,0.5-0.5,1-0.8,1.5c0,0.1-0.1,0.1-0.1,0.2c-0.1,0.1-0.2,0.2-0.2,0.3c-0.3,0.4-0.7,0.8-1,1.1c-0.4,0.4-0.7,0.7-1,1
		c-0.3,0.3-0.6,0.5-0.9,0.7c-0.3,0.2-0.5,0.3-0.7,0.3c-0.1,0-0.2,0-0.3,0c-0.1,0-0.2-0.1-0.2-0.1c-0.1-0.1-0.1-0.2-0.1-0.3
		c0-0.1,0-0.3,0-0.5c0-0.3,0.1-0.7,0.2-1c0.1-0.4,0.2-0.8,0.4-1.2c0.1-0.4,0.3-0.8,0.5-1.2c0.2-0.4,0.3-0.7,0.5-1
		c0.2-0.3,0.3-0.6,0.5-0.7c0.2-0.2,0.3-0.3,0.4-0.3c0.3,0,0.6,0.1,0.8,0.2c0.2,0.1,0.4,0.2,0.5,0.3c0.1,0.1,0.2,0.2,0.3,0.3
		c0.1,0.1,0.2,0.1,0.2,0c0.1-0.1,0.1-0.2,0.1-0.5c0-0.3-0.1-0.5-0.3-0.8c-0.2-0.3-0.5-0.5-0.8-0.7c-0.4-0.2-0.9-0.3-1.5-0.3
		c-0.3,0-0.6,0.1-1,0.4c-0.3,0.3-0.7,0.6-1,1c-0.3,0.4-0.6,0.9-0.9,1.4c-0.2,0.3-0.3,0.6-0.5,0.9c0,0,0,0-0.1,0.1
		c-0.3,0.4-0.6,0.7-1,1.1c-0.4,0.4-0.7,0.8-1.1,1.2c-0.4,0.4-0.8,0.7-1.2,1c-0.4,0.3-0.8,0.5-1.2,0.7c-0.4,0.2-0.8,0.3-1.2,0.3
		c-0.2,0-0.3-0.1-0.4-0.2c-0.1-0.1-0.1-0.3-0.1-0.5c0-0.2,0-0.5,0.1-0.7c0.1-0.3,0.2-0.6,0.3-0.9c0.2,0.1,0.3,0.1,0.5,0.1
		c0.2,0,0.4,0,0.6,0c0.4,0,0.8-0.1,1.2-0.4c0.4-0.2,0.8-0.5,1.1-0.9c0.3-0.3,0.6-0.7,0.8-1c0.2-0.4,0.3-0.7,0.4-0.9
		c0-0.3,0-0.5-0.2-0.8c-0.1-0.3-0.3-0.6-0.5-0.9c-0.2-0.3-0.5-0.5-0.8-0.7c-0.3-0.2-0.6-0.3-1-0.3c-0.3,0-0.6,0.1-0.9,0.3
		c-0.3,0.2-0.7,0.4-1,0.7c-0.3,0.3-0.7,0.7-1,1.1c-0.3,0.4-0.6,0.9-0.9,1.4c-0.1,0.1-0.1,0.3-0.2,0.4c-0.3,0.3-0.6,0.7-1,1.1
		c-0.4,0.4-0.8,0.8-1.2,1.2c-0.4,0.4-0.9,0.8-1.3,1.2c0.3-0.4,0.6-0.9,0.8-1.4c0.3-0.5,0.5-0.9,0.7-1.4c0.2-0.4,0.3-0.9,0.5-1.2
		c0.1-0.4,0.2-0.7,0.2-1c0-0.3,0-0.7-0.1-0.9c-0.1-0.3-0.2-0.6-0.3-0.8c-0.2-0.2-0.4-0.4-0.7-0.5c-0.3-0.1-0.6-0.2-1.1-0.2
		c-0.2,0-0.4,0.1-0.6,0.3c-0.2,0.2-0.5,0.4-0.7,0.7c-0.3,0.3-0.5,0.6-0.8,1c-0.3,0.4-0.5,0.7-0.7,1.1c0.3-0.8,0.6-1.6,0.9-2.5
		c0.3-0.8,0.6-1.6,0.8-2.3c0.2-0.7,0.5-1.3,0.6-1.8c0.2-0.5,0.2-0.8,0.3-0.9c0-0.2-0.1-0.4-0.3-0.6c-0.2-0.2-0.4-0.4-0.7-0.5
		c-0.2-0.1-0.5-0.2-0.7-0.2c-0.2,0-0.3,0.1-0.3,0.3c0,0.3-0.2,0.9-0.4,1.5c-0.2,0.7-0.5,1.5-0.9,2.3c-0.3,0.9-0.7,1.8-1.1,2.7
		c-0.3,0.8-0.7,1.6-1,2.4c-0.1,0.1-0.1,0.1-0.2,0.2c-0.3,0.4-0.6,0.7-1,1.1c-0.4,0.4-0.7,0.8-1.1,1.2c-0.4,0.4-0.8,0.7-1.2,1
		c-0.4,0.3-0.8,0.5-1.2,0.7c-0.4,0.2-0.8,0.3-1.2,0.3c-0.2,0-0.3-0.1-0.4-0.2c-0.1-0.1-0.1-0.3-0.1-0.5c0-0.2,0-0.5,0.1-0.7
		c0.1-0.3,0.2-0.6,0.3-0.9c0.2,0.1,0.3,0.1,0.5,0.1c0.2,0,0.4,0,0.6,0c0.4,0,0.8-0.1,1.2-0.4c0.4-0.2,0.8-0.5,1.1-0.9
		c0.3-0.3,0.6-0.7,0.8-1c0.2-0.4,0.3-0.7,0.4-0.9c0-0.3,0-0.5-0.2-0.8c-0.1-0.3-0.3-0.6-0.5-0.9c-0.2-0.3-0.5-0.5-0.8-0.7
		c-0.3-0.2-0.6-0.3-1-0.3c-0.3,0-0.6,0.1-0.9,0.3c-0.3,0.2-0.7,0.4-1,0.7c-0.3,0.3-0.7,0.7-1,1.1c-0.3,0.4-0.6,0.9-0.9,1.4
		c-0.3,0.5-0.5,1-0.6,1.5c-0.2,0.5-0.3,1.1-0.3,1.6c0,0.2,0.1,0.5,0.2,0.7c0.2,0.3,0.4,0.5,0.7,0.8c0.3,0.2,0.6,0.5,0.9,0.6
		c0.3,0.2,0.6,0.2,0.9,0.2c0.4,0,0.8-0.1,1.3-0.3c0.5-0.2,0.9-0.5,1.4-0.9c0.5-0.4,0.9-0.8,1.4-1.2c0.3-0.3,0.6-0.7,0.9-1
		c0,0.1-0.1,0.2-0.1,0.3c-0.2,0.6-0.4,1-0.4,1.2c0,0.3,0,0.5,0.2,0.7c0.2,0.2,0.3,0.3,0.6,0.4c0.2,0.1,0.5,0.2,0.7,0.2
		c0.2,0,0.4,0.1,0.6,0.1c0,0.1,0.1,0.3,0.2,0.4c0.1,0.1,0.2,0.3,0.3,0.4c0.1,0.1,0.3,0.2,0.5,0.3c0.2,0.1,0.4,0.1,0.6,0.1
		c0.5,0,0.9-0.1,1.5-0.4c0.5-0.3,1-0.6,1.6-1c0.5-0.4,1-0.9,1.5-1.3c0.5-0.5,1-1,1.4-1.4c0,0,0,0,0.1-0.1c-0.1,0.3-0.1,0.7-0.2,1
		c0,0.2,0.1,0.5,0.2,0.7c0.2,0.3,0.4,0.5,0.7,0.8c0.3,0.2,0.6,0.5,0.9,0.6c0.3,0.2,0.6,0.2,0.9,0.2c0.4,0,0.8-0.1,1.3-0.3
		c0.5-0.2,0.9-0.5,1.4-0.9c0.5-0.4,0.9-0.8,1.4-1.2c0.3-0.3,0.6-0.6,0.8-0.9c-0.1,0.4-0.2,0.8-0.2,1c0,0.2,0,0.5,0.1,0.7
		c0.1,0.3,0.3,0.5,0.5,0.7c0.2,0.2,0.5,0.4,0.8,0.6c0.3,0.2,0.7,0.2,1.1,0.2c0.4,0,0.9-0.1,1.3-0.3c0.5-0.2,0.9-0.5,1.4-0.9
		c0.5-0.4,0.9-0.8,1.3-1.2c0,0,0,0,0.1-0.1c0,0.1,0,0.1,0,0.2c0,0.3,0.1,0.6,0.2,0.9c0.2,0.3,0.4,0.5,0.7,0.7s0.6,0.4,0.9,0.5
		c0.3,0.1,0.6,0.2,0.8,0.2c0.1,0,0.2-0.1,0.4-0.2c0.2-0.1,0.3-0.3,0.5-0.5c0.2-0.2,0.4-0.4,0.6-0.7c0.2-0.2,0.4-0.5,0.6-0.8
		c0,0.1-0.1,0.2-0.1,0.3c0,0.1,0,0.2,0,0.3c0,0.3,0.1,0.6,0.2,0.8c0.2,0.2,0.4,0.3,0.6,0.4c0.3,0.1,0.5,0.2,0.7,0.2
		c0.2,0,0.4,0.1,0.5,0.1h0.1c0.3,0,0.6-0.2,0.9-0.4c0.3-0.2,0.7-0.5,1-0.9c0.3-0.3,0.7-0.7,1-1.1c0.3-0.4,0.6-0.8,0.9-1.2
		c0.3-0.4,0.5-0.8,0.8-1.1c0.2-0.3,0.4-0.6,0.5-0.8c0,0,0-0.1,0-0.2c0-0.1,0-0.2,0-0.4C58.4,78.5,58.4,78.4,58.3,78.4 M36.2,78.8
		c0.2-0.3,0.4-0.7,0.6-0.9c0.2-0.3,0.4-0.5,0.6-0.6c0.2-0.2,0.3-0.2,0.5-0.2c0.2,0,0.3,0.1,0.2,0.4c0,0.3-0.2,0.6-0.4,0.9
		c-0.2,0.3-0.5,0.7-0.8,1c-0.4,0.3-0.8,0.5-1.2,0.6C35.8,79.5,36,79.1,36.2,78.8 M19.5,78.8c0.2-0.3,0.4-0.7,0.6-0.9
		c0.2-0.3,0.4-0.5,0.6-0.6c0.2-0.2,0.3-0.2,0.5-0.2c0.2,0,0.3,0.1,0.2,0.4c0,0.3-0.2,0.6-0.4,0.9c-0.2,0.3-0.5,0.7-0.8,1
		c-0.4,0.3-0.8,0.5-1.2,0.6C19.1,79.5,19.3,79.1,19.5,78.8 M29.6,78.5c-0.2,0.5-0.5,1-0.9,1.6c-0.3,0.6-0.7,1.1-1.1,1.7
		c-0.4,0.5-0.8,1-1.2,1.4c-0.4,0.4-0.8,0.6-1.2,0.7c0,0,0-0.1,0-0.1c0-0.1,0-0.1,0-0.2c0-0.1,0.1-0.2,0.2-0.5
		c0.1-0.3,0.2-0.6,0.4-1.1c0.2-0.3,0.3-0.6,0.6-1c0.2-0.4,0.5-0.7,0.7-1.1c0.3-0.4,0.5-0.8,0.8-1.1c0.3-0.4,0.5-0.7,0.8-1
		c0.3-0.3,0.5-0.5,0.8-0.7c0.2-0.2,0.5-0.3,0.6-0.3c0.1,0,0.1,0.2,0.1,0.5C30,77.6,29.9,78,29.6,78.5 M53,78.2
		c-0.1,0.2-0.1,0.3-0.2,0.5c-0.1,0.2-0.3,0.5-0.5,0.8c-0.2,0.3-0.4,0.7-0.7,1c-0.2,0.4-0.5,0.7-0.7,1.1c-0.3,0.4-0.5,0.7-0.7,1
		c-0.2,0.3-0.4,0.5-0.6,0.7c-0.2,0.2-0.3,0.3-0.4,0.3c-0.1,0-0.2-0.2-0.1-0.5c0-0.3,0.2-0.7,0.3-1.1c0.2-0.5,0.4-0.9,0.6-1.5
		c0.2-0.5,0.5-1,0.8-1.5c0.3-0.5,0.5-0.8,0.8-1.1c0.3-0.3,0.5-0.5,0.6-0.5c0.2,0,0.5,0,0.6,0.1c0.2,0.1,0.4,0.1,0.5,0.2
		C53.1,77.9,53,78.1,53,78.2 M19.5,85.9c-0.1,0-0.2,0-0.3,0.1c-0.1,0.1-0.3,0.1-0.4,0.2c-0.2,0.1-0.3,0.1-0.4,0.1
		c-0.6,0-1.2-0.2-1.7-0.5c-0.5-0.4-1-0.8-1.4-1.4c-0.4-0.6-0.8-1.2-1-1.8c-0.3-0.7-0.6-1.3-0.8-2c-0.2-0.6-0.4-1.2-0.5-1.7
		c-0.1-0.5-0.3-0.9-0.4-1.1c1.2-0.2,2.3-0.5,3.2-1c0.9-0.5,1.7-1.1,2.3-1.7c0.6-0.6,1-1.3,1.2-2c0.2-0.7,0.2-1.4-0.1-2
		c-0.2-0.6-0.7-1.1-1.5-1.5c-0.8-0.4-1.8-0.6-3.1-0.6c-0.8,0-1.6,0.1-2.4,0.3c-0.8,0.2-1.5,0.5-2.2,0.9c-0.7,0.4-1.4,0.8-1.9,1.3
		c-0.6,0.5-1.1,0.9-1.5,1.4c-0.4,0.5-0.8,1-1,1.4C5.1,74.7,5,75.1,5,75.5c0,0.6,0.1,1,0.2,1.5c0.2,0.4,0.3,0.7,0.5,1
		c0.2,0.3,0.4,0.4,0.6,0.6c0.2,0.1,0.4,0.2,0.5,0.2c0.1,0,0.2,0,0.2-0.1c0-0.1,0-0.1-0.1-0.3c0-0.1-0.1-0.3-0.2-0.5
		c-0.1-0.2-0.1-0.5-0.1-0.8c0-0.4,0.1-0.8,0.3-1.3c0.2-0.5,0.5-1,0.8-1.5c0.4-0.5,0.8-1,1.3-1.5c0.5-0.5,1-1,1.5-1.4
		c-0.1,0.8-0.3,1.5-0.6,2.4c-0.2,0.8-0.5,1.6-0.8,2.4C9,77,8.7,77.7,8.4,78.5c-0.3,0.8-0.6,1.5-0.8,2.1c-0.2,0.6-0.4,1.2-0.6,1.6
		c-0.2,0.5-0.2,0.8-0.2,1c0,0.3,0.1,0.6,0.4,0.7c0.2,0.2,0.5,0.3,0.8,0.4c0.3,0.1,0.6,0.1,0.8,0.1c0.2,0,0.4-0.1,0.4-0.3
		c0-0.2,0-0.4,0.1-0.8c0.1-0.3,0.2-0.7,0.3-1.2c0.1-0.4,0.3-0.9,0.5-1.5c0.2-0.5,0.4-1.1,0.6-1.7c0.2,0.4,0.3,0.9,0.5,1.4
		c0.2,0.6,0.4,1.1,0.7,1.7c0.3,0.6,0.5,1.2,0.9,1.8c0.3,0.6,0.7,1.1,1.2,1.6c0.5,0.5,1,0.9,1.6,1.2c0.6,0.3,1.3,0.4,2,0.4
		c0.3,0,0.6-0.1,0.8-0.2c0.3-0.1,0.5-0.2,0.7-0.4c0.2-0.1,0.3-0.3,0.4-0.4c0.1-0.1,0.2-0.3,0.2-0.4C19.6,86,19.5,85.9,19.5,85.9
		 M11.6,76.6c0.2-0.6,0.5-1.2,0.7-1.8c0.2-0.6,0.4-1.1,0.6-1.5c0.2-0.4,0.3-0.8,0.4-1.1c0.1-0.3,0.2-0.5,0.2-0.6
		c0-0.1,0-0.2-0.1-0.3c-0.1-0.1-0.2-0.2-0.3-0.3c-0.1-0.1-0.2-0.2-0.4-0.3c-0.2-0.1-0.3-0.2-0.5-0.3c0.4-0.2,0.8-0.4,1.3-0.5
		c0.4-0.1,0.8-0.2,1.2-0.2c0.6,0,1.1,0.2,1.5,0.5c0.4,0.3,0.6,0.7,0.7,1.2c0.1,0.5,0.1,1,0,1.6c-0.1,0.6-0.4,1.1-0.9,1.7
		c-0.4,0.5-1,1-1.7,1.3C13.5,76.3,12.6,76.5,11.6,76.6 M76.4,74.4c0.2,0.1,0.3,0.2,0.5,0.3c0.2,0.1,0.4,0.1,0.6,0.1
		c0.3,0,0.5-0.1,0.7-0.2c0.2-0.2,0.4-0.3,0.6-0.6c0.2-0.2,0.3-0.5,0.4-0.7c0.1-0.2,0.2-0.5,0.2-0.7c0-0.4-0.1-0.7-0.3-0.9
		c-0.2-0.2-0.5-0.3-0.9-0.3c-0.2,0-0.5,0.1-0.7,0.2c-0.3,0.1-0.5,0.3-0.7,0.5c-0.2,0.2-0.4,0.4-0.6,0.7c-0.2,0.3-0.2,0.5-0.3,0.7
		c0,0.2,0,0.3,0.1,0.5C76.1,74.2,76.2,74.3,76.4,74.4 M70.6,77.4c0.9-0.3,1.8-0.8,2.4-1.3c0.7-0.5,1.2-1.1,1.6-1.7
		c0.4-0.6,0.6-1.2,0.6-1.8c0-0.6-0.1-1.1-0.4-1.6c-0.3-0.5-0.8-0.9-1.6-1.2c-0.7-0.3-1.6-0.5-2.8-0.5h-0.3c-0.1,0-0.2,0-0.3,0
		c-0.1-0.1-0.3-0.3-0.5-0.4c-0.2-0.1-0.3-0.2-0.4-0.2c-0.1,0-0.2-0.1-0.3,0c-0.1,0-0.1,0.1-0.1,0.3c0,0.2,0,0.3-0.1,0.5
		c-0.7,0.2-1.4,0.4-2,0.7c-0.6,0.3-1.2,0.6-1.8,1c-0.6,0.4-1.1,0.8-1.5,1.2c-0.5,0.4-0.9,0.8-1.2,1.3c-0.3,0.4-0.6,0.8-0.8,1.2
		c-0.2,0.4-0.3,0.7-0.3,1c0,0.6,0.1,1.2,0.3,1.6c0.2,0.5,0.5,0.8,0.7,1.1c0.3,0.3,0.5,0.4,0.7,0.5c0.2,0.1,0.3,0,0.3-0.2
		c0-0.1,0-0.1-0.1-0.2c0,0-0.1-0.1-0.1-0.2c0-0.1-0.1-0.2-0.1-0.3c0-0.1-0.1-0.3-0.1-0.6c0-0.6,0.2-1.2,0.5-1.9
		c0.3-0.6,0.7-1.3,1.3-1.9c0.5-0.6,1.1-1.1,1.8-1.7c0.7-0.5,1.3-0.9,2-1.3c-0.2,0.8-0.6,1.7-1,2.7c-0.4,1-0.8,2-1.2,3
		c0,0-0.1,0-0.1,0c0,0-0.1,0-0.1,0c-0.1,0-0.2,0-0.2,0.1c-0.1,0.1-0.1,0.2-0.1,0.3c0,0.1,0,0.2,0,0.4c0,0.1,0.1,0.3,0.1,0.4
		c-0.3,0.6-0.5,1.2-0.8,1.8c-0.3,0.6-0.5,1.1-0.7,1.6c-0.2,0.5-0.3,0.9-0.5,1.2c-0.1,0.3-0.2,0.5-0.2,0.6c0,0.1,0.1,0.3,0.2,0.4
		c0.1,0.2,0.3,0.3,0.5,0.4c0.2,0.1,0.4,0.3,0.6,0.4c0.2,0.1,0.4,0.2,0.5,0.2c0.4,0.2,0.8,0.3,1.2,0.4c0.5,0.1,0.9,0.2,1.5,0.2
		c0.6,0,1.1-0.1,1.7-0.3c0.5-0.2,1-0.5,1.5-0.9c0.4-0.4,0.8-0.8,1-1.3c0.3-0.5,0.4-1.1,0.4-1.7c0-0.9-0.2-1.6-0.5-2.1
		C71.6,78,71.1,77.6,70.6,77.4 M69.3,74.6c0.3-0.6,0.5-1.2,0.7-1.8c0.2-0.5,0.4-1,0.5-1.4c0.1-0.4,0.2-0.6,0.2-0.8
		c0-0.1,0-0.3-0.1-0.5c0.1,0,0.1,0,0.2,0H71c0.6,0,1,0.2,1.4,0.5c0.3,0.3,0.6,0.7,0.7,1.1c0.1,0.5,0.1,1,0,1.5
		c-0.1,0.5-0.4,1-0.8,1.5c-0.4,0.5-0.9,0.9-1.5,1.2c-0.6,0.3-1.4,0.6-2.2,0.6C68.8,75.9,69.1,75.3,69.3,74.6 M70.6,81
		c-0.2,0.4-0.4,0.7-0.8,1.1c-0.3,0.3-0.8,0.6-1.3,0.9c-0.5,0.2-1.1,0.4-1.7,0.4c-0.3,0-0.6,0-0.8-0.1c0-0.2,0.1-0.5,0.2-0.8
		c0.1-0.3,0.3-0.8,0.5-1.2c0.2-0.5,0.4-1,0.6-1.5c0.2-0.5,0.4-1.1,0.7-1.7c0.1,0,0.2,0,0.3-0.1c0.1,0,0.2,0,0.3-0.1c0,0,0.1,0,0.1,0
		c0,0,0.1,0,0.1,0c0.1,0,0.2,0,0.2,0c0.1,0,0.1,0,0.2,0c0.6,0,1,0.2,1.3,0.6c0.3,0.4,0.4,0.9,0.4,1.5C70.9,80.3,70.8,80.6,70.6,81
		 M95,78.5c0-0.1-0.1-0.2-0.1-0.2c-0.1,0-0.1,0-0.2,0.1c-0.2,0.3-0.5,0.7-0.8,1.1c-0.3,0.4-0.6,0.7-1,1c-0.3,0.3-0.7,0.6-1.1,0.9
		c-0.4,0.3-0.7,0.4-1.1,0.6c0.4-0.6,0.7-1.2,0.9-1.8c0.2-0.6,0.4-1.1,0.4-1.6c0-0.3,0-0.7-0.1-1c-0.1-0.4-0.2-0.7-0.4-1
		c-0.2-0.3-0.4-0.6-0.7-0.8c-0.3-0.2-0.6-0.3-1-0.3c-0.4,0-0.7,0.1-1.1,0.3c-0.4,0.2-0.7,0.4-1.1,0.8c-0.3,0.3-0.6,0.7-0.9,1.1
		c-0.3,0.4-0.4,0.9-0.5,1.3c-0.2,0.2-0.4,0.5-0.5,0.8c-0.2,0.3-0.3,0.6-0.5,0.8c-0.2,0.3-0.3,0.5-0.4,0.8c-0.1,0.3-0.2,0.5-0.2,0.7
		c0,0,0,0,0,0.1c-0.3,0.4-0.5,0.7-0.7,1c-0.2,0.3-0.5,0.6-0.7,0.8c-0.2,0.2-0.4,0.3-0.5,0.3c-0.2,0-0.2-0.2-0.1-0.5
		c0.1-0.3,0.3-0.8,0.4-1.2c0.2-0.5,0.3-0.9,0.5-1.4c0.2-0.5,0.3-0.9,0.4-1.2c0.1-0.4,0.2-0.6,0.2-0.8c0-0.3,0-0.6-0.2-0.8
		c-0.1-0.2-0.3-0.4-0.5-0.6c-0.2-0.2-0.5-0.3-0.7-0.5c-0.3-0.2-0.5-0.3-0.7-0.5c0.3-0.5,0.5-1.1,0.8-1.7c0.2-0.6,0.4-1.1,0.4-1.7
		c0.1-0.6,0-1.1-0.2-1.4c-0.2-0.3-0.4-0.4-0.7-0.4c-0.2,0-0.5,0.1-0.9,0.2c-0.4,0.2-0.7,0.4-1,0.7c-0.3,0.3-0.6,0.6-0.9,1
		c-0.3,0.4-0.4,0.8-0.4,1.3c0,0.4,0,0.7,0.1,1c0.1,0.3,0.2,0.5,0.3,0.8c0.2,0.2,0.3,0.4,0.5,0.6c0.2,0.2,0.4,0.3,0.6,0.5
		c-0.1,0.2-0.3,0.4-0.4,0.6c-0.1,0.2-0.2,0.3-0.3,0.4c0,0,0,0.1,0,0.1c-0.2,0.2-0.3,0.5-0.5,0.7c-0.3,0.4-0.5,0.7-0.8,1.1
		c-0.3,0.4-0.6,0.8-0.9,1.1c-0.3,0.4-0.6,0.7-0.8,1c-0.3,0.3-0.5,0.5-0.7,0.7c-0.2,0.2-0.4,0.3-0.5,0.3c-0.2,0-0.2-0.2-0.1-0.5
		c0.1-0.3,0.2-0.6,0.4-1c0.1-0.4,0.3-0.8,0.4-1.2c0.2-0.4,0.3-0.8,0.5-1.2c0.2-0.4,0.3-0.8,0.4-1.2c0.1-0.4,0.2-0.7,0.3-0.9
		c0.1-0.3,0.1-0.4,0.1-0.6c0-0.2-0.1-0.4-0.3-0.6c-0.2-0.2-0.4-0.4-0.7-0.5c-0.2-0.1-0.5-0.2-0.7-0.2c-0.2,0-0.3,0.1-0.3,0.3
		c0,0.1-0.1,0.3-0.2,0.7c-0.1,0.3-0.3,0.7-0.5,1.2c-0.2,0.5-0.4,0.9-0.6,1.5c-0.2,0.5-0.4,1-0.6,1.5c-0.2,0.5-0.4,0.9-0.5,1.3
		c-0.1,0.4-0.2,0.7-0.2,0.9c0,0.3,0.1,0.6,0.2,0.8c0.2,0.2,0.4,0.3,0.6,0.4c0.3,0.1,0.5,0.2,0.7,0.2c0.2,0,0.4,0.1,0.5,0.1h0.1
		c0.3,0,0.6-0.2,0.9-0.4c0.3-0.2,0.7-0.5,1-0.9c0.3-0.3,0.7-0.7,1-1.1c0.3-0.4,0.6-0.8,0.9-1.2c0.3-0.4,0.5-0.8,0.8-1.1
		c0.2-0.3,0.3-0.5,0.4-0.7c0,0,0,0,0,0c0.1-0.1,0.2-0.3,0.4-0.5c0.2-0.2,0.3-0.5,0.5-0.7c0.2,0.2,0.4,0.3,0.6,0.5
		c0.1,0.2,0.2,0.4,0.2,0.6c0,0.2-0.1,0.5-0.3,0.8c-0.2,0.4-0.4,0.8-0.6,1.2c-0.2,0.4-0.4,0.9-0.6,1.3C80.1,83,80,83.3,80,83.7
		c0,0.3,0.1,0.6,0.2,0.8c0.2,0.2,0.4,0.3,0.6,0.5c0.3,0.1,0.5,0.2,0.7,0.2c0.2,0,0.4,0.1,0.5,0.1c0,0,0,0,0.1,0c0,0,0,0,0,0
		c0.3,0,0.6-0.2,0.9-0.4c0.3-0.3,0.6-0.6,1-0.9c0.2-0.2,0.4-0.5,0.6-0.7c0.1,0.3,0.3,0.5,0.5,0.8c0.2,0.3,0.5,0.5,0.8,0.7
		c0.3,0.2,0.7,0.3,1.1,0.3c0.5,0,1-0.2,1.5-0.5c0.5-0.3,0.9-0.8,1.4-1.3c0.6-0.1,1.1-0.3,1.7-0.6c0.5-0.3,1-0.7,1.4-1.1
		c0.4-0.4,0.8-0.8,1.1-1.2c0.3-0.4,0.6-0.8,0.8-1c0,0,0.1-0.1,0.1-0.2C95,78.7,95,78.6,95,78.5 M81.4,76.2c-0.1-0.2-0.3-0.4-0.3-0.6
		C81,75.3,81,75,81,74.7c0-0.2,0.1-0.5,0.1-0.8c0.1-0.3,0.2-0.5,0.3-0.8c0.1-0.2,0.2-0.5,0.4-0.6c0.1-0.2,0.2-0.3,0.4-0.3
		c0.1,0,0.2,0.1,0.3,0.2c0.1,0.1,0.1,0.4,0,0.8c0,0.4-0.2,0.9-0.4,1.4C81.9,75.2,81.7,75.7,81.4,76.2 M87.4,83.4
		c-0.2,0.2-0.5,0.2-0.7,0.2c-0.1,0-0.2,0-0.3-0.1c0-0.1,0-0.2,0-0.3c0-0.1,0.1-0.3,0.2-0.5c0.1-0.2,0.2-0.4,0.4-0.6
		c0.3,0.3,0.7,0.5,1.1,0.7C87.9,83,87.6,83.3,87.4,83.4 M90.2,78.2c0,0.2-0.1,0.5-0.2,0.8c-0.1,0.3-0.2,0.6-0.3,0.9
		c-0.1,0.3-0.3,0.7-0.5,1c-0.2,0.4-0.4,0.7-0.6,1c-0.4-0.1-0.8-0.4-1.2-0.6c0.2-0.2,0.3-0.5,0.5-0.7c0.2-0.2,0.3-0.4,0.4-0.6
		c0.1-0.2,0.2-0.4,0.3-0.5c0.1-0.2,0.1-0.3,0.1-0.4c0-0.2,0-0.3-0.2-0.4c-0.1-0.1-0.3-0.3-0.5-0.4c-0.2-0.1-0.4-0.2-0.6-0.3
		c-0.2-0.1-0.4-0.1-0.5-0.1c0.2-0.3,0.3-0.5,0.5-0.7c0.2-0.2,0.4-0.4,0.6-0.5c0.2-0.2,0.4-0.3,0.6-0.4c0.2-0.1,0.4-0.1,0.6-0.1
		c0.3,0,0.5,0.2,0.6,0.5C90.2,76.9,90.3,77.4,90.2,78.2"/>
	<path class="st0" d="M43.4,49.7L43.4,49.7L43.4,49.7c-0.1,0.1-0.1,0.1-0.2,0.2v0l0,0c-0.1,0.1-0.1,0.1-0.1,0.2c0,0.1,0,0.1,0.1,0.2
		c0.1,0.1,0.4,0.3,0.6,0.4c0.3,0.2,0.7,0.5,0.9,0.7c0.4,0.4,0.8,0.9,1,1.3c0.2-0.3,0.5-0.9,1-1.3c0.2-0.2,0.6-0.5,0.9-0.7
		c0.2-0.2,0.5-0.3,0.6-0.4c0.1,0,0.1-0.1,0.1-0.2c0-0.1,0-0.1-0.1-0.2L48,49.7c-0.5-0.6-1.1-1.2-2.3-1.2
		C44.5,48.4,43.9,49.1,43.4,49.7z M47.2,37.4c0.8,0.4,1.5,0.9,2.2,1.7c-0.2-1.5-0.6-2-0.8-2.2C48,37,47.5,37.2,47.2,37.4z
		 M47.1,53.2L47.1,53.2L47.1,53.2c0.3,0.2,0.7,0.5,0.9,0.7h0l0,0c0.4,0.4,0.8,0.9,1,1.3c0.2-0.3,0.5-0.9,1-1.3
		c0.2-0.2,0.6-0.5,0.9-0.7c0.2-0.2,0.4-0.3,0.6-0.4c0.1,0,0.1-0.1,0.1-0.2c0-0.1,0-0.1-0.1-0.2c-0.1-0.1-0.1-0.1-0.2-0.2
		c-0.5-0.5-1.1-1.2-2.3-1.2c-1.2,0-1.8,0.7-2.3,1.2c-0.1,0.1-0.1,0.1-0.2,0.2c-0.1,0.1-0.1,0.1-0.1,0.2c0,0.1,0,0.1,0.1,0.2
		C46.6,52.9,46.8,53,47.1,53.2z M53.4,51.4c0.2-0.2,0.6-0.5,0.9-0.7c0.2-0.2,0.5-0.3,0.6-0.4c0.1,0,0.1-0.1,0.1-0.2
		c0-0.1,0-0.1-0.1-0.2c-0.1-0.1-0.1-0.1-0.2-0.2c-0.5-0.6-1.1-1.2-2.3-1.2c-1.2,0-1.8,0.7-2.3,1.2c-0.1,0.1-0.1,0.1-0.2,0.2
		c-0.1,0.1-0.1,0.1-0.1,0.2c0,0.1,0,0.1,0.1,0.2c0.1,0.1,0.4,0.3,0.6,0.4c0.3,0.2,0.7,0.5,0.9,0.7c0.4,0.4,0.8,0.9,1,1.3
		C52.6,52.3,52.9,51.8,53.4,51.4z M43.4,44.4c-0.1,0.1-0.1,0.1-0.2,0.2c-0.1,0.1-0.1,0.1-0.1,0.2c0,0.1,0,0.1,0.1,0.2
		c0.1,0.1,0.4,0.3,0.6,0.4c0.3,0.2,0.6,0.5,0.9,0.7h0l0,0c0.4,0.4,0.8,0.9,1,1.3c0.2-0.3,0.5-0.9,1-1.3c0.3-0.2,0.6-0.5,0.9-0.7l0,0
		c0.2-0.2,0.4-0.3,0.6-0.4c0.1,0,0.1-0.1,0.1-0.2c0-0.1,0-0.1-0.1-0.2c-0.1-0.1-0.1-0.1-0.2-0.2c-0.5-0.5-1.1-1.2-2.3-1.2
		C44.5,43.1,43.9,43.8,43.4,44.4z M45.7,42.1c0.2-0.3,0.5-0.9,1-1.3c0.3-0.2,0.6-0.5,0.9-0.7l0,0c0.2-0.2,0.4-0.3,0.6-0.4
		c0.1,0,0.1-0.1,0.1-0.2c0-0.1,0-0.1-0.1-0.2c-0.1-0.1-0.1-0.1-0.2-0.2l0,0c-0.1-0.1-0.3-0.3-0.4-0.4c-0.3-0.2-0.7-0.4-1.1-0.5
		c-0.1,0-0.3-0.1-0.3-0.3c0,0,0,0,0,0l0,0c-0.8,0.6-1.6,1.3-2.3,2.2c0.3,0.2,0.6,0.5,0.9,0.7C45.1,41.2,45.5,41.7,45.7,42.1z
		 M44,20.6c-0.4-0.2-0.8-0.3-1.1-0.4c-0.4-0.1-0.7-0.2-0.9-0.3c0.3,1,1.3,3.2,2.3,4.3c0.6-0.8,1.2-1.3,1.2-1.3l0.3-0.2l0,0.4
		c0,0.2,0.1,2,0.3,2.6c0,0.1,0.1,0.4,0.3,0.8c0.5-0.9,0.9-1.6,0.9-1.7c0-0.3-1-2.2-1.9-3.1C45.1,21.3,44.6,20.9,44,20.6z M46.7,46.9
		c-0.1,0.1-0.1,0.1-0.2,0.2l0,0c0,0.1-0.1,0.1-0.1,0.2c0,0.1,0,0.1,0.1,0.2c0.1,0.1,0.4,0.3,0.6,0.4c0.3,0.2,0.7,0.5,0.9,0.7
		c0.4,0.4,0.8,0.9,1,1.3c0.2-0.3,0.5-0.9,1-1.3c0.2-0.2,0.6-0.5,0.9-0.7c0.2-0.2,0.4-0.3,0.6-0.4c0.1,0,0.1-0.1,0.1-0.2
		c0-0.1,0-0.1-0.1-0.2c-0.1-0.1-0.1-0.1-0.2-0.2c-0.5-0.5-1.1-1.2-2.3-1.2C47.8,45.7,47.2,46.4,46.7,46.9z M54.3,45.4
		c0.2-0.2,0.4-0.3,0.6-0.4c0.1,0,0.1-0.1,0.1-0.2c0-0.1,0-0.1-0.1-0.2c-0.1-0.1-0.1-0.1-0.2-0.2c-0.5-0.6-1.2-1.3-2.3-1.3
		c-1.2,0-1.8,0.7-2.3,1.2l0,0c-0.1,0.1-0.1,0.1-0.2,0.2c-0.1,0.1-0.1,0.1-0.1,0.2c0,0.1,0,0.1,0.1,0.2c0.1,0.1,0.4,0.3,0.6,0.4
		c0.3,0.2,0.7,0.5,0.9,0.7c0.4,0.4,0.8,0.9,1,1.3c0.2-0.3,0.6-0.9,1-1.3C53.6,45.9,54,45.6,54.3,45.4z M44,32.2
		c-1.9,0-3.4,0.8-4.7,2.4c1.9-1.4,4.1-1.4,4.1-1.4c0.4,0,2,0.2,2.8,0.5c-0.1-0.4-0.1-0.9-0.2-1.1c-0.2-0.2-1.3-0.5-2-0.5L44,32.2z
		 M50.3,29.8c-0.9,0.7-2.2,2-2.5,4.6c0.4,0.1,1,0.2,1.4,0.5c0.5-0.2,1.4-0.3,1.8-0.2c0.4-0.8,0.6-1.5,0.5-3.5c0-1.1,0.1-2.1,0.2-2.8
		C51.4,28.8,50.9,29.4,50.3,29.8z M47.4,26.2L47.4,26.2c-0.3,0.6-0.6,1.2,0,2c0.5,0.6,1,1.5,1.3,1.9c0.3-0.3,0.9-0.8,1.2-1.1
		c0,0,0.1-0.1,0.1-0.1c0.4-0.3,1-0.8,1-2c0-0.3,0-0.8,0-1.3c0-1.4-0.1-3.4,0.1-4.8C49.6,22.6,47.6,25.7,47.4,26.2z M50.9,42.7
		c0.2-0.2,0.5-0.3,0.6-0.4c0.1,0,0.1-0.1,0.1-0.2c0-0.1,0-0.1-0.1-0.2c-0.1-0.1-0.1-0.1-0.2-0.2c-0.5-0.5-1.1-1.2-2.3-1.2
		c-1.2,0-1.8,0.7-2.3,1.2c-0.1,0.1-0.1,0.1-0.2,0.2l0,0c0,0.1-0.1,0.1-0.1,0.2c0,0.1,0,0.1,0.1,0.2c0.1,0.1,0.4,0.3,0.6,0.4
		c0.3,0.2,0.7,0.5,0.9,0.7c0.4,0.4,0.8,0.9,1,1.3c0.2-0.3,0.5-0.9,1-1.3C50.2,43.1,50.6,42.9,50.9,42.7z M45.3,29.8
		c0.1,0.1,0.2,0.3,0.3,0.5c0.4,0.6,1.1,1.5,1.4,3c0.3-1.5,0.8-2.5,0.9-2.7c-0.3-0.4-1.3-1.9-2-2.9c-0.6-0.9-0.9-2.1-0.9-3.1
		c-0.4,0.8-0.7,1.9-0.7,2.6c0,0.9,0.5,1.8,0.9,2.5v0L45.3,29.8z M56.3,32.8c-1.3,0-3.2,0.5-4.5,1.8c0.3,0,0.7,0.1,1.1,0.3
		C53.8,34,55.2,33.2,56.3,32.8z M57.6,27.6c-0.8,0-2.1,0.2-2.5,0.3c-0.2,0-1.1,0.8-1.7,1.5c0.5-0.2,1.3-0.4,2.1-0.4
		C56.2,28.3,57.1,27.9,57.6,27.6z M49.9,35.7c0.1,0.4,0.1,0.8,0,1c0,0,0,0.1-0.1,0.1c0.1,0.1,0.1,0.3,0.2,0.3c0.6,0,2.7,0.1,4.2,1.4
		c-0.5-2.4-2.2-3-3.1-3C50.5,35.5,50.1,35.6,49.9,35.7z M51.7,21.9v4.8c0.5-0.9,1.2-2.4,1.6-2.9c0.6-0.9,1.2-1.4,3.3-1.8
		c0.9-0.8,1.6-3.4,1.8-4.9c-0.8,0.7-1.8,1.4-2.7,1.9C54.7,19.5,52.5,21,51.7,21.9z M40.3,42.6L40.3,42.6c0.3,0.2,0.7,0.5,0.9,0.7
		c0.4,0.4,0.8,0.9,1,1.3c0.2-0.3,0.5-0.9,1-1.3c0.3-0.2,0.6-0.5,0.9-0.7c0.2-0.2,0.4-0.3,0.6-0.4c0.1,0,0.1-0.1,0.1-0.2
		c0-0.1,0-0.1-0.1-0.2c-0.1-0.1-0.1-0.1-0.2-0.2c-0.5-0.6-1.2-1.2-2.3-1.2c-0.6,0-1.1,0.2-1.5,0.5c-0.4,0.4-0.7,0.8-1.1,1.2
		c0,0.1,0,0.1,0.1,0.2C39.9,42.3,40.1,42.5,40.3,42.6z M52.3,31.4c0,0.7-0.1,1.3-0.1,1.7c0.7-0.4,2.1-1.2,3.6-1.2c0,0,0.1,0,0.1,0
		c1.1-0.5,2.2-1.7,2.7-2.2c-0.9,0.1-2.5,0.2-3.5,0.4c-1.6,0.2-2.7,0.7-2.8,0.8C52.3,31,52.3,31.2,52.3,31.4z M44.6,35.5
		c0.7-0.5,1.4-0.7,1.7-0.8v-0.3c-0.2,0-0.6-0.1-1.6-0.2c-1.5,0-3.5,1-4.2,2.1C41.8,35.5,43.7,35.3,44.6,35.5z M51.2,38.1
		c-0.4,0.2-0.7,0.5-0.9,0.8c0,0.3,0.1,0.7,0.1,1.1l0.1,0.1c0.3,0.2,0.7,0.5,0.9,0.7c0.4,0.4,0.8,1,1,1.3c0.2-0.3,0.5-0.9,1-1.3
		c0.3-0.2,0.6-0.5,0.9-0.7l0.1-0.1C53.6,38.8,52.2,38.3,51.2,38.1z M48.7,35.8c-0.1-0.1-0.1-0.2-0.3-0.3c-0.1-0.1-0.2-0.1-0.3-0.1
		c0,0-0.1,0-0.2,0c-2.6,0.4-4.1,1.7-4.5,3.8C45.8,36.5,47.7,35.9,48.7,35.8z M42.3,39c0.2-0.4,0.8-1.9,1.5-2.7
		c-0.8-0.1-1.4-0.1-1.6-0.1c-0.7,0.5-1.5,2.4-1.7,3.6C41.1,39.3,42,39.1,42.3,39z M57.2,39.9c-0.2-1.9-1.5-3.6-1.7-3.6
		c-0.2-0.1-0.8-0.1-1.3,0c0.2,0.6,0.8,2,0.9,2.5C55.7,38.9,56.4,39.2,57.2,39.9z M53.4,56.7c0.3-0.2,0.6-0.5,0.9-0.7
		c0.2-0.2,0.4-0.3,0.6-0.4c0.1,0,0.1-0.1,0.1-0.2c0-0.1,0-0.1-0.1-0.2c-0.1-0.1-0.1-0.1-0.2-0.2c-0.5-0.6-1.1-1.2-2.3-1.2
		c-1.2,0-1.8,0.7-2.3,1.2c-0.1,0.1-0.1,0.1-0.2,0.2c-0.1,0.1-0.1,0.1-0.1,0.2c0,0.1,0,0.1,0.1,0.2c0.1,0.1,0.4,0.3,0.6,0.4
		c0.3,0.2,0.7,0.5,0.9,0.7c0.4,0.4,0.8,1,1,1.3C52.6,57.6,52.9,57.1,53.4,56.7z M48.2,60.6c0-0.1,0-0.1-0.1-0.2l0,0
		c-0.1-0.1-0.1-0.1-0.2-0.2c-0.5-0.6-1.1-1.2-2.3-1.2c-1.2,0-1.8,0.7-2.3,1.2c-0.1,0.1-0.1,0.1-0.2,0.2c-0.1,0.1-0.1,0.2-0.1,0.2
		c1.4,0.9,2.6,1.3,3.4,1.4c0,0,0.1-0.1,0.1-0.1c0.3-0.2,0.6-0.5,0.9-0.7l0,0c0.2-0.2,0.4-0.3,0.5-0.4C48.2,60.8,48.2,60.7,48.2,60.6
		z M39.9,46.9c-0.1,0.1-0.1,0.1-0.2,0.2c-0.1,0.1-0.1,0.1-0.1,0.2c0,0.1,0,0.1,0.1,0.2c0.1,0.1,0.3,0.3,0.6,0.4l0,0
		c0.3,0.2,0.7,0.5,0.9,0.7c0.4,0.4,0.8,0.9,1,1.3c0.2-0.3,0.5-0.9,1-1.3c0.3-0.2,0.6-0.5,0.9-0.7c0.2-0.2,0.4-0.3,0.6-0.4
		c0.1,0,0.1-0.1,0.1-0.2c0-0.1,0-0.1-0.1-0.2c-0.1-0.1-0.1-0.1-0.2-0.2c-0.5-0.6-1.2-1.3-2.3-1.3S40.4,46.4,39.9,46.9z M54.7,60.2
		c-0.5-0.6-1.1-1.2-2.3-1.2c-1.2,0-1.8,0.7-2.3,1.2c-0.1,0.1-0.1,0.1-0.2,0.2c-0.1,0.1-0.1,0.1-0.1,0.2c0,0.1,0,0.1,0.1,0.2
		c0.1,0.1,0.3,0.3,0.6,0.4c0.3,0.2,0.7,0.5,0.9,0.7c0,0,0.1,0.1,0.1,0.1c0.8-0.1,2.1-0.5,3.4-1.4c0-0.1,0-0.1-0.1-0.2
		C54.8,60.4,54.7,60.3,54.7,60.2z M38,50c0.1,0.3,0.2,0.6,0.3,0.8l0,0l0,0.1c0,0,0,0,0,0l0,0.1h0c0,0.2,0,0.4-0.1,0.6l0,0
		c0,0.1,0.1,0.1,0.2,0.2c0.1,0.1,0.1,0.1,0.2,0.2c0.1,0.1,0.1,0.2,0.2,0.2c0.1,0.1,0.1,0.2,0.2,0.2c0.2-0.3,0.5-0.8,0.9-1.2
		c0.3-0.2,0.6-0.5,0.9-0.7c0.2-0.2,0.4-0.3,0.6-0.4c0.1,0,0.1-0.1,0.1-0.2c0-0.1,0-0.1-0.1-0.2c-0.1-0.1-0.1-0.1-0.2-0.2
		c-0.5-0.6-1.2-1.2-2.3-1.2c-0.5,0-0.9,0.1-1.3,0.3c0.1,0.2,0.1,0.4,0.2,0.5c0,0.2,0.1,0.3,0.1,0.4C38,49.8,38,49.9,38,50z M38.1,51
		L38.1,51C38.1,51,38.1,51,38.1,51L38.1,51z M41.4,55.4c0.1,0,0.1-0.1,0.1-0.2c0-0.1,0-0.1-0.1-0.2c-0.1-0.1-0.1-0.1-0.2-0.2
		c-0.5-0.6-1.2-1.2-2.3-1.2c-0.3,0-0.7,0.1-1,0.2c0,0,0,0,0,0c0.2,0.2,0.5,0.7,0.8,1c0.5,0.6,0.9,1.1,1.3,1.6
		c0.2-0.2,0.5-0.4,0.8-0.6C41,55.7,41.2,55.6,41.4,55.4z M43.2,59.1c0.2-0.2,0.6-0.5,0.9-0.7c0.2-0.2,0.4-0.3,0.6-0.4
		c0.1,0,0.1-0.1,0.1-0.2c0-0.1,0-0.1-0.1-0.2c-0.1-0.1-0.1-0.1-0.2-0.2l0,0c-0.5-0.5-1.1-1.2-2.3-1.2c-0.9,0-1.5,0.4-1.9,0.8
		c0,0.1,0,0.2,0,0.3l0,0.2c-0.1,0.5-0.1,0.7-0.1,0.7c0.1,0.1,0.4,0.4,0.6,0.6l0.1,0.1c0.2,0.2,0.3,0.3,0.4,0.4
		c0.3,0.3,0.7,0.7,1.1,1C42.6,59.9,42.9,59.5,43.2,59.1L43.2,59.1z M58.8,22.6c-0.7,0.1-1.5,0.1-2.2,0.2c-2.4,0.3-3.3,2.5-3.5,3.2
		l0,0c-0.2,0.5-0.5,2.4-0.6,3.4c0.7-0.7,1.9-2,2.9-2.6c0.6-0.4,1.1-0.6,1.6-0.9c0.6-0.3,1.2-0.6,2.1-1.1c1.2-0.8,2.1-1.8,2.5-2.5
		C61,22.4,60.1,22.5,58.8,22.6z M59,43.5c-0.1-0.1-0.2-0.2-0.2-0.3c-0.9,0.1-1.4,0.7-1.9,1.2c-0.1,0.1-0.1,0.1-0.2,0.2
		c-0.1,0.1-0.1,0.1-0.1,0.2c0,0.1,0,0.1,0.1,0.2c0.1,0.1,0.4,0.3,0.6,0.4c0.3,0.2,0.7,0.5,0.9,0.7c0.4,0.4,0.8,0.9,1,1.3
		c0.2-0.3,0.5-0.9,1-1.3c0.1-0.1,0.1-0.1,0.2-0.2c-0.3-0.7-0.6-1.3-1-1.9C59.3,43.8,59.1,43.7,59,43.5z M59.2,53.6
		c-1.2,0-1.8,0.7-2.3,1.2c-0.1,0.1-0.1,0.1-0.2,0.2c-0.1,0.1-0.1,0.1-0.1,0.2c0,0.1,0,0.1,0.1,0.2c0.1,0.1,0.4,0.3,0.6,0.4
		c0.3,0.2,0.5,0.4,0.8,0.6c0.4-0.5,0.8-1,1.3-1.6c0.3-0.3,0.6-0.8,0.8-1c0,0-0.1-0.1-0.2-0.1C59.7,53.7,59.4,53.6,59.2,53.6z
		 M57.6,57.2c0-0.1,0-0.2,0-0.3c-0.4-0.4-1-0.8-1.9-0.8c-1.2,0-1.8,0.7-2.3,1.2l-0.2,0.2c-0.1,0.1-0.1,0.1-0.1,0.2
		c0,0.1,0,0.1,0.1,0.2c0.1,0.1,0.3,0.3,0.6,0.4l0,0c0.3,0.2,0.7,0.5,0.9,0.7c0.3,0.3,0.6,0.7,0.8,1c0.4-0.3,0.7-0.6,1.1-1
		c0.1-0.1,0.2-0.2,0.4-0.4l0,0c0.2-0.2,0.6-0.5,0.7-0.6c0-0.1,0-0.3-0.1-0.7C57.6,57.3,57.6,57.3,57.6,57.2z M56.9,49.7L56.9,49.7
		c-0.1,0.1-0.1,0.1-0.2,0.2v0l0,0c-0.1,0.1-0.1,0.1-0.1,0.2c0,0.1,0,0.1,0.1,0.2c0.1,0.1,0.3,0.3,0.6,0.4c0.3,0.2,0.7,0.5,0.9,0.7
		c0.4,0.4,0.7,0.8,0.9,1.1c0-0.1,0.1-0.1,0.1-0.2l0,0c0-0.1,0.1-0.1,0.2-0.2c0-0.1,0.1-0.1,0.2-0.2c0.1-0.1,0.1-0.2,0.2-0.2
		c-0.2-0.2-0.1-0.5-0.1-0.7c0-0.3,0.2-0.6,0.3-0.9c0-0.1,0.1-0.2,0.1-0.3c0-0.1,0.1-0.3,0.1-0.4l0,0c0.1-0.2,0.1-0.4,0.2-0.6
		c-0.4-0.2-0.8-0.3-1.2-0.3C58,48.4,57.4,49.1,56.9,49.7z M47.8,61.9l0.9,0.4c0,0,0.1,0,0.1,0l0,0h0.1c0.1,0,0.2,0,0.3,0
		c0,0,0.1,0,0.1,0l0.9-0.4L49,61.2L47.8,61.9z M56.7,53.9c0.3-0.2,0.6-0.5,0.9-0.7c0.2-0.2,0.4-0.3,0.6-0.4c0.1,0,0.1-0.1,0.1-0.2
		c0-0.1,0-0.1-0.1-0.2c-0.1-0.1-0.1-0.1-0.2-0.2c-0.5-0.6-1.1-1.2-2.3-1.2c-1.2,0-1.8,0.7-2.3,1.2l-0.2,0.2
		c-0.1,0.1-0.1,0.1-0.1,0.2c0,0.1,0,0.1,0.1,0.2c0.1,0.1,0.3,0.3,0.6,0.4l0,0c0.3,0.2,0.7,0.5,0.9,0.7c0.4,0.4,0.8,0.9,1,1.3
		C56,54.8,56.3,54.3,56.7,53.9z M47.1,58.4L47.1,58.4L47.1,58.4c0.3,0.2,0.7,0.5,0.9,0.7h0l0,0c0.4,0.4,0.8,0.9,1,1.3
		c0.2-0.3,0.5-0.9,1-1.3c0.2-0.2,0.6-0.5,0.9-0.7c0.2-0.2,0.4-0.3,0.6-0.4c0.1,0,0.1-0.1,0.1-0.2c0-0.1,0-0.1-0.1-0.2
		c-0.1-0.1-0.1-0.1-0.2-0.2c-0.5-0.5-1.1-1.2-2.3-1.2c-1.2,0-1.8,0.7-2.3,1.2c-0.1,0.1-0.1,0.1-0.2,0.2c-0.1,0.1-0.1,0.1-0.1,0.2
		c0,0.1,0,0.1,0.1,0.2C46.6,58.1,46.8,58.3,47.1,58.4z M56.8,48.6c0.2-0.2,0.6-0.5,0.9-0.7c0.2-0.2,0.4-0.3,0.6-0.4
		c0.1,0,0.1-0.1,0.1-0.2c0-0.1,0-0.1-0.1-0.2c-0.1-0.1-0.1-0.1-0.2-0.2c-0.5-0.6-1.1-1.2-2.3-1.2c-1.2,0-1.8,0.7-2.3,1.2
		c-0.1,0.1-0.1,0.1-0.2,0.2c-0.1,0.1-0.1,0.1-0.1,0.2c0,0.1,0,0.1,0.1,0.2c0.1,0.1,0.3,0.3,0.6,0.4l0,0c0.3,0.2,0.7,0.5,0.9,0.7
		c0.4,0.4,0.8,0.9,1,1.3C56,49.6,56.3,49,56.8,48.6L56.8,48.6z M43.8,56c0.3,0.2,0.6,0.4,0.9,0.7h0l0,0c0.4,0.4,0.8,0.9,1,1.3
		c0.2-0.3,0.5-0.9,1-1.3c0.3-0.2,0.6-0.5,0.9-0.7c0.2-0.2,0.4-0.3,0.6-0.4c0.1,0,0.1-0.1,0.1-0.2c0-0.1,0-0.1-0.1-0.2
		C48.1,55.1,48,55,48,54.9c-0.5-0.5-1.1-1.2-2.3-1.2c-1.2,0-1.8,0.7-2.3,1.2c-0.1,0.1-0.1,0.1-0.2,0.2c-0.1,0.1-0.1,0.1-0.1,0.2
		c0,0.1,0,0.1,0.1,0.2C43.3,55.6,43.5,55.8,43.8,56z M57.7,42.7c0.2-0.2,0.4-0.3,0.6-0.4c0,0,0.1-0.1,0.1-0.2
		c-0.3-0.4-0.7-0.8-1.1-1.2c-0.4-0.3-0.9-0.5-1.5-0.5c-1.2,0-1.8,0.7-2.3,1.2c-0.1,0.1-0.1,0.1-0.2,0.2c-0.1,0.1-0.1,0.1-0.1,0.2
		c0,0.1,0,0.1,0.1,0.2c0.1,0.1,0.3,0.3,0.6,0.4l0,0c0.3,0.2,0.7,0.5,0.9,0.7c0.4,0.4,0.8,0.9,1,1.3c0.2-0.3,0.5-0.9,1-1.3
		C57,43.1,57.3,42.9,57.7,42.7z M39.9,52.2L39.9,52.2l-0.2,0.2c-0.1,0.1-0.1,0.1-0.1,0.2c0,0.1,0,0.1,0.1,0.2
		c0.1,0.1,0.3,0.3,0.6,0.4l0,0c0.3,0.2,0.7,0.5,0.9,0.7c0.4,0.4,0.8,0.9,1,1.3c0.2-0.3,0.5-0.9,1-1.3c0.3-0.2,0.6-0.5,0.9-0.7
		c0.2-0.2,0.4-0.3,0.6-0.4c0.1,0,0.1-0.1,0.1-0.2c0-0.1,0-0.1-0.1-0.2c-0.1-0.1-0.1-0.1-0.2-0.2l0,0c-0.5-0.5-1.1-1.2-2.3-1.2
		S40.4,51.6,39.9,52.2z M47.9,23.7l3.8-5.1v2.2c0.4-0.3,1-0.9,1.1-1.2c0.4-1.2,1.1-5.6,1.3-7c-1,0.9-3.9,3.5-5.1,5.4
		C47.9,19.6,47.8,22.4,47.9,23.7z M39.5,28L39.5,28c0.3,0.5,2.3,2.7,3.2,3.4h1c-0.5-0.5-1.5-1.4-2.3-3.1c-0.4-0.8-0.5-0.8-1.1-1
		l-0.1,0c-0.2-0.1-0.4-0.2-0.8-0.3c-0.4-0.1-0.8-0.3-1.2-0.4C38.8,27.1,39.2,27.6,39.5,28z M41.4,26.9c0,0.1,0.1,0.2,0.1,0.3
		c0.5,1.1,1.7,3.5,3.9,4.3c-0.6-0.8-1.8-2.7-1.8-4.5c0-1.1,0.4-1.7,0.6-1.9c-0.4-0.5-1.8-2.3-5.6-2.5c1.1,0.9,2.1,3,2.6,4
		C41.3,26.7,41.3,26.8,41.4,26.9z M43.8,18.5c0.2,0.5,1.2,1.6,2.4,2.7c0.4,0.3,0.6,0.7,0.8,1c0-1.2,0.2-3.1,1-4.5
		c-0.2-0.2-0.5-0.4-0.8-0.7c-0.4-0.4-0.9-0.8-1.1-0.9c0,0-0.1-0.1-0.1-0.1c-0.4-0.2-1-0.6-4.5-0.7C42.6,16.3,43.5,17.8,43.8,18.5z
		 M37.9,46.1c0.4,0.4,0.8,0.9,1,1.3c0.2-0.3,0.5-0.9,1-1.3c0.3-0.2,0.6-0.5,0.9-0.7c0.2-0.2,0.4-0.3,0.6-0.4c0.1,0,0.1-0.1,0.1-0.2
		c0-0.1,0-0.1-0.1-0.2c-0.1-0.1-0.1-0.1-0.2-0.2c-0.5-0.5-1-1.1-2-1.2c-0.1,0.1-0.2,0.2-0.2,0.3c-0.2,0.2-0.3,0.4-0.4,0.6
		c-0.4,0.5-0.7,1.2-1,1.8C37.7,45.9,37.8,46,37.9,46.1L37.9,46.1z M56.5,33.5c-0.3,0.1-1.8,0.8-2.5,1.9c0.4-0.1,1-0.2,1.8-0.2
		c1,0,2.3,0.1,3.6,0.7C58.3,34,56.8,33.6,56.5,33.5z"/>
</g>
</svg>
