<?xml version="1.0" encoding="utf-8"?>
<!-- Generator: Adobe Illustrator 24.1.2, SVG Export Plug-In . SVG Version: 6.00 Build 0)  -->
<svg version="1.1" id="Capa_1" xmlns="http://www.w3.org/2000/svg" xmlns:xlink="http://www.w3.org/1999/xlink" x="0px" y="0px"
	 viewBox="0 0 100 100" style="enable-background:new 0 0 100 100;" xml:space="preserve">
<style type="text/css">
	.st0{fill:#FFFFFF;}
</style>
<g>
	<path class="st0" d="M57.9,78.4c-0.1,0-0.1,0-0.2,0.2c-0.2,0.3-0.4,0.6-0.7,1c-0.3,0.4-0.5,0.7-0.8,1.1c-0.3,0.4-0.6,0.8-0.9,1.1
		c-0.3,0.4-0.6,0.7-0.8,1c-0.3,0.3-0.5,0.5-0.7,0.7c-0.2,0.2-0.4,0.3-0.5,0.3c-0.2,0-0.2-0.2-0.1-0.5c0.1-0.4,0.3-0.9,0.6-1.6
		c0.2-0.6,0.5-1.2,0.7-1.9c0.2-0.6,0.4-1.2,0.6-1.7c0.2-0.5,0.3-0.8,0.3-1c0-0.2-0.1-0.4-0.3-0.6c-0.2-0.2-0.4-0.4-0.6-0.5
		c-0.2-0.1-0.5-0.2-0.7-0.2c-0.2,0-0.3,0.1-0.3,0.3c0,0.2-0.2,0.6-0.4,1.1c-0.1-0.2-0.3-0.3-0.5-0.5c-0.2-0.2-0.4-0.4-0.6-0.5
		c-0.2-0.2-0.5-0.3-0.8-0.4c-0.3-0.1-0.6-0.2-0.9-0.2c-0.2,0-0.5,0.1-0.8,0.4c-0.3,0.3-0.6,0.6-0.9,1c-0.3,0.4-0.6,0.9-0.9,1.4
		c-0.3,0.5-0.5,1-0.8,1.5c0,0.1-0.1,0.1-0.1,0.2c-0.1,0.1-0.2,0.2-0.2,0.3c-0.3,0.4-0.7,0.8-1,1.1c-0.4,0.4-0.7,0.7-1,1
		c-0.3,0.3-0.6,0.5-0.9,0.7c-0.3,0.2-0.5,0.3-0.7,0.3c-0.1,0-0.2,0-0.3,0c-0.1,0-0.2-0.1-0.2-0.1c-0.1-0.1-0.1-0.2-0.1-0.3
		c0-0.1,0-0.3,0-0.5c0-0.3,0.1-0.7,0.2-1c0.1-0.4,0.2-0.8,0.4-1.2c0.1-0.4,0.3-0.8,0.5-1.2c0.2-0.4,0.3-0.7,0.5-1
		c0.2-0.3,0.3-0.6,0.5-0.7c0.2-0.2,0.3-0.3,0.4-0.3c0.3,0,0.6,0.1,0.8,0.2c0.2,0.1,0.4,0.2,0.5,0.3c0.1,0.1,0.2,0.2,0.3,0.3
		c0.1,0.1,0.2,0.1,0.2,0c0.1-0.1,0.1-0.2,0.1-0.5c0-0.3-0.1-0.5-0.3-0.8c-0.2-0.3-0.5-0.5-0.8-0.7c-0.4-0.2-0.9-0.3-1.5-0.3
		c-0.3,0-0.6,0.1-1,0.4c-0.3,0.3-0.7,0.6-1,1c-0.3,0.4-0.6,0.9-0.9,1.4c-0.2,0.3-0.3,0.6-0.5,0.9c0,0,0,0-0.1,0.1
		c-0.3,0.4-0.6,0.7-1,1.1c-0.4,0.4-0.7,0.8-1.1,1.2c-0.4,0.4-0.8,0.7-1.2,1c-0.4,0.3-0.8,0.5-1.2,0.7c-0.4,0.2-0.8,0.3-1.2,0.3
		c-0.2,0-0.3-0.1-0.4-0.2c-0.1-0.1-0.1-0.3-0.1-0.5c0-0.2,0-0.5,0.1-0.7c0.1-0.3,0.2-0.6,0.3-0.9c0.2,0.1,0.3,0.1,0.5,0.1
		c0.2,0,0.4,0,0.6,0c0.4,0,0.8-0.1,1.2-0.4c0.4-0.2,0.8-0.5,1.1-0.9c0.3-0.3,0.6-0.7,0.8-1c0.2-0.4,0.3-0.7,0.4-0.9
		c0-0.3,0-0.5-0.2-0.8c-0.1-0.3-0.3-0.6-0.5-0.9c-0.2-0.3-0.5-0.5-0.8-0.7c-0.3-0.2-0.6-0.3-1-0.3c-0.3,0-0.6,0.1-0.9,0.3
		s-0.7,0.4-1,0.7c-0.3,0.3-0.7,0.7-1,1.1c-0.3,0.4-0.6,0.9-0.9,1.4c-0.1,0.1-0.1,0.3-0.2,0.4c-0.3,0.3-0.6,0.7-1,1.1
		c-0.4,0.4-0.8,0.8-1.2,1.2c-0.4,0.4-0.9,0.8-1.3,1.2c0.3-0.4,0.6-0.9,0.8-1.4c0.3-0.5,0.5-0.9,0.7-1.4c0.2-0.4,0.3-0.9,0.5-1.2
		c0.1-0.4,0.2-0.7,0.2-1c0-0.3,0-0.7-0.1-0.9c-0.1-0.3-0.2-0.6-0.3-0.8c-0.2-0.2-0.4-0.4-0.7-0.5c-0.3-0.1-0.6-0.2-1.1-0.2
		c-0.2,0-0.4,0.1-0.6,0.3c-0.2,0.2-0.5,0.4-0.7,0.7c-0.3,0.3-0.5,0.6-0.8,1c-0.3,0.4-0.5,0.7-0.7,1.1c0.3-0.8,0.6-1.6,0.9-2.5
		c0.3-0.8,0.6-1.6,0.8-2.3c0.2-0.7,0.5-1.3,0.6-1.8c0.2-0.5,0.2-0.8,0.3-0.9c0-0.2-0.1-0.4-0.3-0.6c-0.2-0.2-0.4-0.4-0.7-0.5
		C28,70.1,27.8,70,27.6,70c-0.2,0-0.3,0.1-0.3,0.3c0,0.3-0.2,0.9-0.4,1.5c-0.2,0.7-0.5,1.5-0.9,2.3c-0.3,0.9-0.7,1.8-1.1,2.7
		c-0.3,0.8-0.7,1.6-1,2.4c-0.1,0.1-0.1,0.1-0.2,0.2c-0.3,0.4-0.6,0.7-1,1.1c-0.4,0.4-0.7,0.8-1.1,1.2c-0.4,0.4-0.8,0.7-1.2,1
		c-0.4,0.3-0.8,0.5-1.2,0.7c-0.4,0.2-0.8,0.3-1.2,0.3c-0.2,0-0.3-0.1-0.4-0.2c-0.1-0.1-0.1-0.3-0.1-0.5c0-0.2,0-0.5,0.1-0.7
		c0.1-0.3,0.2-0.6,0.3-0.9c0.2,0.1,0.3,0.1,0.5,0.1c0.2,0,0.4,0,0.6,0c0.4,0,0.8-0.1,1.2-0.4c0.4-0.2,0.8-0.5,1.1-0.9
		c0.3-0.3,0.6-0.7,0.8-1c0.2-0.4,0.3-0.7,0.4-0.9c0-0.3,0-0.5-0.2-0.8c-0.1-0.3-0.3-0.6-0.5-0.9c-0.2-0.3-0.5-0.5-0.8-0.7
		c-0.3-0.2-0.6-0.3-1-0.3c-0.3,0-0.6,0.1-0.9,0.3c-0.3,0.2-0.7,0.4-1,0.7c-0.3,0.3-0.7,0.7-1,1.1c-0.3,0.4-0.6,0.9-0.9,1.4
		c-0.3,0.5-0.5,1-0.6,1.5c-0.2,0.5-0.3,1.1-0.3,1.6c0,0.2,0.1,0.5,0.2,0.7c0.2,0.3,0.4,0.5,0.7,0.8c0.3,0.2,0.6,0.5,0.9,0.6
		c0.3,0.2,0.6,0.2,0.9,0.2c0.4,0,0.8-0.1,1.3-0.3c0.5-0.2,0.9-0.5,1.4-0.9c0.5-0.4,0.9-0.8,1.4-1.2c0.3-0.3,0.6-0.7,0.9-1
		c0,0.1-0.1,0.2-0.1,0.3c-0.2,0.6-0.4,1-0.4,1.2c0,0.3,0,0.5,0.2,0.7c0.2,0.2,0.3,0.3,0.6,0.4c0.2,0.1,0.5,0.2,0.7,0.2
		c0.2,0,0.4,0.1,0.6,0.1c0,0.1,0.1,0.3,0.2,0.4c0.1,0.1,0.2,0.3,0.3,0.4c0.1,0.1,0.3,0.2,0.5,0.3c0.2,0.1,0.4,0.1,0.6,0.1
		c0.5,0,0.9-0.1,1.5-0.4c0.5-0.3,1-0.6,1.6-1c0.5-0.4,1-0.9,1.5-1.3c0.5-0.5,1-1,1.4-1.4c0,0,0,0,0.1-0.1c-0.1,0.3-0.1,0.7-0.2,1
		c0,0.2,0.1,0.5,0.2,0.7c0.2,0.3,0.4,0.5,0.7,0.8c0.3,0.2,0.6,0.5,0.9,0.6c0.3,0.2,0.6,0.2,0.9,0.2c0.4,0,0.8-0.1,1.3-0.3
		c0.5-0.2,0.9-0.5,1.4-0.9c0.5-0.4,0.9-0.8,1.4-1.2c0.3-0.3,0.6-0.6,0.8-0.9c-0.1,0.4-0.2,0.8-0.2,1c0,0.2,0,0.5,0.1,0.7
		c0.1,0.3,0.3,0.5,0.5,0.7c0.2,0.2,0.5,0.4,0.8,0.6c0.3,0.2,0.7,0.2,1.1,0.2c0.4,0,0.9-0.1,1.3-0.3c0.5-0.2,0.9-0.5,1.4-0.9
		c0.5-0.4,0.9-0.8,1.3-1.2c0,0,0,0,0.1-0.1c0,0.1,0,0.1,0,0.2c0,0.3,0.1,0.6,0.2,0.9c0.2,0.3,0.4,0.5,0.7,0.7s0.6,0.4,0.9,0.5
		c0.3,0.1,0.6,0.2,0.8,0.2c0.1,0,0.2-0.1,0.4-0.2c0.2-0.1,0.3-0.3,0.5-0.5c0.2-0.2,0.4-0.4,0.6-0.7c0.2-0.2,0.4-0.5,0.6-0.8
		c0,0.1-0.1,0.2-0.1,0.3c0,0.1,0,0.2,0,0.3c0,0.3,0.1,0.6,0.2,0.8c0.2,0.2,0.4,0.3,0.6,0.4c0.3,0.1,0.5,0.2,0.7,0.2
		c0.2,0,0.4,0.1,0.5,0.1h0.1c0.3,0,0.6-0.2,0.9-0.4c0.3-0.2,0.7-0.5,1-0.9c0.3-0.3,0.7-0.7,1-1.1c0.3-0.4,0.6-0.8,0.9-1.2
		c0.3-0.4,0.5-0.8,0.8-1.1c0.2-0.3,0.4-0.6,0.5-0.8c0,0,0-0.1,0-0.2c0-0.1,0-0.2,0-0.4C58,78.5,58,78.5,57.9,78.4 M35.9,78.8
		c0.2-0.3,0.4-0.7,0.6-0.9c0.2-0.3,0.4-0.5,0.6-0.6c0.2-0.2,0.3-0.2,0.5-0.2c0.2,0,0.3,0.1,0.2,0.4c0,0.3-0.2,0.6-0.4,0.9
		c-0.2,0.3-0.5,0.7-0.8,1c-0.4,0.3-0.8,0.5-1.2,0.6C35.4,79.5,35.6,79.2,35.9,78.8 M19.1,78.8c0.2-0.3,0.4-0.7,0.6-0.9
		c0.2-0.3,0.4-0.5,0.6-0.6c0.2-0.2,0.3-0.2,0.5-0.2c0.2,0,0.3,0.1,0.2,0.4c0,0.3-0.2,0.6-0.4,0.9c-0.2,0.3-0.5,0.7-0.8,1
		c-0.4,0.3-0.8,0.5-1.2,0.6C18.7,79.5,18.9,79.2,19.1,78.8 M29.2,78.6c-0.2,0.5-0.5,1-0.9,1.6c-0.3,0.6-0.7,1.1-1.1,1.7
		c-0.4,0.5-0.8,1-1.2,1.4c-0.4,0.4-0.8,0.6-1.2,0.7c0,0,0-0.1,0-0.1c0-0.1,0-0.1,0-0.2c0-0.1,0.1-0.2,0.2-0.5
		c0.1-0.3,0.2-0.6,0.4-1.1c0.2-0.3,0.3-0.6,0.6-1c0.2-0.4,0.5-0.7,0.7-1.1c0.3-0.4,0.5-0.8,0.8-1.1c0.3-0.4,0.5-0.7,0.8-1
		c0.3-0.3,0.5-0.5,0.8-0.7c0.2-0.2,0.5-0.3,0.6-0.3c0.1,0,0.1,0.2,0.1,0.5C29.6,77.7,29.5,78.1,29.2,78.6 M52.6,78.2
		c-0.1,0.2-0.1,0.3-0.2,0.5c-0.1,0.2-0.3,0.5-0.5,0.8c-0.2,0.3-0.4,0.7-0.7,1c-0.2,0.4-0.5,0.7-0.7,1.1c-0.3,0.4-0.5,0.7-0.7,1
		c-0.2,0.3-0.4,0.5-0.6,0.7c-0.2,0.2-0.3,0.3-0.4,0.3c-0.1,0-0.2-0.2-0.1-0.5c0-0.3,0.2-0.7,0.3-1.1c0.2-0.5,0.4-0.9,0.6-1.5
		c0.2-0.5,0.5-1,0.8-1.5c0.3-0.5,0.5-0.8,0.8-1.1c0.3-0.3,0.5-0.5,0.6-0.5c0.2,0,0.5,0,0.6,0.1c0.2,0.1,0.4,0.1,0.5,0.2
		C52.7,77.9,52.6,78.1,52.6,78.2 M19.1,85.9c-0.1,0-0.2,0-0.3,0.1c-0.1,0.1-0.3,0.1-0.4,0.2c-0.2,0.1-0.3,0.1-0.4,0.1
		c-0.6,0-1.2-0.2-1.7-0.5c-0.5-0.4-1-0.8-1.4-1.4c-0.4-0.6-0.8-1.2-1-1.8c-0.3-0.7-0.6-1.3-0.8-2c-0.2-0.6-0.4-1.2-0.5-1.7
		c-0.1-0.5-0.3-0.9-0.4-1.1c1.2-0.2,2.3-0.5,3.2-1c0.9-0.5,1.7-1.1,2.3-1.7c0.6-0.6,1-1.3,1.2-2c0.2-0.7,0.2-1.4-0.1-2
		c-0.2-0.6-0.7-1.1-1.5-1.5c-0.8-0.4-1.8-0.6-3.1-0.6c-0.8,0-1.6,0.1-2.4,0.3c-0.8,0.2-1.5,0.5-2.2,0.9c-0.7,0.4-1.4,0.8-1.9,1.3
		c-0.6,0.5-1.1,0.9-1.5,1.4c-0.4,0.5-0.8,1-1,1.4c-0.2,0.5-0.4,0.9-0.4,1.2c0,0.6,0.1,1,0.2,1.5c0.2,0.4,0.3,0.7,0.5,1
		c0.2,0.3,0.4,0.4,0.6,0.6c0.2,0.1,0.4,0.2,0.5,0.2c0.1,0,0.2,0,0.2-0.1c0-0.1,0-0.1-0.1-0.3c0-0.1-0.1-0.3-0.2-0.5
		c-0.1-0.2-0.1-0.5-0.1-0.8c0-0.4,0.1-0.8,0.3-1.3c0.2-0.5,0.5-1,0.8-1.5c0.4-0.5,0.8-1,1.3-1.5c0.5-0.5,1-1,1.5-1.4
		c-0.1,0.8-0.3,1.5-0.6,2.4c-0.2,0.8-0.5,1.6-0.8,2.4C8.6,77,8.3,77.8,8,78.6c-0.3,0.8-0.6,1.5-0.8,2.1c-0.2,0.6-0.4,1.2-0.6,1.6
		c-0.2,0.5-0.2,0.8-0.2,1c0,0.3,0.1,0.6,0.4,0.7c0.2,0.2,0.5,0.3,0.8,0.4c0.3,0.1,0.6,0.1,0.8,0.1c0.2,0,0.4-0.1,0.4-0.3
		c0-0.2,0-0.4,0.1-0.8c0.1-0.3,0.2-0.7,0.3-1.2c0.1-0.4,0.3-0.9,0.5-1.5c0.2-0.5,0.4-1.1,0.6-1.7c0.2,0.4,0.3,0.9,0.5,1.4
		c0.2,0.6,0.4,1.1,0.7,1.7c0.3,0.6,0.5,1.2,0.9,1.8c0.3,0.6,0.7,1.1,1.2,1.6c0.5,0.5,1,0.9,1.6,1.2c0.6,0.3,1.3,0.4,2,0.4
		c0.3,0,0.6-0.1,0.8-0.2s0.5-0.2,0.7-0.4c0.2-0.1,0.3-0.3,0.4-0.4c0.1-0.1,0.2-0.3,0.2-0.4C19.2,86,19.1,85.9,19.1,85.9 M11.2,76.6
		c0.2-0.6,0.5-1.2,0.7-1.8c0.2-0.6,0.4-1.1,0.6-1.5c0.2-0.4,0.3-0.8,0.4-1.1C13,72,13,71.8,13,71.7c0-0.1,0-0.2-0.1-0.3
		c-0.1-0.1-0.2-0.2-0.3-0.3c-0.1-0.1-0.2-0.2-0.4-0.3c-0.2-0.1-0.3-0.2-0.5-0.3c0.4-0.2,0.8-0.4,1.3-0.5c0.4-0.1,0.8-0.2,1.2-0.2
		c0.6,0,1.1,0.2,1.5,0.5c0.4,0.3,0.6,0.7,0.7,1.2c0.1,0.5,0.1,1,0,1.6c-0.1,0.6-0.4,1.1-0.9,1.7c-0.4,0.5-1,1-1.7,1.3
		C13.1,76.4,12.3,76.6,11.2,76.6 M76,74.4c0.2,0.1,0.3,0.2,0.5,0.3c0.2,0.1,0.4,0.1,0.6,0.1c0.3,0,0.5-0.1,0.7-0.2
		c0.2-0.2,0.4-0.3,0.6-0.6c0.2-0.2,0.3-0.5,0.4-0.7c0.1-0.2,0.2-0.5,0.2-0.7c0-0.4-0.1-0.7-0.3-0.9c-0.2-0.2-0.5-0.3-0.9-0.3
		c-0.2,0-0.5,0.1-0.7,0.2c-0.3,0.1-0.5,0.3-0.7,0.5c-0.2,0.2-0.4,0.4-0.6,0.7c-0.2,0.3-0.2,0.5-0.3,0.7c0,0.2,0,0.3,0.1,0.5
		C75.7,74.2,75.9,74.3,76,74.4 M70.2,77.4c0.9-0.3,1.8-0.8,2.4-1.3c0.7-0.5,1.2-1.1,1.6-1.7c0.4-0.6,0.6-1.2,0.6-1.8
		c0-0.6-0.1-1.1-0.4-1.6c-0.3-0.5-0.8-0.9-1.6-1.2c-0.7-0.3-1.6-0.5-2.8-0.5h-0.3c-0.1,0-0.2,0-0.3,0c-0.1-0.1-0.3-0.3-0.5-0.4
		c-0.2-0.1-0.3-0.2-0.4-0.2c-0.1,0-0.2-0.1-0.3,0c-0.1,0-0.1,0.1-0.1,0.3c0,0.2,0,0.3-0.1,0.5c-0.7,0.2-1.4,0.4-2,0.7
		c-0.6,0.3-1.2,0.6-1.8,1c-0.6,0.4-1.1,0.8-1.5,1.2c-0.5,0.4-0.9,0.8-1.2,1.3c-0.3,0.4-0.6,0.8-0.8,1.2c-0.2,0.4-0.3,0.7-0.3,1
		c0,0.6,0.1,1.2,0.3,1.6c0.2,0.5,0.5,0.8,0.7,1.1c0.3,0.3,0.5,0.4,0.7,0.5c0.2,0.1,0.3,0,0.3-0.2c0-0.1,0-0.1-0.1-0.2
		c0,0-0.1-0.1-0.1-0.2c0-0.1-0.1-0.2-0.1-0.3c0-0.1-0.1-0.3-0.1-0.6c0-0.6,0.2-1.2,0.5-1.9c0.3-0.6,0.7-1.3,1.3-1.9
		c0.5-0.6,1.1-1.1,1.8-1.7c0.7-0.5,1.3-0.9,2-1.3c-0.2,0.8-0.6,1.7-1,2.7c-0.4,1-0.8,2-1.2,3c0,0-0.1,0-0.1,0c0,0-0.1,0-0.1,0
		c-0.1,0-0.2,0-0.2,0.1C65.1,76.7,65,76.8,65,77c0,0.1,0,0.2,0,0.4c0,0.1,0.1,0.3,0.1,0.4c-0.3,0.6-0.5,1.2-0.8,1.8
		c-0.3,0.6-0.5,1.1-0.7,1.6c-0.2,0.5-0.3,0.9-0.5,1.2c-0.1,0.3-0.2,0.5-0.2,0.6c0,0.1,0.1,0.3,0.2,0.4c0.1,0.2,0.3,0.3,0.5,0.4
		c0.2,0.1,0.4,0.3,0.6,0.4c0.2,0.1,0.4,0.2,0.5,0.2c0.4,0.2,0.8,0.3,1.2,0.4c0.5,0.1,0.9,0.2,1.5,0.2c0.6,0,1.1-0.1,1.7-0.3
		c0.5-0.2,1-0.5,1.5-0.9c0.4-0.4,0.8-0.8,1-1.3c0.3-0.5,0.4-1.1,0.4-1.7c0-0.9-0.2-1.6-0.5-2.1C71.2,78,70.7,77.6,70.2,77.4
		 M68.9,74.7c0.3-0.6,0.5-1.2,0.7-1.8c0.2-0.5,0.4-1,0.5-1.4c0.1-0.4,0.2-0.6,0.2-0.8c0-0.1,0-0.3-0.1-0.5c0.1,0,0.1,0,0.2,0h0.2
		c0.6,0,1,0.2,1.4,0.5c0.3,0.3,0.6,0.7,0.7,1.1c0.1,0.5,0.1,1,0,1.5c-0.1,0.5-0.4,1-0.8,1.5c-0.4,0.5-0.9,0.9-1.5,1.2
		c-0.6,0.3-1.4,0.6-2.2,0.6C68.4,76,68.7,75.3,68.9,74.7 M70.2,81c-0.2,0.4-0.4,0.7-0.8,1.1c-0.3,0.3-0.8,0.6-1.3,0.9
		c-0.5,0.2-1.1,0.4-1.7,0.4c-0.3,0-0.6,0-0.8-0.1c0-0.2,0.1-0.5,0.2-0.8s0.3-0.8,0.5-1.2c0.2-0.5,0.4-1,0.6-1.5
		c0.2-0.5,0.4-1.1,0.7-1.7c0.1,0,0.2,0,0.3-0.1c0.1,0,0.2,0,0.3-0.1c0,0,0.1,0,0.1,0c0,0,0.1,0,0.1,0c0.1,0,0.2,0,0.2,0
		c0.1,0,0.1,0,0.2,0c0.6,0,1,0.2,1.3,0.6c0.3,0.4,0.4,0.9,0.4,1.5C70.5,80.3,70.4,80.6,70.2,81 M94.6,78.6c0-0.1-0.1-0.2-0.1-0.2
		c-0.1,0-0.1,0-0.2,0.1c-0.2,0.3-0.5,0.7-0.8,1.1c-0.3,0.4-0.6,0.7-1,1c-0.3,0.3-0.7,0.6-1.1,0.9c-0.4,0.3-0.7,0.4-1.1,0.6
		c0.4-0.6,0.7-1.2,0.9-1.8c0.2-0.6,0.4-1.1,0.4-1.6c0-0.3,0-0.7-0.1-1c-0.1-0.4-0.2-0.7-0.4-1c-0.2-0.3-0.4-0.6-0.7-0.8
		c-0.3-0.2-0.6-0.3-1-0.3c-0.4,0-0.7,0.1-1.1,0.3c-0.4,0.2-0.7,0.4-1.1,0.8c-0.3,0.3-0.6,0.7-0.9,1.1c-0.3,0.4-0.4,0.9-0.5,1.3
		c-0.2,0.2-0.4,0.5-0.5,0.8c-0.2,0.3-0.3,0.6-0.5,0.8c-0.2,0.3-0.3,0.5-0.4,0.8c-0.1,0.3-0.2,0.5-0.2,0.7c0,0,0,0,0,0.1
		c-0.3,0.4-0.5,0.7-0.7,1c-0.2,0.3-0.5,0.6-0.7,0.8c-0.2,0.2-0.4,0.3-0.5,0.3c-0.2,0-0.2-0.2-0.1-0.5c0.1-0.3,0.3-0.8,0.4-1.2
		c0.2-0.5,0.3-0.9,0.5-1.4c0.2-0.5,0.3-0.9,0.4-1.2c0.1-0.4,0.2-0.6,0.2-0.8c0-0.3,0-0.6-0.2-0.8c-0.1-0.2-0.3-0.4-0.5-0.6
		c-0.2-0.2-0.5-0.3-0.7-0.5c-0.3-0.2-0.5-0.3-0.7-0.5c0.3-0.5,0.5-1.1,0.8-1.7c0.2-0.6,0.4-1.1,0.4-1.7c0.1-0.6,0-1.1-0.2-1.4
		c-0.2-0.3-0.4-0.4-0.7-0.4c-0.2,0-0.5,0.1-0.9,0.2c-0.4,0.2-0.7,0.4-1,0.7c-0.3,0.3-0.6,0.6-0.9,1c-0.3,0.4-0.4,0.8-0.4,1.3
		c0,0.4,0,0.7,0.1,1c0.1,0.3,0.2,0.5,0.3,0.8c0.2,0.2,0.3,0.4,0.5,0.6c0.2,0.2,0.4,0.3,0.6,0.5c-0.1,0.2-0.3,0.4-0.4,0.6
		c-0.1,0.2-0.2,0.3-0.3,0.4c0,0,0,0.1,0,0.1c-0.2,0.2-0.3,0.5-0.5,0.7c-0.3,0.4-0.5,0.7-0.8,1.1c-0.3,0.4-0.6,0.8-0.9,1.1
		c-0.3,0.4-0.6,0.7-0.8,1c-0.3,0.3-0.5,0.5-0.7,0.7c-0.2,0.2-0.4,0.3-0.5,0.3c-0.2,0-0.2-0.2-0.1-0.5c0.1-0.3,0.2-0.6,0.4-1
		c0.1-0.4,0.3-0.8,0.4-1.2c0.2-0.4,0.3-0.8,0.5-1.2c0.2-0.4,0.3-0.8,0.4-1.2c0.1-0.4,0.2-0.7,0.3-0.9c0.1-0.3,0.1-0.4,0.1-0.6
		c0-0.2-0.1-0.4-0.3-0.6c-0.2-0.2-0.4-0.4-0.7-0.5c-0.2-0.1-0.5-0.2-0.7-0.2c-0.2,0-0.3,0.1-0.3,0.3c0,0.1-0.1,0.3-0.2,0.7
		c-0.1,0.3-0.3,0.7-0.5,1.2c-0.2,0.5-0.4,0.9-0.6,1.5c-0.2,0.5-0.4,1-0.6,1.5c-0.2,0.5-0.4,0.9-0.5,1.3c-0.1,0.4-0.2,0.7-0.2,0.9
		c0,0.3,0.1,0.6,0.2,0.8c0.2,0.2,0.4,0.3,0.6,0.4c0.3,0.1,0.5,0.2,0.7,0.2c0.2,0,0.4,0.1,0.5,0.1h0.1c0.3,0,0.6-0.2,0.9-0.4
		c0.3-0.2,0.7-0.5,1-0.9c0.3-0.3,0.7-0.7,1-1.1c0.3-0.4,0.6-0.8,0.9-1.2c0.3-0.4,0.5-0.8,0.8-1.1c0.2-0.3,0.3-0.5,0.4-0.7
		c0,0,0,0,0,0c0.1-0.1,0.2-0.3,0.4-0.5c0.2-0.2,0.3-0.5,0.5-0.7c0.2,0.2,0.4,0.3,0.6,0.5c0.1,0.2,0.2,0.4,0.2,0.6
		c0,0.2-0.1,0.5-0.3,0.8c-0.2,0.4-0.4,0.8-0.6,1.2c-0.2,0.4-0.4,0.9-0.6,1.3c-0.2,0.4-0.3,0.8-0.3,1.2c0,0.3,0.1,0.6,0.2,0.8
		c0.2,0.2,0.4,0.3,0.6,0.5c0.3,0.1,0.5,0.2,0.7,0.2c0.2,0,0.4,0.1,0.5,0.1c0,0,0,0,0.1,0c0,0,0,0,0,0c0.3,0,0.6-0.2,0.9-0.4
		c0.3-0.3,0.6-0.6,1-0.9c0.2-0.2,0.4-0.5,0.6-0.7c0.1,0.3,0.3,0.5,0.5,0.8c0.2,0.3,0.5,0.5,0.8,0.7c0.3,0.2,0.7,0.3,1.1,0.3
		c0.5,0,1-0.2,1.5-0.5c0.5-0.3,0.9-0.8,1.4-1.3c0.6-0.1,1.1-0.3,1.7-0.6c0.5-0.3,1-0.7,1.4-1.1c0.4-0.4,0.8-0.8,1.1-1.2
		c0.3-0.4,0.6-0.8,0.8-1c0,0,0.1-0.1,0.1-0.2C94.6,78.8,94.6,78.7,94.6,78.6 M81,76.2c-0.1-0.2-0.3-0.4-0.3-0.6
		c-0.1-0.2-0.1-0.5-0.1-0.8c0-0.2,0.1-0.5,0.1-0.8c0.1-0.3,0.2-0.5,0.3-0.8c0.1-0.2,0.2-0.5,0.4-0.6c0.1-0.2,0.2-0.3,0.4-0.3
		c0.1,0,0.2,0.1,0.3,0.2c0.1,0.1,0.1,0.4,0,0.8c0,0.4-0.2,0.9-0.4,1.4C81.5,75.2,81.3,75.7,81,76.2 M87,83.5
		c-0.2,0.2-0.5,0.2-0.7,0.2c-0.1,0-0.2,0-0.3-0.1c0-0.1,0-0.2,0-0.3c0-0.1,0.1-0.3,0.2-0.5c0.1-0.2,0.2-0.4,0.4-0.6
		c0.3,0.3,0.7,0.5,1.1,0.7C87.5,83.1,87.2,83.3,87,83.5 M89.8,78.2c0,0.2-0.1,0.5-0.2,0.8c-0.1,0.3-0.2,0.6-0.3,0.9
		c-0.1,0.3-0.3,0.7-0.5,1c-0.2,0.4-0.4,0.7-0.6,1c-0.4-0.1-0.8-0.4-1.2-0.6c0.2-0.2,0.3-0.5,0.5-0.7c0.2-0.2,0.3-0.4,0.4-0.6
		c0.1-0.2,0.2-0.4,0.3-0.5c0.1-0.2,0.1-0.3,0.1-0.4c0-0.2,0-0.3-0.2-0.4c-0.1-0.1-0.3-0.3-0.5-0.4c-0.2-0.1-0.4-0.2-0.6-0.3
		c-0.2-0.1-0.4-0.1-0.5-0.1c0.2-0.3,0.3-0.5,0.5-0.7c0.2-0.2,0.4-0.4,0.6-0.5c0.2-0.2,0.4-0.3,0.6-0.4c0.2-0.1,0.4-0.1,0.6-0.1
		c0.3,0,0.5,0.2,0.6,0.5C89.8,77,89.9,77.5,89.8,78.2"/>
	<path class="st0" d="M43,49.7L43,49.7L43,49.7c-0.1,0.1-0.1,0.1-0.2,0.2v0l0,0c-0.1,0.1-0.1,0.1-0.1,0.2c0,0.1,0,0.1,0.1,0.2
		c0.1,0.1,0.4,0.3,0.6,0.4c0.3,0.2,0.7,0.5,0.9,0.7c0.4,0.4,0.8,0.9,1,1.3c0.2-0.3,0.5-0.9,1-1.3c0.2-0.2,0.6-0.5,0.9-0.7
		c0.2-0.2,0.5-0.3,0.6-0.4c0.1,0,0.1-0.1,0.1-0.2c0-0.1,0-0.1-0.1-0.2l-0.2-0.2c-0.5-0.6-1.1-1.2-2.3-1.2S43.5,49.1,43,49.7z
		 M46.8,37.5c0.8,0.4,1.5,0.9,2.2,1.7c-0.2-1.5-0.6-2-0.8-2.2C47.6,37,47.1,37.2,46.8,37.5z M46.7,53.2L46.7,53.2L46.7,53.2
		c0.3,0.2,0.7,0.5,0.9,0.7h0l0,0c0.4,0.4,0.8,0.9,1,1.3c0.2-0.3,0.5-0.9,1-1.3c0.2-0.2,0.6-0.5,0.9-0.7c0.2-0.2,0.4-0.3,0.6-0.4
		c0.1,0,0.1-0.1,0.1-0.2c0-0.1,0-0.1-0.1-0.2c-0.1-0.1-0.1-0.1-0.2-0.2c-0.5-0.5-1.1-1.2-2.3-1.2c-1.2,0-1.8,0.7-2.3,1.2
		c-0.1,0.1-0.1,0.1-0.2,0.2C46,52.5,46,52.5,46,52.6c0,0.1,0,0.1,0.1,0.2C46.2,52.9,46.4,53.1,46.7,53.2z M53,51.4
		c0.2-0.2,0.6-0.5,0.9-0.7c0.2-0.2,0.5-0.3,0.6-0.4c0.1,0,0.1-0.1,0.1-0.2c0-0.1,0-0.1-0.1-0.2c-0.1-0.1-0.1-0.1-0.2-0.2
		c-0.5-0.6-1.1-1.2-2.3-1.2c-1.2,0-1.8,0.7-2.3,1.2c-0.1,0.1-0.1,0.1-0.2,0.2c-0.1,0.1-0.1,0.1-0.1,0.2c0,0.1,0,0.1,0.1,0.2
		c0.1,0.1,0.4,0.3,0.6,0.4c0.3,0.2,0.7,0.5,0.9,0.7c0.4,0.4,0.8,0.9,1,1.3C52.2,52.3,52.5,51.8,53,51.4z M43,44.4
		c-0.1,0.1-0.1,0.1-0.2,0.2c-0.1,0.1-0.1,0.1-0.1,0.2c0,0.1,0,0.1,0.1,0.2c0.1,0.1,0.4,0.3,0.6,0.4c0.3,0.2,0.6,0.5,0.9,0.7h0l0,0
		c0.4,0.4,0.8,0.9,1,1.3c0.2-0.3,0.5-0.9,1-1.3c0.3-0.2,0.6-0.5,0.9-0.7l0,0c0.2-0.2,0.4-0.3,0.6-0.4c0.1,0,0.1-0.1,0.1-0.2
		c0-0.1,0-0.1-0.1-0.2c-0.1-0.1-0.1-0.1-0.2-0.2c-0.5-0.5-1.1-1.2-2.3-1.2S43.5,43.9,43,44.4z M45.3,42.1c0.2-0.3,0.5-0.9,1-1.3
		c0.3-0.2,0.6-0.5,0.9-0.7l0,0c0.2-0.2,0.4-0.3,0.6-0.4c0.1,0,0.1-0.1,0.1-0.2c0-0.1,0-0.1-0.1-0.2c-0.1-0.1-0.1-0.1-0.2-0.2l0,0
		c-0.1-0.1-0.3-0.3-0.4-0.4c-0.3-0.2-0.7-0.4-1.1-0.5c-0.1,0-0.3-0.1-0.3-0.3c0,0,0,0,0,0l0,0c-0.8,0.6-1.6,1.3-2.3,2.2
		c0.3,0.2,0.6,0.5,0.9,0.7C44.7,41.2,45.1,41.8,45.3,42.1z M43.6,20.6c-0.4-0.2-0.8-0.3-1.1-0.4c-0.4-0.1-0.7-0.2-0.9-0.3
		c0.3,1,1.3,3.2,2.3,4.3c0.6-0.8,1.2-1.3,1.2-1.3l0.3-0.2l0,0.4c0,0.2,0.1,2,0.3,2.6c0,0.1,0.1,0.4,0.3,0.8c0.5-0.9,0.9-1.6,0.9-1.7
		c0-0.3-1-2.2-1.9-3.1C44.7,21.3,44.2,20.9,43.6,20.6z M46.3,46.9c-0.1,0.1-0.1,0.1-0.2,0.2l0,0c0,0.1-0.1,0.1-0.1,0.2
		c0,0.1,0,0.1,0.1,0.2c0.1,0.1,0.4,0.3,0.6,0.4c0.3,0.2,0.7,0.5,0.9,0.7c0.4,0.4,0.8,0.9,1,1.3c0.2-0.3,0.5-0.9,1-1.3
		c0.2-0.2,0.6-0.5,0.9-0.7c0.2-0.2,0.4-0.3,0.6-0.4c0.1,0,0.1-0.1,0.1-0.2c0-0.1,0-0.1-0.1-0.2C51,47.1,51,47,50.9,46.9
		c-0.5-0.5-1.1-1.2-2.3-1.2C47.4,45.7,46.8,46.4,46.3,46.9z M53.9,45.4c0.2-0.2,0.4-0.3,0.6-0.4c0.1,0,0.1-0.1,0.1-0.2
		c0-0.1,0-0.1-0.1-0.2c-0.1-0.1-0.1-0.1-0.2-0.2c-0.5-0.6-1.2-1.3-2.3-1.3c-1.2,0-1.8,0.7-2.3,1.2l0,0c-0.1,0.1-0.1,0.1-0.2,0.2
		c-0.1,0.1-0.1,0.1-0.1,0.2c0,0.1,0,0.1,0.1,0.2c0.1,0.1,0.4,0.3,0.6,0.4c0.3,0.2,0.7,0.5,0.9,0.7c0.4,0.4,0.8,0.9,1,1.3
		c0.2-0.3,0.6-0.9,1-1.3C53.2,45.9,53.6,45.6,53.9,45.4z M43.6,32.2c-1.9,0-3.4,0.8-4.7,2.4c1.9-1.4,4.1-1.4,4.1-1.4
		c0.4,0,2,0.2,2.8,0.5c-0.1-0.4-0.1-0.9-0.2-1.1c-0.2-0.2-1.3-0.5-2-0.5L43.6,32.2z M49.9,29.8c-0.9,0.7-2.2,2-2.5,4.6
		c0.4,0.1,1,0.2,1.4,0.5c0.5-0.2,1.4-0.3,1.8-0.2c0.4-0.8,0.6-1.5,0.5-3.5c0-1.1,0.1-2.1,0.2-2.8C51,28.9,50.5,29.4,49.9,29.8z
		 M47,26.2L47,26.2c-0.3,0.6-0.6,1.2,0,2c0.5,0.6,1,1.5,1.3,1.9c0.3-0.3,0.9-0.8,1.2-1.1c0,0,0.1-0.1,0.1-0.1c0.4-0.3,1-0.8,1-2
		c0-0.3,0-0.8,0-1.3c0-1.4-0.1-3.4,0.1-4.8C49.2,22.6,47.2,25.7,47,26.2z M50.5,42.7c0.2-0.2,0.5-0.3,0.6-0.4c0.1,0,0.1-0.1,0.1-0.2
		c0-0.1,0-0.1-0.1-0.2c-0.1-0.1-0.1-0.1-0.2-0.2c-0.5-0.5-1.1-1.2-2.3-1.2c-1.2,0-1.8,0.7-2.3,1.2c-0.1,0.1-0.1,0.1-0.2,0.2l0,0
		C46,42,46,42,46,42.1c0,0.1,0,0.1,0.1,0.2c0.1,0.1,0.4,0.3,0.6,0.4c0.3,0.2,0.7,0.5,0.9,0.7c0.4,0.4,0.8,0.9,1,1.3
		c0.2-0.3,0.5-0.9,1-1.3C49.8,43.2,50.2,42.9,50.5,42.7z M45,29.9c0.1,0.1,0.2,0.3,0.3,0.5c0.4,0.6,1.1,1.5,1.4,3
		c0.3-1.5,0.8-2.5,0.9-2.7c-0.3-0.4-1.3-1.9-2-2.9c-0.6-0.9-0.9-2.1-0.9-3.1c-0.4,0.8-0.7,1.9-0.7,2.6c0,0.9,0.5,1.8,0.9,2.5v0
		L45,29.9z M55.9,32.8c-1.3,0-3.2,0.5-4.5,1.8c0.3,0,0.7,0.1,1.1,0.3C53.4,34.1,54.8,33.2,55.9,32.8z M57.2,27.6
		c-0.8,0-2.1,0.2-2.5,0.3c-0.2,0-1.1,0.8-1.7,1.5c0.5-0.2,1.3-0.4,2.1-0.4C55.8,28.4,56.7,27.9,57.2,27.6z M49.5,35.7
		c0.1,0.4,0.1,0.8,0,1c0,0,0,0.1-0.1,0.1c0.1,0.1,0.1,0.3,0.2,0.3c0.6,0,2.7,0.1,4.2,1.4c-0.5-2.4-2.2-3-3.1-3
		C50.1,35.6,49.7,35.7,49.5,35.7z M51.3,22v4.8c0.5-0.9,1.2-2.4,1.6-2.9c0.6-0.9,1.2-1.4,3.3-1.8c0.9-0.8,1.6-3.4,1.8-4.9
		c-0.8,0.7-1.8,1.4-2.7,1.9C54.3,19.5,52.1,21,51.3,22z M39.9,42.7L39.9,42.7c0.3,0.2,0.7,0.5,0.9,0.7c0.4,0.4,0.8,0.9,1,1.3
		c0.2-0.3,0.5-0.9,1-1.3c0.3-0.2,0.6-0.5,0.9-0.7c0.2-0.2,0.4-0.3,0.6-0.4c0.1,0,0.1-0.1,0.1-0.2c0-0.1,0-0.1-0.1-0.2
		c-0.1-0.1-0.1-0.1-0.2-0.2c-0.5-0.6-1.2-1.2-2.3-1.2c-0.6,0-1.1,0.2-1.5,0.5c-0.4,0.4-0.7,0.8-1.1,1.2c0,0.1,0,0.1,0.1,0.2
		C39.5,42.4,39.7,42.5,39.9,42.7z M51.9,31.4c0,0.7-0.1,1.3-0.1,1.7c0.7-0.4,2.1-1.2,3.6-1.2c0,0,0.1,0,0.1,0
		c1.1-0.5,2.2-1.7,2.7-2.2c-0.9,0.1-2.5,0.2-3.5,0.4c-1.6,0.2-2.7,0.7-2.8,0.8C51.9,31.1,51.9,31.2,51.9,31.4z M44.3,35.6
		c0.7-0.5,1.4-0.7,1.7-0.8v-0.3c-0.2,0-0.6-0.1-1.6-0.2c-1.5,0-3.5,1-4.2,2.1C41.4,35.5,43.3,35.3,44.3,35.6z M50.8,38.2
		c-0.4,0.2-0.7,0.5-0.9,0.8c0,0.3,0.1,0.7,0.1,1.1l0.1,0.1c0.3,0.2,0.7,0.5,0.9,0.7c0.4,0.4,0.8,1,1,1.3c0.2-0.3,0.5-0.9,1-1.3
		c0.3-0.2,0.6-0.5,0.9-0.7l0.1-0.1C53.2,38.8,51.8,38.3,50.8,38.2z M48.3,35.8c-0.1-0.1-0.1-0.2-0.3-0.3c-0.1-0.1-0.2-0.1-0.3-0.1
		c0,0-0.1,0-0.2,0c-2.6,0.4-4.1,1.7-4.5,3.8C45.4,36.6,47.3,36,48.3,35.8z M41.9,39c0.2-0.4,0.8-1.9,1.5-2.7
		c-0.8-0.1-1.4-0.1-1.6-0.1c-0.7,0.5-1.5,2.4-1.7,3.6C40.7,39.4,41.6,39.1,41.9,39z M56.8,40c-0.2-1.9-1.5-3.6-1.7-3.6
		c-0.2-0.1-0.8-0.1-1.3,0c0.2,0.6,0.8,2,0.9,2.5C55.3,39,56,39.2,56.8,40z M53,56.7c0.3-0.2,0.6-0.5,0.9-0.7
		c0.2-0.2,0.4-0.3,0.6-0.4c0.1,0,0.1-0.1,0.1-0.2c0-0.1,0-0.1-0.1-0.2c-0.1-0.1-0.1-0.1-0.2-0.2c-0.5-0.6-1.1-1.2-2.3-1.2
		c-1.2,0-1.8,0.7-2.3,1.2c-0.1,0.1-0.1,0.1-0.2,0.2c-0.1,0.1-0.1,0.1-0.1,0.2c0,0.1,0,0.1,0.1,0.2c0.1,0.1,0.4,0.3,0.6,0.4
		c0.3,0.2,0.7,0.5,0.9,0.7c0.4,0.4,0.8,1,1,1.3C52.2,57.6,52.5,57.1,53,56.7z M47.8,60.7c0-0.1,0-0.1-0.1-0.2l0,0
		c-0.1-0.1-0.1-0.1-0.2-0.2c-0.5-0.6-1.1-1.2-2.3-1.2c-1.2,0-1.8,0.7-2.3,1.2c-0.1,0.1-0.1,0.1-0.2,0.2c-0.1,0.1-0.1,0.2-0.1,0.2
		c1.4,0.9,2.6,1.3,3.4,1.4c0,0,0.1-0.1,0.1-0.1c0.3-0.2,0.6-0.5,0.9-0.7l0,0c0.2-0.2,0.4-0.3,0.5-0.4C47.8,60.8,47.8,60.7,47.8,60.7
		z M39.5,46.9c-0.1,0.1-0.1,0.1-0.2,0.2c-0.1,0.1-0.1,0.1-0.1,0.2c0,0.1,0,0.1,0.1,0.2c0.1,0.1,0.3,0.3,0.6,0.4l0,0
		c0.3,0.2,0.7,0.5,0.9,0.7c0.4,0.4,0.8,0.9,1,1.3c0.2-0.3,0.5-0.9,1-1.3c0.3-0.2,0.6-0.5,0.9-0.7c0.2-0.2,0.4-0.3,0.6-0.4
		c0.1,0,0.1-0.1,0.1-0.2c0-0.1,0-0.1-0.1-0.2c-0.1-0.1-0.1-0.1-0.2-0.2c-0.5-0.6-1.2-1.3-2.3-1.3S40,46.4,39.5,46.9z M54.3,60.3
		C53.8,59.7,53.1,59,52,59c-1.2,0-1.8,0.7-2.3,1.2c-0.1,0.1-0.1,0.1-0.2,0.2c-0.1,0.1-0.1,0.1-0.1,0.2c0,0.1,0,0.1,0.1,0.2
		c0.1,0.1,0.3,0.3,0.6,0.4c0.3,0.2,0.7,0.5,0.9,0.7c0,0,0.1,0.1,0.1,0.1c0.8-0.1,2.1-0.5,3.4-1.4c0-0.1,0-0.1-0.1-0.2
		C54.4,60.4,54.3,60.3,54.3,60.3z M37.6,50.1c0.1,0.3,0.2,0.6,0.3,0.8l0,0l0,0.1c0,0,0,0,0,0l0,0.1h0c0,0.2,0,0.4-0.1,0.6l0,0
		c0,0.1,0.1,0.1,0.2,0.2c0.1,0.1,0.1,0.1,0.2,0.2c0.1,0.1,0.1,0.2,0.2,0.2c0.1,0.1,0.1,0.2,0.2,0.2c0.2-0.3,0.5-0.8,0.9-1.2
		c0.3-0.2,0.6-0.5,0.9-0.7c0.2-0.2,0.4-0.3,0.6-0.4c0.1,0,0.1-0.1,0.1-0.2c0-0.1,0-0.1-0.1-0.2c-0.1-0.1-0.1-0.1-0.2-0.2
		c-0.5-0.6-1.2-1.2-2.3-1.2c-0.5,0-0.9,0.1-1.3,0.3c0.1,0.2,0.1,0.4,0.2,0.5c0,0.2,0.1,0.3,0.1,0.4C37.6,49.9,37.6,50,37.6,50.1z
		 M37.7,51L37.7,51C37.7,51,37.7,51,37.7,51L37.7,51z M41,55.5c0.1,0,0.1-0.1,0.1-0.2c0-0.1,0-0.1-0.1-0.2c-0.1-0.1-0.1-0.1-0.2-0.2
		c-0.5-0.6-1.2-1.2-2.3-1.2c-0.3,0-0.7,0.1-1,0.2c0,0,0,0,0,0c0.2,0.2,0.5,0.7,0.8,1c0.5,0.6,0.9,1.1,1.3,1.6
		c0.2-0.2,0.5-0.4,0.8-0.6C40.6,55.8,40.8,55.6,41,55.5z M42.8,59.2c0.2-0.2,0.6-0.5,0.9-0.7c0.2-0.2,0.4-0.3,0.6-0.4
		c0.1,0,0.1-0.1,0.1-0.2c0-0.1,0-0.1-0.1-0.2c-0.1-0.1-0.1-0.1-0.2-0.2l0,0c-0.5-0.5-1.1-1.2-2.3-1.2c-0.9,0-1.5,0.4-1.9,0.8
		c0,0.1,0,0.2,0,0.3l0,0.2c-0.1,0.5-0.1,0.7-0.1,0.7c0.1,0.1,0.4,0.4,0.6,0.6l0.1,0.1c0.2,0.2,0.3,0.3,0.4,0.4
		c0.3,0.3,0.7,0.7,1.1,1C42.2,59.9,42.5,59.5,42.8,59.2L42.8,59.2z M58.4,22.6c-0.7,0.1-1.5,0.1-2.2,0.2c-2.4,0.3-3.3,2.5-3.5,3.2
		l0,0c-0.2,0.5-0.5,2.4-0.6,3.4c0.7-0.7,1.9-2,2.9-2.6c0.6-0.4,1.1-0.6,1.6-0.9c0.6-0.3,1.2-0.6,2.1-1.1c1.2-0.8,2.1-1.8,2.5-2.5
		C60.6,22.4,59.7,22.5,58.4,22.6z M58.6,43.5c-0.1-0.1-0.2-0.2-0.2-0.3c-0.9,0.1-1.4,0.7-1.9,1.2c-0.1,0.1-0.1,0.1-0.2,0.2
		c-0.1,0.1-0.1,0.1-0.1,0.2c0,0.1,0,0.1,0.1,0.2c0.1,0.1,0.4,0.3,0.6,0.4c0.3,0.2,0.7,0.5,0.9,0.7c0.4,0.4,0.8,0.9,1,1.3
		c0.2-0.3,0.5-0.9,1-1.3c0.1-0.1,0.1-0.1,0.2-0.2c-0.3-0.7-0.6-1.3-1-1.9C58.9,43.9,58.7,43.7,58.6,43.5z M58.8,53.7
		c-1.2,0-1.8,0.7-2.3,1.2c-0.1,0.1-0.1,0.1-0.2,0.2c-0.1,0.1-0.1,0.1-0.1,0.2c0,0.1,0,0.1,0.1,0.2c0.1,0.1,0.4,0.3,0.6,0.4
		c0.3,0.2,0.5,0.4,0.8,0.6c0.4-0.5,0.8-1,1.3-1.6c0.3-0.3,0.6-0.8,0.8-1c0,0-0.1-0.1-0.2-0.1C59.3,53.7,59,53.7,58.8,53.7z
		 M57.2,57.3c0-0.1,0-0.2,0-0.3c-0.4-0.4-1-0.8-1.9-0.8c-1.2,0-1.8,0.7-2.3,1.2l-0.2,0.2c-0.1,0.1-0.1,0.1-0.1,0.2
		c0,0.1,0,0.1,0.1,0.2c0.1,0.1,0.3,0.3,0.6,0.4l0,0c0.3,0.2,0.7,0.5,0.9,0.7c0.3,0.3,0.6,0.7,0.8,1c0.4-0.3,0.7-0.6,1.1-1
		c0.1-0.1,0.2-0.2,0.4-0.4l0,0c0.2-0.2,0.6-0.5,0.7-0.6c0-0.1,0-0.3-0.1-0.7C57.3,57.4,57.2,57.3,57.2,57.3z M56.5,49.7L56.5,49.7
		c-0.1,0.1-0.1,0.1-0.2,0.2v0l0,0c-0.1,0.1-0.1,0.1-0.1,0.2c0,0.1,0,0.1,0.1,0.2c0.1,0.1,0.3,0.3,0.6,0.4c0.3,0.2,0.7,0.5,0.9,0.7
		c0.4,0.4,0.7,0.8,0.9,1.1c0-0.1,0.1-0.1,0.1-0.2l0,0c0-0.1,0.1-0.1,0.2-0.2c0-0.1,0.1-0.1,0.2-0.2c0.1-0.1,0.1-0.2,0.2-0.2
		c-0.2-0.2-0.1-0.5-0.1-0.7c0-0.3,0.2-0.6,0.3-0.9c0-0.1,0.1-0.2,0.1-0.3c0-0.1,0.1-0.3,0.1-0.4l0,0c0.1-0.2,0.1-0.4,0.2-0.6
		c-0.4-0.2-0.8-0.3-1.2-0.3C57.6,48.5,57,49.1,56.5,49.7z M47.4,62l0.9,0.4c0,0,0.1,0,0.1,0l0,0h0.1c0.1,0,0.2,0,0.3,0
		c0,0,0.1,0,0.1,0l0.9-0.4l-1.2-0.8L47.4,62z M56.3,53.9c0.3-0.2,0.6-0.5,0.9-0.7c0.2-0.2,0.4-0.3,0.6-0.4c0.1,0,0.1-0.1,0.1-0.2
		c0-0.1,0-0.1-0.1-0.2c-0.1-0.1-0.1-0.1-0.2-0.2c-0.5-0.6-1.1-1.2-2.3-1.2c-1.2,0-1.8,0.7-2.3,1.2l-0.2,0.2
		c-0.1,0.1-0.1,0.1-0.1,0.2c0,0.1,0,0.1,0.1,0.2c0.1,0.1,0.3,0.3,0.6,0.4l0,0c0.3,0.2,0.7,0.5,0.9,0.7c0.4,0.4,0.8,0.9,1,1.3
		C55.6,54.9,55.9,54.3,56.3,53.9z M46.7,58.5L46.7,58.5L46.7,58.5c0.3,0.2,0.7,0.5,0.9,0.7h0l0,0c0.4,0.4,0.8,0.9,1,1.3
		c0.2-0.3,0.5-0.9,1-1.3c0.2-0.2,0.6-0.5,0.9-0.7c0.2-0.2,0.4-0.3,0.6-0.4c0.1,0,0.1-0.1,0.1-0.2c0-0.1,0-0.1-0.1-0.2
		c-0.1-0.1-0.1-0.1-0.2-0.2c-0.5-0.5-1.1-1.2-2.3-1.2c-1.2,0-1.8,0.7-2.3,1.2c-0.1,0.1-0.1,0.1-0.2,0.2C46,57.7,46,57.8,46,57.9
		c0,0.1,0,0.1,0.1,0.2C46.2,58.2,46.4,58.3,46.7,58.5z M56.4,48.6c0.2-0.2,0.6-0.5,0.9-0.7c0.2-0.2,0.4-0.3,0.6-0.4
		c0.1,0,0.1-0.1,0.1-0.2c0-0.1,0-0.1-0.1-0.2c-0.1-0.1-0.1-0.1-0.2-0.2c-0.5-0.6-1.1-1.2-2.3-1.2c-1.2,0-1.8,0.7-2.3,1.2
		c-0.1,0.1-0.1,0.1-0.2,0.2c-0.1,0.1-0.1,0.1-0.1,0.2c0,0.1,0,0.1,0.1,0.2c0.1,0.1,0.3,0.3,0.6,0.4l0,0c0.3,0.2,0.7,0.5,0.9,0.7
		c0.4,0.4,0.8,0.9,1,1.3C55.6,49.6,55.9,49.1,56.4,48.6L56.4,48.6z M43.4,56c0.3,0.2,0.6,0.4,0.9,0.7h0l0,0c0.4,0.4,0.8,0.9,1,1.3
		c0.2-0.3,0.5-0.9,1-1.3c0.3-0.2,0.6-0.5,0.9-0.7c0.2-0.2,0.4-0.3,0.6-0.4c0.1,0,0.1-0.1,0.1-0.2c0-0.1,0-0.1-0.1-0.2
		c-0.1-0.1-0.1-0.1-0.2-0.2c-0.5-0.5-1.1-1.2-2.3-1.2c-1.2,0-1.8,0.7-2.3,1.2c-0.1,0.1-0.1,0.1-0.2,0.2c-0.1,0.1-0.1,0.1-0.1,0.2
		c0,0.1,0,0.1,0.1,0.2C42.9,55.7,43.1,55.8,43.4,56z M57.3,42.7c0.2-0.2,0.4-0.3,0.6-0.4c0,0,0.1-0.1,0.1-0.2
		c-0.3-0.4-0.7-0.8-1.1-1.2c-0.4-0.3-0.9-0.5-1.5-0.5c-1.2,0-1.8,0.7-2.3,1.2c-0.1,0.1-0.1,0.1-0.2,0.2c-0.1,0.1-0.1,0.1-0.1,0.2
		c0,0.1,0,0.1,0.1,0.2c0.1,0.1,0.3,0.3,0.6,0.4l0,0c0.3,0.2,0.7,0.5,0.9,0.7c0.4,0.4,0.8,0.9,1,1.3c0.2-0.3,0.5-0.9,1-1.3
		C56.6,43.2,56.9,42.9,57.3,42.7z M39.5,52.2L39.5,52.2l-0.2,0.2c-0.1,0.1-0.1,0.1-0.1,0.2c0,0.1,0,0.1,0.1,0.2
		c0.1,0.1,0.3,0.3,0.6,0.4l0,0c0.3,0.2,0.7,0.5,0.9,0.7c0.4,0.4,0.8,0.9,1,1.3c0.2-0.3,0.5-0.9,1-1.3c0.3-0.2,0.6-0.5,0.9-0.7
		c0.2-0.2,0.4-0.3,0.6-0.4c0.1,0,0.1-0.1,0.1-0.2c0-0.1,0-0.1-0.1-0.2c-0.1-0.1-0.1-0.1-0.2-0.2l0,0C43.6,51.7,43,51,41.8,51
		S40,51.7,39.5,52.2z M47.5,23.7l3.8-5.1v2.2c0.4-0.3,1-0.9,1.1-1.2c0.4-1.2,1.1-5.6,1.3-7c-1,0.9-3.9,3.5-5.1,5.4
		C47.5,19.7,47.5,22.5,47.5,23.7z M39.1,28.1L39.1,28.1c0.3,0.5,2.3,2.7,3.2,3.4h1c-0.5-0.5-1.5-1.4-2.3-3.1c-0.4-0.8-0.5-0.8-1.1-1
		l-0.1,0c-0.2-0.1-0.4-0.2-0.8-0.3c-0.4-0.1-0.8-0.3-1.2-0.4C38.4,27.1,38.9,27.7,39.1,28.1z M41,26.9c0,0.1,0.1,0.2,0.1,0.3
		c0.5,1.1,1.7,3.5,3.9,4.3c-0.6-0.8-1.8-2.7-1.8-4.5c0-1.1,0.4-1.7,0.6-1.9c-0.4-0.5-1.8-2.3-5.6-2.5c1.1,0.9,2.1,3,2.6,4
		C40.9,26.7,40.9,26.8,41,26.9z M43.4,18.6c0.2,0.5,1.2,1.6,2.4,2.7c0.4,0.3,0.6,0.7,0.8,1c0-1.2,0.2-3.1,1-4.5
		c-0.2-0.2-0.5-0.4-0.8-0.7c-0.4-0.4-0.9-0.8-1.1-0.9c0,0-0.1-0.1-0.1-0.1c-0.4-0.2-1-0.6-4.5-0.7C42.2,16.3,43.1,17.8,43.4,18.6z
		 M37.5,46.1c0.4,0.4,0.8,0.9,1,1.3c0.2-0.3,0.5-0.9,1-1.3c0.3-0.2,0.6-0.5,0.9-0.7c0.2-0.2,0.4-0.3,0.6-0.4c0.1,0,0.1-0.1,0.1-0.2
		c0-0.1,0-0.1-0.1-0.2c-0.1-0.1-0.1-0.1-0.2-0.2c-0.5-0.5-1-1.1-2-1.2c-0.1,0.1-0.2,0.2-0.2,0.3c-0.2,0.2-0.3,0.4-0.4,0.6
		c-0.4,0.5-0.7,1.2-1,1.8C37.3,46,37.4,46,37.5,46.1L37.5,46.1z M56.1,33.6c-0.3,0.1-1.8,0.8-2.5,1.9c0.4-0.1,1-0.2,1.8-0.2
		c1,0,2.3,0.1,3.6,0.7C57.9,34,56.4,33.6,56.1,33.6z"/>
</g>
</svg>
