<svg id="Capa_1" data-name="Capa 1" xmlns="http://www.w3.org/2000/svg" xmlns:xlink="http://www.w3.org/1999/xlink" viewBox="0 0 100 100"><defs><style>.cls-1{fill:url(#Degradado_sin_nombre_7);}</style><linearGradient id="Degradado_sin_nombre_7" x1="63.23" y1="96.21" x2="27.14" y2="33.71" gradientUnits="userSpaceOnUse"><stop offset="0" stop-color="#373c7e"/><stop offset="0.25" stop-color="#ef8195"/><stop offset="0.5" stop-color="#909a90"/><stop offset="0.75" stop-color="#392a5e"/><stop offset="1" stop-color="#5488ae"/></linearGradient></defs><path class="cls-1" d="M93.69,68.18H6.31A1.32,1.32,0,0,0,5,69.5v7.61a1.31,1.31,0,0,0,1.31,1.31H93.69A1.31,1.31,0,0,0,95,77.11V69.5A1.32,1.32,0,0,0,93.69,68.18Zm-1.31,7.61H7.62v-5H92.38ZM16.64,62.73C39.07,62.88,54,63,64,63c19.7,0,20-.26,20.31-.6a1.34,1.34,0,0,0,.38-.93,34.71,34.71,0,0,0-27.82-34,6.92,6.92,0,0,0-13.68,0,34.71,34.71,0,0,0-27.82,34A1.32,1.32,0,0,0,16.64,62.73ZM50,24.21A4.32,4.32,0,0,1,54,27,34,34,0,0,0,46,27,4.32,4.32,0,0,1,50,24.21Zm0,5.16A32.09,32.09,0,0,1,82,60.21c-6.57.21-40.4.07-64-.1A32.09,32.09,0,0,1,50,29.37Z"/></svg>