<svg id="Capa_1" data-name="Capa 1" xmlns="http://www.w3.org/2000/svg" xmlns:xlink="http://www.w3.org/1999/xlink" viewBox="0 0 100 100"><defs><style>.cls-1{fill:url(#Degradado_sin_nombre_94);}</style><linearGradient id="Degradado_sin_nombre_94" x1="77.36" y1="86.91" x2="34.39" y2="12.48" gradientUnits="userSpaceOnUse"><stop offset="0" stop-color="#392a5e"/><stop offset="0.25" stop-color="#ef8195"/><stop offset="0.5" stop-color="#909a90"/><stop offset="0.75" stop-color="#373c7e"/><stop offset="1" stop-color="#5488ae"/></linearGradient></defs><path class="cls-1" d="M89.2,49.94a11,11,0,0,0-5.69-9.64,7.15,7.15,0,0,0,1-3.59A7.25,7.25,0,0,0,82,31.25a14,14,0,0,0,5.1-19.64,1.09,1.09,0,0,0-.77-.51,1.1,1.1,0,0,0-.89.26L73.8,21.52l-1.23-2.94A1.1,1.1,0,0,0,71.13,18a1.11,1.11,0,0,0-.6,1.44l1.82,4.36a1.13,1.13,0,0,0,.77.66,1.16,1.16,0,0,0,1-.25L85.84,13.93a11.82,11.82,0,1,1-4.33-4.88A1.11,1.11,0,1,0,82.7,7.18a14,14,0,0,0-20.61,6.91A6.25,6.25,0,0,0,53,19.7V89.64A5.36,5.36,0,0,0,58.32,95a5.31,5.31,0,0,0,4.39-2.3,6.24,6.24,0,0,0,2.22.41,6.32,6.32,0,0,0,6.31-6.31c0-.11,0-.22,0-.33a9.15,9.15,0,0,0,8.51-9.12,9.26,9.26,0,0,0-.18-1.81,10.09,10.09,0,0,0,4.32-16.16A11,11,0,0,0,89.2,49.94Zm-7.31,8a1.33,1.33,0,0,0-.12-.06c-2.19-.6-8.61-2.13-11.93-.74a12.28,12.28,0,0,1,.41-2.62,1.11,1.11,0,1,0-2.13-.61c-.13.46-1.23,4.55.24,7.1a3.84,3.84,0,0,0,2.45,1.84,1.26,1.26,0,0,0,.27,0A1.12,1.12,0,0,0,72.15,62a1.1,1.1,0,0,0-.8-1.34,1.64,1.64,0,0,1-1.07-.8,2.39,2.39,0,0,1-.15-.37c.91-1.27,6.43-.79,11.05.47l.19,0A7.86,7.86,0,0,1,78,73.7a.65.65,0,0,0-.17.08c-2,.39-9.09,1.35-11-3.21A10.84,10.84,0,0,0,69,69a1.11,1.11,0,0,0-1.56-1.57,10.29,10.29,0,0,1-6.78,2.51,1.11,1.11,0,1,0,0,2.22,12.58,12.58,0,0,0,4.06-.67c1.6,3.8,5.7,4.91,9.43,4.91a20.38,20.38,0,0,0,3.23-.27,6.72,6.72,0,0,1,.13,1.25,6.94,6.94,0,0,1-6.93,6.93,5.63,5.63,0,0,1-.58,0,1.08,1.08,0,0,0-1,.4,1.11,1.11,0,0,0-.21,1,4.06,4.06,0,0,1-5.26,5,1.07,1.07,0,0,0-.59-.61s-3-1.51-.9-7.75a1.11,1.11,0,0,0-2.1-.7c-1.89,5.68-.26,8.46,1,9.67a3.11,3.11,0,0,1-2.68,1.52,3.15,3.15,0,0,1-3.15-3.15V59.13a6.28,6.28,0,0,1,1.33-2,4.29,4.29,0,0,1,4.78-.92,1.09,1.09,0,0,0,1.39-.7,1.11,1.11,0,0,0-.69-1.4,6.45,6.45,0,0,0-6.81,1.24V39.38a8.21,8.21,0,0,0,5.54,2.45A7.3,7.3,0,0,0,64,41a1.11,1.11,0,0,0-1-2c-4.17,2.08-7.17-2.05-7.85-3.1V19.7a4.08,4.08,0,0,1,6.29-3.44A13.91,13.91,0,0,0,68.06,31a6.71,6.71,0,0,0-3.64,3,1.1,1.1,0,0,0,.49,1.49,1.12,1.12,0,0,0,1.48-.5c.59-1.16,2.22-2.06,4.73-2.62a13.81,13.81,0,0,0,8.49-.12A5,5,0,0,1,81.06,40a1.07,1.07,0,0,0-.57.52c-.14.26-3.35,6.4-9.66,4.28a7.88,7.88,0,0,0-1.39-3.5,1.1,1.1,0,0,0-1.77,1.32,5.38,5.38,0,0,1,0,6.24,1.11,1.11,0,0,0,.22,1.55,1.1,1.1,0,0,0,.67.22,1.13,1.13,0,0,0,.88-.44,7.25,7.25,0,0,0,1.36-3.08,9.89,9.89,0,0,0,2.61.37c4.3,0,7.32-3,8.7-5.34a8.78,8.78,0,0,1-.22,15.83ZM40.74,13.39a6.36,6.36,0,0,0-5.88,4A9.13,9.13,0,0,0,21.2,25.37a9,9,0,0,0,1,4.12,7.25,7.25,0,0,0-6.66,7.22,7.15,7.15,0,0,0,1,3.59,11,11,0,0,0-.37,19.08,10.09,10.09,0,0,0,4.32,16.16,9.26,9.26,0,0,0-.18,1.81,9.15,9.15,0,0,0,8.51,9.12c0,.11,0,.22,0,.33a6.32,6.32,0,0,0,6.31,6.31,6.24,6.24,0,0,0,2.22-.41A5.31,5.31,0,0,0,41.68,95,5.36,5.36,0,0,0,47,89.64V19.7A6.31,6.31,0,0,0,40.74,13.39Zm4.09,22.54c-.68,1-3.68,5.18-7.85,3.1a1.11,1.11,0,0,0-1,2,7.3,7.3,0,0,0,3.3.82,8.21,8.21,0,0,0,5.54-2.45V55.33A6.45,6.45,0,0,0,38,54.09a1.11,1.11,0,0,0-.69,1.4,1.09,1.09,0,0,0,1.39.7,4.63,4.63,0,0,1,6.11,2.93V89.64a3.14,3.14,0,0,1-5.9,1.5c1.45-1.68,2.87-5,1-9.6a1.11,1.11,0,1,0-2.06.82c2.09,5.22-1,7.71-1.15,7.82a1.06,1.06,0,0,0-.34.47,3.93,3.93,0,0,1-1.35.25,4.08,4.08,0,0,1-3.93-5.24,1.11,1.11,0,0,0-.21-1,1.08,1.08,0,0,0-.95-.4,5.63,5.63,0,0,1-.58,0,6.94,6.94,0,0,1-6.93-6.93,6.72,6.72,0,0,1,.13-1.25,20.38,20.38,0,0,0,3.23.27c3.73,0,7.83-1.11,9.43-4.91a12.58,12.58,0,0,0,4.06.67,1.11,1.11,0,1,0,0-2.22,10.29,10.29,0,0,1-6.78-2.51A1.11,1.11,0,1,0,31,69a10.84,10.84,0,0,0,2.24,1.6c-1.93,4.55-9,3.6-11,3.21A.65.65,0,0,0,22,73.7,7.86,7.86,0,0,1,18.63,60l.19,0c4.64-1.26,10.2-1.75,11.07-.46a5.26,5.26,0,0,1-2.42,1.73,1.11,1.11,0,0,0,.41,2.13,1,1,0,0,0,.41-.08,6.62,6.62,0,0,0,4.14-3.9,7.65,7.65,0,0,0-.66-5.76,1.1,1.1,0,0,0-1.92,1.09,6.27,6.27,0,0,1,.69,2.55c-3.19-1.69-10,0-12.31.57a1.33,1.33,0,0,0-.12.06,8.78,8.78,0,0,1-.22-15.83c1.38,2.32,4.4,5.34,8.7,5.34a9.89,9.89,0,0,0,2.61-.37,7.25,7.25,0,0,0,1.36,3.08,1.13,1.13,0,0,0,.88.44,1.1,1.1,0,0,0,.67-.22,1.11,1.11,0,0,0,.22-1.55,5.33,5.33,0,0,1,0-6.24,1.1,1.1,0,0,0-1.77-1.32,7.88,7.88,0,0,0-1.39,3.5c-6.3,2.12-9.52-4-9.66-4.28a1,1,0,0,0-.58-.52,5,5,0,0,1,3.85-8.27,5.22,5.22,0,0,1,1.35.18,1.1,1.1,0,0,0,.51,0c2.44.07,7.73.73,9,3.15a4.29,4.29,0,0,1-3,.38,1.11,1.11,0,0,0-.44,2.17,7.8,7.8,0,0,0,1.56.16,6.05,6.05,0,0,0,3.54-1.09c2.86-2,3.56-5.95,3.58-6.12a1.1,1.1,0,0,0-.9-1.27,1.13,1.13,0,0,0-1.28.91,9.57,9.57,0,0,1-1.37,3.35c-2.18-3.21-8.1-3.75-10.3-3.84a6.89,6.89,0,0,1,9.48-9.86c0,1.23.27,3.89,1.87,5.6A4.91,4.91,0,0,0,40,27a1.11,1.11,0,0,0,0-2.21,2.79,2.79,0,0,1-2.13-.84c-1.12-1.19-1.3-3.46-1.27-4.43a.43.43,0,0,0,0-.11,4.09,4.09,0,0,1,8.17.34Z"/></svg>