<svg id="Capa_1" data-name="Capa 1" xmlns="http://www.w3.org/2000/svg" xmlns:xlink="http://www.w3.org/1999/xlink" viewBox="0 0 100 100"><defs><style>.cls-1{fill:url(#Degradado_sin_nombre_94);}</style><linearGradient id="Degradado_sin_nombre_94" x1="91" y1="68.3" x2="16.25" y2="25.14" gradientUnits="userSpaceOnUse"><stop offset="0" stop-color="#392a5e"/><stop offset="0.25" stop-color="#ef8195"/><stop offset="0.5" stop-color="#909a90"/><stop offset="0.75" stop-color="#373c7e"/><stop offset="1" stop-color="#5488ae"/></linearGradient></defs><path class="cls-1" d="M76.27,23.84a2.48,2.48,0,1,0,2.48,2.48A2.49,2.49,0,0,0,76.27,23.84ZM88.37,40.1c.67-3.32-.28-7.67-2.65-9.78a14.44,14.44,0,1,0-22-3.82c-3.56.91-8.88,3.94-11.24,7.29a8.45,8.45,0,0,0-4.66.32c-1.68-1.64-6.91-6.35-12-6.65-1.19-2.45-3.83-4.77-6-4.86a8.21,8.21,0,0,0-5.71-2.14h0a4.57,4.57,0,0,0-3.32,1.11,4.92,4.92,0,0,0-3.38,1.87,8,8,0,0,0-2.05,4.46c-2.14,1.59-2.88,5.2-2.7,7.3a6.23,6.23,0,0,0-1.78,2.72c-1.59,4-2.38,12.68-.59,16.34-1.14,3.19-.43,11.21,1.09,14.94a5.72,5.72,0,0,0,1.41,2.19A12.49,12.49,0,0,0,14,76.94a8.32,8.32,0,0,0,2.29,3.31A4.91,4.91,0,0,0,19.65,84a10,10,0,0,0,9.84-2.26,6.4,6.4,0,0,0,1.61-6.71c.66-1.66.17-4.37-.51-6.37a10.13,10.13,0,0,0-2.68-4.4,7.66,7.66,0,0,0,.22-2.6,22.43,22.43,0,0,0-1.9-7.64c1.51-3,1.48-7.2,1-10a5.84,5.84,0,0,0,2.92-2.38,8.45,8.45,0,0,0,4.22.75c1.41,1.65,6,6.47,11,5.39a6.76,6.76,0,0,0,3.58,1.13,6.15,6.15,0,0,0,3.14-.55c2.55.87,6.91-.53,9.3-1.75,1.48-.75,3.19-1.88,3.86-3.32a8.3,8.3,0,0,0,4-1.84,7.53,7.53,0,0,0,3,2.18,13.36,13.36,0,0,0,1.28,8.48c-1.81,2.24-1.79,6.59-.74,9.31A6.31,6.31,0,0,0,71.16,64a17.5,17.5,0,0,0-1.08,5.48c-2-.73-4.76-.56-8.09.51a4.15,4.15,0,0,0-3-1.68,4.9,4.9,0,0,0-3.31.57c-1.9-.16-3.84,1.4-4.81,3.28a3.3,3.3,0,0,0-.32,2.95c-.68,1.87,0,4.28.87,6.32-.8,3.21.61,10.66,2.57,13.13a1.2,1.2,0,0,0,.93.45h3.31a1.18,1.18,0,0,0,1.14-.86A71.79,71.79,0,0,0,61.5,85a9.08,9.08,0,0,0,5.1,0c1.41,1.07,4,1.43,6.24,1.42,1.72,0,7.45-.38,9.68-4.24,2.21-2,5.3-8.74,5-12,1.37-1.28,1.94-3.93,2.18-6.1a20.65,20.65,0,0,0-.25-6.73C91,53.75,90.85,43.37,88.37,40.1ZM76.27,7.37A12.07,12.07,0,1,1,64.2,19.43,12.07,12.07,0,0,1,76.27,7.37ZM87.17,56.7a1.17,1.17,0,0,0-.08,1,17,17,0,0,1,.27,6.12c-.34,3.14-1.15,4.56-1.6,4.74a1.15,1.15,0,0,0-.71.72,1.1,1.1,0,0,0,.13,1c.45,1.25-2.22,8.54-4.33,10.21a1.15,1.15,0,0,0-.31.38c-1.15,2.16-4.49,3.05-7.23,3.17-3,.12-5.14-.62-5.41-1a1.21,1.21,0,0,0-1.77-.35,6.12,6.12,0,0,1-5.1-.44,1.2,1.2,0,0,0-1.41,0,1.17,1.17,0,0,0-.39,1.32c.16.85-.82,5.2-1.89,9.08H55.56c-1.4-2.42-2.51-8.9-1.77-10.85a1.14,1.14,0,0,0,0-.87c-1.39-3.34-1.23-4.72-.85-5.29a1.19,1.19,0,0,0-.22-1.57,3.87,3.87,0,0,1,1.35-2.18c.61-.52,1.21-.75,1.6-.6a1.19,1.19,0,0,0,1.44-.49,3.48,3.48,0,0,1,2.37.09c.6.27.64.6.65.72a1.2,1.2,0,0,0,.61.86,1.3,1.3,0,0,0,1.09.09c4.24-1.55,7.41-1.55,8.71,0a1.21,1.21,0,0,0,1.57.26,1.16,1.16,0,0,0,.43-1.5c-.39-1.18.24-7.58,2.25-8.29a1.19,1.19,0,0,0,.72-.72,1.18,1.18,0,0,0-.11-1c-1.35-2.2-1.11-7,.4-8A1.18,1.18,0,0,0,76,51.47c-.78-.78-2.3-5.35-1-8.35a1.19,1.19,0,0,0-.15-1.19,1.17,1.17,0,0,0-1.12-.45c-1.18.19-2.78-1.59-3.37-2.48a1.18,1.18,0,0,0-2,.13c-.31.6-2.68,2-3.69,1.83a1.22,1.22,0,0,0-1,.22,1.21,1.21,0,0,0-.46.89c0,.41-.8,1.4-2.87,2.46-3.16,1.62-6.73,2.14-7.68,1.52a1.18,1.18,0,0,0-1.49.15,3.47,3.47,0,0,1-2.06.38,4.16,4.16,0,0,1-2.59-.91,1.18,1.18,0,0,0-1.2-.29c-4.48,1.46-9.4-4.86-9.45-4.93a1.23,1.23,0,0,0-1.1-.45,5.7,5.7,0,0,1-4.33-.93,1.18,1.18,0,0,0-1.11-.26,1.2,1.2,0,0,0-.81.81,3.6,3.6,0,0,1-2.78,2.43,1.15,1.15,0,0,0-.82.51,1.18,1.18,0,0,0-.17.95c.77,3,.65,7.6-.87,10a1.2,1.2,0,0,0,.29,1.58c1,1.26,2.21,7.71,1.5,8.67a1.2,1.2,0,0,0-.5,1.17,1.17,1.17,0,0,0,.85,1c.62.18,1.63,1.38,2.38,3.59.85,2.46.79,4.43.52,4.8a1.21,1.21,0,0,0-.15,1.12,4.15,4.15,0,0,1-.89,4.72,7.75,7.75,0,0,1-7.34,1.71,2.61,2.61,0,0,1-1.88-2.37,1.17,1.17,0,0,0-.76-1c-.18-.07-.87-.66-1.64-2.43-.89-2-1.21-4.1-.95-4.75a1.18,1.18,0,0,0,0-1,1.15,1.15,0,0,0-.77-.6s-.56-.31-1.19-2.38c-1.36-4.48-1.37-11.22-.6-12.44a1.16,1.16,0,0,0,0-1.31c-1.46-2.09-1.18-10.48.49-14.73.54-1.37,1-1.75,1.15-1.78a1.18,1.18,0,0,0,.79-.62,1.19,1.19,0,0,0,0-1c-.29-.76.11-4.91,2-5.77a1.21,1.21,0,0,0,.64-1.44A5.09,5.09,0,0,1,19.25,25c.32-.35,1.15-1.16,1.9-1a1.19,1.19,0,0,0,1.3-.63c.12-.24.7-.5,1.69-.5h0c1.84,0,3.74.85,4.09,1.55a1.19,1.19,0,0,0,1.44.6c.66-.22,3.39,1.59,4.25,4.05a1.22,1.22,0,0,0,1.17.79c5.2-.18,11.46,6.4,11.52,6.47a1.2,1.2,0,0,0,1.28.29c1.54-.58,3.65-.89,4.08-.4a1.19,1.19,0,0,0,2-.26c1.72-3.52,8.39-7,11.21-7.31a14.37,14.37,0,0,0,18.59,3.16c2.1,1.27,3,5.62,2.2,8.36a1.18,1.18,0,0,0,.42,1.27C88.17,42.77,88.77,53.92,87.17,56.7ZM75.11,22.81h2.32a.66.66,0,0,0,.65-.57l1.45-10.42a.69.69,0,0,0-.16-.53.65.65,0,0,0-.5-.22H73.66a.64.64,0,0,0-.65.75l1.45,10.42A.65.65,0,0,0,75.11,22.81Z"/></svg>