<svg xmlns="http://www.w3.org/2000/svg" viewBox="0 0 99 91.93"><defs><style>.cls-1{fill:#fff;}</style></defs><g id="Capa_2" data-name="Capa 2"><g id="Capa_1-2" data-name="Capa 1"><path class="cls-1" d="M97.56,0H82.22A1.44,1.44,0,0,0,80.8,1.32L76.93,17.76H1.44a1.44,1.44,0,0,0-1.14.56,1.41,1.41,0,0,0-.25,1.24L10.14,58.71a1.43,1.43,0,0,0,1.39,1.08H67l-3.4,14.47H20.41A1.43,1.43,0,0,0,19,75.7a1.42,1.42,0,0,0,1.19,1.39,8.84,8.84,0,1,0,13,0H50.59a8.85,8.85,0,1,0,13,0H64.8a1.43,1.43,0,0,0,1.42-1.31l6.33-26.9,7-29.4a1.48,1.48,0,0,0,0-.21L83.4,2.88H97.56a1.44,1.44,0,0,0,0-2.88ZM26.63,89.05a6,6,0,1,1,6-6A6,6,0,0,1,26.63,89.05Zm30.48,0a6,6,0,1,1,6-6A6,6,0,0,1,57.11,89.05ZM70,47.3,67.7,56.9h-55L3.3,20.64h73Z"/></g></g></svg>