<svg xmlns="http://www.w3.org/2000/svg" viewBox="0 0 90 74.87"><defs><style>.cls-1{fill:#3b5472;}</style></defs><g id="Capa_2" data-name="Capa 2"><g id="Capa_1-2" data-name="Capa 1"><path class="cls-1" d="M41.69,39.61l-.2.21a.27.27,0,0,0-.08.19.31.31,0,0,0,.09.18l.56.42,0,0h0c.29.21.62.45.87.67h0l0,0a6.22,6.22,0,0,1,1,1.27,6.13,6.13,0,0,1,1-1.27,9.87,9.87,0,0,1,.91-.7c.24-.17.45-.32.59-.44a.25.25,0,0,0,0-.37l-.2-.21a2.75,2.75,0,0,0-4.6,0Zm.51-14.76a5.63,5.63,0,0,1,2.16,1.7,3.59,3.59,0,0,0-.77-2.17A2.65,2.65,0,0,0,42.2,24.85Zm-3.83,7-.2.21a.3.3,0,0,0-.08.2.28.28,0,0,0,.09.17c.14.12.36.28.59.44s.63.45.88.67h0l0,0a6.22,6.22,0,0,1,1,1.27,6.13,6.13,0,0,1,1-1.27c.26-.23.63-.49.92-.7l0,0a5.23,5.23,0,0,0,.55-.41.21.21,0,0,0,.09-.17.25.25,0,0,0-.07-.2L43,31.8a2.77,2.77,0,0,0-4.6,0Zm7.51,3.57a5.93,5.93,0,0,0,.59-.45.2.2,0,0,0,.09-.17.26.26,0,0,0-.07-.2,2,2,0,0,1-.2-.21,2.77,2.77,0,0,0-4.6,0l-.2.21h0a.28.28,0,0,0-.07.19.26.26,0,0,0,.09.17c.14.12.35.27.58.43s.67.49.92.72a5.93,5.93,0,0,1,1,1.26,5.85,5.85,0,0,1,1-1.26A9.87,9.87,0,0,1,45.88,35.37Zm0-5.27c.23-.16.45-.32.59-.44a.25.25,0,0,0,0-.37l-.2-.21a2.75,2.75,0,0,0-4.6,0l-.2.21h0a.26.26,0,0,0-.07.18.31.31,0,0,0,.09.18c.14.12.35.27.58.43a10.52,10.52,0,0,1,.92.71,6.22,6.22,0,0,1,1,1.27,6.13,6.13,0,0,1,1-1.27A9.87,9.87,0,0,1,45.88,30.1Zm-5.21-.6a6.38,6.38,0,0,1,1-1.26c.26-.23.61-.48.92-.71h0c.23-.16.44-.31.58-.43a.25.25,0,0,0,0-.37L43,26.55l0,0c-.12-.13-.27-.3-.43-.45a4.1,4.1,0,0,0-1.07-.45.44.44,0,0,1-.3-.28h0a14.18,14.18,0,0,0-2.34,2.24,9,9,0,0,1,.87.67A6.48,6.48,0,0,1,40.67,29.5ZM65.6,64.8A9,9,0,0,0,68,63.48a6.68,6.68,0,0,0,1.57-1.7A4,4,0,0,0,70.23,60a2.43,2.43,0,0,0-.43-1.6,3.42,3.42,0,0,0-1.56-1.17,7.3,7.3,0,0,0-2.79-.45H65.2l-.27,0a2.6,2.6,0,0,0-.45-.37,2.15,2.15,0,0,0-.42-.22.44.44,0,0,0-.31,0c-.08,0-.12.12-.12.26a3.5,3.5,0,0,1-.05.54,11.26,11.26,0,0,0-2,.66,11.06,11.06,0,0,0-1.8,1,14.29,14.29,0,0,0-1.52,1.19,10.55,10.55,0,0,0-1.19,1.26,6.18,6.18,0,0,0-.75,1.2,2.43,2.43,0,0,0-.27,1,3.68,3.68,0,0,0,.32,1.63,4.14,4.14,0,0,0,.7,1.06,1.73,1.73,0,0,0,.71.46c.21,0,.32,0,.32-.16a.35.35,0,0,0-.05-.18l-.13-.19a.91.91,0,0,1-.12-.31,2.14,2.14,0,0,1-.06-.58,4.27,4.27,0,0,1,.48-1.89,8.66,8.66,0,0,1,1.26-1.85,12.09,12.09,0,0,1,1.77-1.65,12.51,12.51,0,0,1,2-1.27c-.24.8-.56,1.68-.95,2.65s-.81,2-1.25,3h-.29a.22.22,0,0,0-.2.11.68.68,0,0,0-.12.3,1.24,1.24,0,0,0,.11.78l-.8,1.81c-.26.57-.49,1.09-.68,1.55s-.35.85-.46,1.16a2.2,2.2,0,0,0-.17.64.7.7,0,0,0,.2.44,4.18,4.18,0,0,0,.49.43,3.2,3.2,0,0,0,.58.35,2.24,2.24,0,0,0,.5.2,6.69,6.69,0,0,0,1.24.39,6.94,6.94,0,0,0,1.48.15A4.75,4.75,0,0,0,66,71.08a4.43,4.43,0,0,0,1-1.34A3.85,3.85,0,0,0,67.47,68a3.56,3.56,0,0,0-.54-2.08A3.27,3.27,0,0,0,65.6,64.8Zm-1.27-2.73c.27-.64.5-1.23.71-1.77s.37-1,.49-1.38a3.25,3.25,0,0,0,.18-.79,1.08,1.08,0,0,0-.13-.53l.2,0H66a2.05,2.05,0,0,1,1.38.46A2.09,2.09,0,0,1,68,59.17a3.14,3.14,0,0,1,0,1.49,4.3,4.3,0,0,1-.76,1.53,4.86,4.86,0,0,1-1.49,1.24,5.4,5.4,0,0,1-2.25.63C63.79,63.38,64.07,62.71,64.33,62.07Zm1.25,6.36a3.74,3.74,0,0,1-.79,1.08,4.43,4.43,0,0,1-1.27.86,4.11,4.11,0,0,1-1.73.35,7.34,7.34,0,0,1-.85,0,5.67,5.67,0,0,1,.25-.82c.12-.35.27-.75.45-1.21s.37-1,.58-1.48.45-1.09.69-1.65l.3-.07.29-.06.1,0a.18.18,0,0,0,.1,0l.24,0h.21a1.45,1.45,0,0,1,1.31.59,2.7,2.7,0,0,1,.39,1.5A2.51,2.51,0,0,1,65.58,68.43ZM43.69,23.24a1,1,0,0,0-.26-.31.64.64,0,0,0-.33-.1l-.16,0c-2.62.44-4.11,1.68-4.54,3.79C40.8,24,42.68,23.36,43.69,23.24Zm1.65-6a6.37,6.37,0,0,0-2.55,4.61,4.2,4.2,0,0,1,1.4.49A3.61,3.61,0,0,1,46,22.11a6.39,6.39,0,0,0,.54-3.5,16.29,16.29,0,0,1,.2-2.8A6.81,6.81,0,0,1,45.34,17.22Zm3.92,20.89.6-.44a.31.31,0,0,0,.09-.18.27.27,0,0,0-.08-.19l-.2-.21a2.75,2.75,0,0,0-4.6,0l-.2.21a.23.23,0,0,0-.07.19.25.25,0,0,0,.08.18c.15.12.37.28.59.43a10.31,10.31,0,0,1,.91.71,6.11,6.11,0,0,1,1,1.26,6.48,6.48,0,0,1,1-1.26A9.69,9.69,0,0,1,49.26,38.11Zm0-5.29c.23-.16.45-.32.59-.44a.28.28,0,0,0,.09-.17.3.3,0,0,0-.08-.2l-.18-.19a3,3,0,0,0-2.32-1.25,3,3,0,0,0-2.3,1.23l0,0a1.29,1.29,0,0,1-.16.17.25.25,0,0,0-.07.2.23.23,0,0,0,.08.17l.58.43a10.52,10.52,0,0,1,.92.71,5.89,5.89,0,0,1,1,1.27,6.22,6.22,0,0,1,1-1.27A9.87,9.87,0,0,1,49.27,32.82Zm-.91,11.27a9.87,9.87,0,0,1,.91-.7c.24-.17.45-.32.59-.44a.28.28,0,0,0,.09-.17.3.3,0,0,0-.08-.2l-.2-.21a2.77,2.77,0,0,0-4.6,0l-.2.21a.25.25,0,0,0-.07.2.23.23,0,0,0,.08.17c.15.13.38.29.59.44a10.29,10.29,0,0,1,.91.7,6.05,6.05,0,0,1,1,1.27A6.12,6.12,0,0,1,48.36,44.09Zm-10-1.72-.19.21a.28.28,0,0,0-.08.2.28.28,0,0,0,.09.17c.14.12.36.28.59.44s.62.45.88.67h0l0,0a6.22,6.22,0,0,1,1,1.27,6.13,6.13,0,0,1,1-1.27c.26-.23.61-.48.92-.7s.44-.32.58-.44a.21.21,0,0,0,.09-.17.25.25,0,0,0-.07-.2l-.2-.21a2.77,2.77,0,0,0-4.61,0Zm3.7,3.5,0,0h0c.29.21.62.45.87.66h0l0,0a6.22,6.22,0,0,1,1,1.27,6.41,6.41,0,0,1,1-1.27c.25-.22.6-.47.91-.7a6.45,6.45,0,0,0,.59-.44.2.2,0,0,0,.09-.17.26.26,0,0,0-.07-.2,2,2,0,0,1-.2-.21,2.77,2.77,0,0,0-4.6,0l-.2.21a.32.32,0,0,0-.08.2.26.26,0,0,0,.09.17A6.76,6.76,0,0,0,42.06,45.87Zm4.1-20.29a4,4,0,0,0-.94.77c.05.33.08.7.1,1.08l.15.1a9.92,9.92,0,0,1,.91.71,6.3,6.3,0,0,1,1,1.26,6.48,6.48,0,0,1,1-1.26,10.92,10.92,0,0,1,.91-.7l.1-.08A4.54,4.54,0,0,0,46.16,25.58ZM52.61,15a16.39,16.39,0,0,0-2.45.32,9,9,0,0,0-1.68,1.53,5.57,5.57,0,0,1,2.14-.39A7,7,0,0,1,52.61,15ZM32.89,41.29c.16.24.51.68.79,1,.53.63.89,1.08,1.3,1.64.24-.2.54-.42.82-.62s.44-.32.59-.44a.26.26,0,0,0,.09-.17.32.32,0,0,0-.08-.2l-.18-.2a3,3,0,0,0-2.32-1.24,2.52,2.52,0,0,0-1,.18ZM47.33,18.81c0,.69-.07,1.31-.12,1.72a7.13,7.13,0,0,1,3.57-1.19h.08a10.51,10.51,0,0,0,2.74-2.21c-.87.07-2.46.2-3.48.35a7.24,7.24,0,0,0-2.77.83C47.35,18.45,47.34,18.62,47.33,18.81Zm24.07,43a1.75,1.75,0,0,0,.51.26,2,2,0,0,0,.58.09,1.25,1.25,0,0,0,.71-.23,2.4,2.4,0,0,0,.59-.56,2.88,2.88,0,0,0,.4-.7,2.24,2.24,0,0,0,.19-.66,1.06,1.06,0,0,0-.29-.89,1.17,1.17,0,0,0-.86-.32,1.58,1.58,0,0,0-.75.21,3.61,3.61,0,0,0-.73.52,3,3,0,0,0-.57.71,1.78,1.78,0,0,0-.26.74.78.78,0,0,0,.12.46A1.27,1.27,0,0,0,71.4,61.82ZM46.73,9.38v4.81a27.5,27.5,0,0,1,1.6-2.93c.64-.87,1.19-1.43,3.3-1.83.92-.81,1.59-3.39,1.81-4.87a11.44,11.44,0,0,1-2.69,1.88A15.34,15.34,0,0,0,46.73,9.38Zm-13.62,29ZM46.84,22.07a3.35,3.35,0,0,1,1.07.34,9.13,9.13,0,0,1,3.43-2.17A6.84,6.84,0,0,0,46.84,22.07Zm5.36,5.28a6.75,6.75,0,0,0-1.66-3.63,4.27,4.27,0,0,0-1.28,0c.24.6.8,1.95.94,2.51A4.71,4.71,0,0,1,52.2,27.35ZM40.35,17.28a3.74,3.74,0,0,0,.31.47,8,8,0,0,1,1.4,3A9.93,9.93,0,0,1,43,18c-.28-.4-1.32-1.9-2-2.87a6.19,6.19,0,0,1-.94-3.08,6.7,6.7,0,0,0-.73,2.58,5.55,5.55,0,0,0,.93,2.51h0Zm2-3.66h0a1.66,1.66,0,0,0,0,2c.47.63,1,1.51,1.29,1.9l1.19-1.06.13-.11a2.35,2.35,0,0,0,1-2c0-.32,0-.76,0-1.27A39.41,39.41,0,0,1,46,8.31,60.1,60.1,0,0,0,42.35,13.62Zm-5,12.81a10.65,10.65,0,0,1,1.46-2.66,9.05,9.05,0,0,0-1.64-.05c-.75.47-1.47,2.38-1.68,3.65A4.67,4.67,0,0,1,37.34,26.43ZM39.65,23a4.06,4.06,0,0,1,1.74-.76V21.9a14.26,14.26,0,0,0-1.6-.17,5.6,5.6,0,0,0-4.18,2.09A5.47,5.47,0,0,1,39.65,23Zm5.23.15a1.39,1.39,0,0,1,0,1l-.06.1c.07.15.13.26.17.34A6.74,6.74,0,0,1,49.23,26a3.42,3.42,0,0,0-3.11-3A6,6,0,0,0,44.88,23.12Zm-6.52,14h0l0,0-.12.13h0l0,0a.27.27,0,0,0-.08.19.31.31,0,0,0,.09.18c.14.12.36.27.58.43a10.52,10.52,0,0,1,.92.71,6.48,6.48,0,0,1,1,1.26,6.38,6.38,0,0,1,1-1.26,11.23,11.23,0,0,1,.9-.7,6.79,6.79,0,0,0,.6-.44.25.25,0,0,0,0-.37l-.2-.21a2.76,2.76,0,0,0-4.61,0ZM39,8c-.37-.16-.77-.31-1.13-.44s-.67-.25-.88-.35a13.06,13.06,0,0,0,2.28,4.25,6.56,6.56,0,0,1,1.24-1.27l.3-.23,0,.37c0,.21.13,2,.26,2.61a5,5,0,0,0,.32.8c.48-.88.85-1.56.9-1.7A10.29,10.29,0,0,0,40.39,9,5,5,0,0,0,39,8Zm-4.45,7.46h0a23.84,23.84,0,0,0,3.18,3.38h1a10,10,0,0,1-2.34-3.1c-.36-.75-.47-.79-1.1-1l-.07,0-.76-.27L33.16,14A6.78,6.78,0,0,1,34.52,15.47Zm-1.59,21.7.11.29a6.28,6.28,0,0,1,.26.85h0v.19h0a.85.85,0,0,1-.1.6h0l.17.2.18.22.19.24c.06.08.13.15.19.24a6,6,0,0,1,1-1.2,9.71,9.71,0,0,1,.92-.71c.23-.16.44-.32.58-.43a.31.31,0,0,0,.09-.18.27.27,0,0,0-.08-.19l-.18-.2a3,3,0,0,0-2.32-1.25,2.45,2.45,0,0,0-1.28.34l.18.54C32.84,36.88,32.88,37,32.93,37.17Zm0-3.65a6.13,6.13,0,0,1,1,1.27,6.22,6.22,0,0,1,1-1.27,9.87,9.87,0,0,1,.91-.7c.23-.16.44-.32.59-.44a.28.28,0,0,0,.09-.17.3.3,0,0,0-.08-.2l-.2-.21a3.16,3.16,0,0,0-2-1.21,3.24,3.24,0,0,1-.24.31c-.15.2-.29.39-.41.57a9.46,9.46,0,0,0-1,1.81c.11.09.2.16.27.23ZM38.84,6a11.93,11.93,0,0,0,2.4,2.7,3.36,3.36,0,0,1,.77,1,10.82,10.82,0,0,1,1-4.49c-.24-.19-.51-.44-.77-.68a7.66,7.66,0,0,0-1.11-.92L41,3.51c-.38-.22-1-.59-4.51-.73A9.64,9.64,0,0,1,38.84,6Zm-2.65,8,.18.37.15.3c.51,1.06,1.67,3.49,3.89,4.3a8.25,8.25,0,0,1-1.85-4.5,3,3,0,0,1,.6-1.95c-.36-.52-1.83-2.33-5.57-2.53A14.29,14.29,0,0,1,36.19,14Zm6.69-2.85L46.73,6V8.21c.39-.32,1-.85,1.11-1.2a53.63,53.63,0,0,0,1.27-7A35.76,35.76,0,0,0,44,5.37C42.89,7.06,42.85,9.88,42.88,11.1Zm9,26h0l-.16.17h0l0,0a.27.27,0,0,0-.08.19.31.31,0,0,0,.09.18c.14.11.35.27.57.42a10.33,10.33,0,0,1,.93.72A5.81,5.81,0,0,1,54.08,40l.14-.18,0,0,.16-.2.18-.2.18-.22a.92.92,0,0,1-.1-.71,4.65,4.65,0,0,1,.27-.94l.11-.29c0-.14.08-.26.11-.38v0c.06-.2.12-.39.2-.6a2.49,2.49,0,0,0-1.21-.3A3,3,0,0,0,51.85,37.09ZM54,30.92l-.24-.32a3.27,3.27,0,0,0-1.88,1.2,2,2,0,0,1-.19.21.3.3,0,0,0-.08.2.28.28,0,0,0,.09.17c.14.12.36.28.59.44a9.87,9.87,0,0,1,.91.7,6.22,6.22,0,0,1,1,1.27,6.13,6.13,0,0,1,1-1.27l.23-.19a10.6,10.6,0,0,0-1-1.86C54.26,31.28,54.11,31.1,54,30.92ZM53.79,10c-.7.07-1.48.14-2.24.24A4.65,4.65,0,0,0,48,13.41h0a21.09,21.09,0,0,0-.55,3.38,17.76,17.76,0,0,1,2.85-2.62,14,14,0,0,1,1.61-.89A18.39,18.39,0,0,0,54,12.14,8.93,8.93,0,0,0,56.5,9.66,20.86,20.86,0,0,1,53.79,10Zm.37,31.06a3,3,0,0,0-2.31,1.23l-.19.21a.32.32,0,0,0-.08.2.26.26,0,0,0,.09.17c.14.12.36.28.59.44s.54.39.77.58c.39-.55.75-1,1.27-1.6.28-.34.62-.77.78-1l-.15-.11A2.47,2.47,0,0,0,54.16,41.07ZM90,66a.27.27,0,0,0-.13-.2c-.06,0-.13,0-.21.14-.24.35-.52.71-.82,1.07a11.8,11.8,0,0,1-1,1,7.76,7.76,0,0,1-1.06.87,4.81,4.81,0,0,1-1.07.56,11.47,11.47,0,0,0,.88-1.8A6,6,0,0,0,87,66a3.21,3.21,0,0,0-.08-1,3.77,3.77,0,0,0-.44-1,2.62,2.62,0,0,0-.75-.77,1.77,1.77,0,0,0-1-.31,2.5,2.5,0,0,0-1.12.28,4.38,4.38,0,0,0-1.09.76,5.15,5.15,0,0,0-.9,1.11A4.71,4.71,0,0,0,81,66.34a7.59,7.59,0,0,0-.53.75c-.17.28-.34.56-.49.83s-.27.55-.38.81a2.56,2.56,0,0,0-.17.69v0c-.26.39-.5.73-.74,1a7.36,7.36,0,0,1-.66.78.79.79,0,0,1-.49.3q-.24,0-.09-.51c.12-.35.27-.76.44-1.23l.51-1.39c.16-.45.3-.87.43-1.24a4.22,4.22,0,0,0,.21-.78,1.32,1.32,0,0,0-.18-.81,2.1,2.1,0,0,0-.54-.58,7.27,7.27,0,0,0-.74-.47,5,5,0,0,1-.74-.5,16.75,16.75,0,0,0,.76-1.67A6.22,6.22,0,0,0,78,60.76a2.32,2.32,0,0,0-.17-1.38A.79.79,0,0,0,77.2,59a2.28,2.28,0,0,0-.89.25,4.13,4.13,0,0,0-1,.68,5,5,0,0,0-.9,1,2.88,2.88,0,0,0-.44,1.3,3,3,0,0,0,.07,1,2.5,2.5,0,0,0,.34.78,3,3,0,0,0,.53.59c.21.17.41.33.61.47a6.78,6.78,0,0,0-.37.57c-.11.17-.22.32-.31.44a.36.36,0,0,0,0,.11c-.15.23-.33.47-.52.74l-.82,1.12c-.28.38-.57.75-.87,1.12s-.57.68-.84,1a5.59,5.59,0,0,1-.72.69.92.92,0,0,1-.52.27c-.16,0-.19-.17-.09-.49s.21-.61.35-1l.44-1.19c.16-.4.31-.82.47-1.23s.3-.8.43-1.16.23-.66.31-.92a3.69,3.69,0,0,0,.15-.55.85.85,0,0,0-.28-.58,3.39,3.39,0,0,0-.66-.54,1.52,1.52,0,0,0-.69-.23.29.29,0,0,0-.34.31,3.24,3.24,0,0,1-.22.68c-.13.34-.29.74-.48,1.19s-.4.95-.63,1.46-.43,1-.63,1.51-.37.93-.5,1.33a3.46,3.46,0,0,0-.23.92,1,1,0,0,0,.24.77,1.67,1.67,0,0,0,.64.44,2.77,2.77,0,0,0,.74.21,3.6,3.6,0,0,0,.51.06h.11a2.12,2.12,0,0,0,.9-.4,7.56,7.56,0,0,0,1-.87c.34-.35.68-.73,1-1.14s.64-.82.93-1.22.54-.76.76-1.09.32-.5.43-.68c0,0,0,0,0,0s.22-.31.39-.53.32-.45.49-.72a2.56,2.56,0,0,1,.56.5.72.72,0,0,1,.16.57,2.66,2.66,0,0,1-.29.84c-.18.39-.37.8-.59,1.25s-.42.89-.61,1.33A3.45,3.45,0,0,0,75,71.1a1,1,0,0,0,.24.77,1.69,1.69,0,0,0,.64.45,2.81,2.81,0,0,0,.74.22,3.76,3.76,0,0,0,.51.06h.11a1.89,1.89,0,0,0,.89-.44,6.48,6.48,0,0,0,1-.94c.19-.23.39-.48.58-.74a3.34,3.34,0,0,0,.45.8,2.92,2.92,0,0,0,.84.72,2.28,2.28,0,0,0,1.15.29,2.67,2.67,0,0,0,1.51-.5A6.66,6.66,0,0,0,85,70.48a4.09,4.09,0,0,0,1.66-.59A10.17,10.17,0,0,0,88,68.8a9.8,9.8,0,0,0,1.12-1.24l.79-1a.51.51,0,0,0,.06-.24A1.06,1.06,0,0,0,90,66ZM76.4,63.61a1.92,1.92,0,0,1-.32-.62,2.15,2.15,0,0,1-.07-.82,3.27,3.27,0,0,1,.13-.76,5.49,5.49,0,0,1,.28-.78,3.63,3.63,0,0,1,.35-.63c.13-.17.25-.25.36-.25a.3.3,0,0,1,.28.2,1.68,1.68,0,0,1,0,.77,5,5,0,0,1-.35,1.41A11.75,11.75,0,0,1,76.4,63.61Zm6,7.24a1.18,1.18,0,0,1-.71.25c-.14,0-.23,0-.27-.13a.57.57,0,0,1,0-.34,2.35,2.35,0,0,1,.22-.52c.1-.19.22-.4.35-.62a3.62,3.62,0,0,0,1.1.72A3.42,3.42,0,0,1,82.38,70.85Zm2.81-5.25a4.73,4.73,0,0,1-.16.76c-.09.3-.19.61-.32,1a9.08,9.08,0,0,1-.45,1c-.17.35-.36.69-.55,1a4.38,4.38,0,0,1-1.19-.63L83,68l.43-.64c.13-.2.23-.37.32-.52a1.18,1.18,0,0,0,.14-.35.58.58,0,0,0-.17-.45,2.31,2.31,0,0,0-.48-.36,4.83,4.83,0,0,0-.58-.25,2.7,2.7,0,0,0-.5-.12,4.51,4.51,0,0,1,.53-.69,4.36,4.36,0,0,1,.62-.54,3.87,3.87,0,0,1,.65-.36,1.67,1.67,0,0,1,.63-.14.53.53,0,0,1,.58.45A5.61,5.61,0,0,1,85.19,65.6Zm-31.86.21c-.06,0-.14,0-.24.16-.19.29-.41.62-.67,1l-.81,1.12-.87,1.12c-.29.36-.57.68-.84,1a6.34,6.34,0,0,1-.71.69.89.89,0,0,1-.52.27c-.15,0-.18-.16-.09-.47s.34-1,.57-1.57l.7-1.86c.23-.61.42-1.16.59-1.65a4.79,4.79,0,0,0,.27-1,.83.83,0,0,0-.27-.58,3.06,3.06,0,0,0-.65-.54,1.53,1.53,0,0,0-.68-.23.3.3,0,0,0-.35.31,5.46,5.46,0,0,1-.39,1.12,5.5,5.5,0,0,0-.48-.54,5.39,5.39,0,0,0-.63-.51,3.48,3.48,0,0,0-.77-.39,2.66,2.66,0,0,0-.9-.15,1.2,1.2,0,0,0-.79.4,6.58,6.58,0,0,0-.89,1.05A16.63,16.63,0,0,0,43,66q-.44.77-.78,1.53l-.09.2-.24.29c-.33.38-.67.76-1,1.14a13.76,13.76,0,0,1-1,1,5.58,5.58,0,0,1-.93.72,1.43,1.43,0,0,1-.75.28,1.06,1.06,0,0,1-.25,0,.42.42,0,0,1-.22-.13.65.65,0,0,1-.13-.29,1.6,1.6,0,0,1,0-.5,6.08,6.08,0,0,1,.18-1q.15-.58.36-1.2c.15-.4.3-.8.47-1.19s.34-.74.51-1a4.15,4.15,0,0,1,.47-.74c.15-.19.28-.28.39-.28a1.86,1.86,0,0,1,.79.15,2.75,2.75,0,0,1,.52.32l.33.28c.09.08.16.08.22,0s.08-.22.06-.47a1.67,1.67,0,0,0-.29-.79,2.55,2.55,0,0,0-.83-.75,3.06,3.06,0,0,0-1.54-.33,1.59,1.59,0,0,0-1,.37,5.83,5.83,0,0,0-1,1,10.15,10.15,0,0,0-.9,1.37c-.17.3-.33.6-.47.9l0,.06c-.31.36-.64.73-1,1.12s-.75.78-1.15,1.17a11.46,11.46,0,0,1-1.23,1,6.62,6.62,0,0,1-1.23.73,2.78,2.78,0,0,1-1.18.28.38.38,0,0,1-.36-.19.83.83,0,0,1-.11-.5,3.16,3.16,0,0,1,.11-.74c.08-.28.17-.59.29-.91a2.64,2.64,0,0,0,.52.13,4,4,0,0,0,.64,0,2.32,2.32,0,0,0,1.21-.36,5.91,5.91,0,0,0,1.08-.86,5.22,5.22,0,0,0,.8-1,2.32,2.32,0,0,0,.35-.92,1.84,1.84,0,0,0-.17-.85,3.29,3.29,0,0,0-.52-.88,2.89,2.89,0,0,0-.8-.67,2,2,0,0,0-1-.27,1.84,1.84,0,0,0-.88.27,4.83,4.83,0,0,0-1,.73,7.07,7.07,0,0,0-1,1.1,11,11,0,0,0-.86,1.37c-.07.13-.14.27-.2.41l-1,1.08c-.38.4-.78.81-1.21,1.23s-.85.8-1.27,1.16a13.19,13.19,0,0,0,.83-1.35c.25-.47.47-.93.67-1.38a13,13,0,0,0,.46-1.24,5.31,5.31,0,0,0,.2-1,3.29,3.29,0,0,0-.05-1,1.86,1.86,0,0,0-.34-.77,1.77,1.77,0,0,0-.68-.51,2.56,2.56,0,0,0-1.07-.19,1,1,0,0,0-.6.27,5.67,5.67,0,0,0-.72.69c-.25.29-.51.61-.77,1s-.5.72-.73,1.08c.3-.81.61-1.63.91-2.46s.59-1.59.83-2.28.45-1.28.62-1.75a6.44,6.44,0,0,0,.26-.88.82.82,0,0,0-.28-.59,2.79,2.79,0,0,0-.66-.54,1.63,1.63,0,0,0-.69-.22.29.29,0,0,0-.34.31,7.92,7.92,0,0,1-.4,1.54c-.24.69-.53,1.47-.87,2.33s-.71,1.77-1.09,2.7-.66,1.61-1,2.35l-.18.21c-.3.36-.64.73-1,1.12s-.74.78-1.14,1.17a13.82,13.82,0,0,1-1.23,1,7,7,0,0,1-1.24.73,2.78,2.78,0,0,1-1.17.28.4.4,0,0,1-.37-.19.91.91,0,0,1-.11-.5A3.89,3.89,0,0,1,13,69.7a8.56,8.56,0,0,1,.29-.91,2.54,2.54,0,0,0,.51.13,4.06,4.06,0,0,0,.64,0,2.3,2.3,0,0,0,1.21-.36,5.31,5.31,0,0,0,1.08-.86,4.93,4.93,0,0,0,.81-1,2.49,2.49,0,0,0,.35-.92,2.14,2.14,0,0,0-.17-.85,3.33,3.33,0,0,0-.53-.88,2.89,2.89,0,0,0-.8-.67,1.92,1.92,0,0,0-1-.27,1.88,1.88,0,0,0-.89.27,5.07,5.07,0,0,0-1,.73,7.67,7.67,0,0,0-1,1.1,10.93,10.93,0,0,0-.85,1.37,9.12,9.12,0,0,0-.65,1.54,7.17,7.17,0,0,0-.34,1.63,1.21,1.21,0,0,0,.23.73,3.53,3.53,0,0,0,.68.79,3.72,3.72,0,0,0,.91.61,2,2,0,0,0,.94.25,3,3,0,0,0,1.31-.35,6.91,6.91,0,0,0,1.39-.89,15.3,15.3,0,0,0,1.36-1.21c.32-.33.63-.65.92-1,0,.11-.09.23-.13.33A4.82,4.82,0,0,0,18,70.28a1,1,0,0,0,.19.72,1.68,1.68,0,0,0,.57.44,3.11,3.11,0,0,0,.69.23,4.66,4.66,0,0,0,.55.09,1.73,1.73,0,0,0,.19.39,2.07,2.07,0,0,0,.34.39,2.16,2.16,0,0,0,.49.31,1.62,1.62,0,0,0,.64.12,3.34,3.34,0,0,0,1.46-.38,9.08,9.08,0,0,0,1.56-1,15.87,15.87,0,0,0,1.54-1.34c.5-.5,1-1,1.38-1.45l.06-.07a7.24,7.24,0,0,0-.17,1,1.13,1.13,0,0,0,.22.73,3.81,3.81,0,0,0,.68.79,3.92,3.92,0,0,0,.91.61,2.08,2.08,0,0,0,.95.25,3,3,0,0,0,1.31-.35,7.52,7.52,0,0,0,1.39-.89,16.74,16.74,0,0,0,1.35-1.21c.29-.28.56-.57.81-.85a4.85,4.85,0,0,0-.22,1,1.37,1.37,0,0,0,.12.72,2.71,2.71,0,0,0,.49.74,2.63,2.63,0,0,0,.82.58,2.6,2.6,0,0,0,1.15.24,3,3,0,0,0,1.3-.34,7.45,7.45,0,0,0,1.36-.88,12,12,0,0,0,1.3-1.19l.05-.06,0,.19a1.46,1.46,0,0,0,.23.92,2.51,2.51,0,0,0,.66.72,3.89,3.89,0,0,0,.88.46,2.8,2.8,0,0,0,.83.16.83.83,0,0,0,.41-.17,4.92,4.92,0,0,0,.53-.46c.19-.2.39-.41.6-.66s.43-.51.64-.79c0,.14-.06.25-.08.35a2.51,2.51,0,0,0,0,.27.94.94,0,0,0,.23.77,1.71,1.71,0,0,0,.65.44,2.67,2.67,0,0,0,.74.21,3.6,3.6,0,0,0,.51.06h.1a2.15,2.15,0,0,0,.91-.4,6.52,6.52,0,0,0,1-.87c.35-.35.68-.73,1-1.14s.64-.82.92-1.22.55-.76.77-1.09.4-.59.52-.79a.69.69,0,0,0,0-.24,1,1,0,0,0,0-.35A.36.36,0,0,0,53.33,65.81Zm-22.08.42a8.17,8.17,0,0,1,.6-.92,4.1,4.1,0,0,1,.56-.63.76.76,0,0,1,.46-.24c.18,0,.26.13.23.39a2.15,2.15,0,0,1-.36.88,4.69,4.69,0,0,1-.85,1,2.87,2.87,0,0,1-1.24.63Q30.94,66.76,31.25,66.23Zm-16.73,0a9.79,9.79,0,0,1,.61-.92,3.64,3.64,0,0,1,.56-.63.71.71,0,0,1,.46-.24c.18,0,.25.13.22.39a2.15,2.15,0,0,1-.36.88,4.41,4.41,0,0,1-.85,1,2.78,2.78,0,0,1-1.23.63C14.12,66.94,14.32,66.58,14.52,66.23ZM24.63,66c-.23.49-.52,1-.86,1.63a18,18,0,0,1-1.1,1.68,9.09,9.09,0,0,1-1.22,1.36,2.66,2.66,0,0,1-1.21.69.66.66,0,0,0,0-.13,1,1,0,0,1,0-.17c0-.06.07-.24.16-.52s.21-.64.37-1.09c.15-.28.34-.6.56-1s.46-.73.72-1.11.51-.77.78-1.14.54-.71.8-1a5.35,5.35,0,0,1,.76-.71,1.09,1.09,0,0,1,.65-.28c.12,0,.14.17.06.5A9.5,9.5,0,0,1,24.63,66ZM48,65.64c-.06.15-.13.31-.19.48l-.5.81-.67,1L45.86,69c-.25.36-.5.69-.73,1a8.92,8.92,0,0,1-.63.72.81.81,0,0,1-.44.27c-.14,0-.18-.15-.13-.45a6.1,6.1,0,0,1,.32-1.13q.24-.68.6-1.47a14.4,14.4,0,0,1,.76-1.47,8.15,8.15,0,0,1,.77-1.13q.39-.45.63-.45a2.13,2.13,0,0,1,.65.09,3.83,3.83,0,0,1,.49.2C48.09,65.34,48,65.49,48,65.64ZM14.46,73.3a.79.79,0,0,0-.31.09l-.41.22a.94.94,0,0,1-.44.12,3,3,0,0,1-1.74-.53,5.78,5.78,0,0,1-1.38-1.37,10,10,0,0,1-1-1.85c-.3-.67-.55-1.33-.77-2S8,66.8,7.84,66.27s-.26-.9-.35-1.14a9.54,9.54,0,0,0,3.2-1A8.25,8.25,0,0,0,13,62.42a5,5,0,0,0,1.2-2,2.91,2.91,0,0,0-.06-2A3.06,3.06,0,0,0,12.62,57a7,7,0,0,0-3.11-.57,8.92,8.92,0,0,0-2.41.33,12.13,12.13,0,0,0-2.24.88,13,13,0,0,0-1.95,1.26,12.67,12.67,0,0,0-1.54,1.43,7.12,7.12,0,0,0-1,1.43A2.72,2.72,0,0,0,0,62.93a4.2,4.2,0,0,0,.23,1.45,3.54,3.54,0,0,0,.53,1,2.16,2.16,0,0,0,.62.57,1.12,1.12,0,0,0,.5.18c.12,0,.17,0,.17-.08A2.19,2.19,0,0,0,2,65.77c-.05-.13-.11-.3-.17-.51a2.88,2.88,0,0,1-.09-.78A3.53,3.53,0,0,1,2,63.17a8.22,8.22,0,0,1,.85-1.5,13.09,13.09,0,0,1,1.26-1.51,13.43,13.43,0,0,1,1.54-1.38c-.14.75-.33,1.54-.57,2.36s-.52,1.63-.81,2.44-.58,1.6-.87,2.37S2.85,67.41,2.61,68,2.16,69.22,2,69.67a3.75,3.75,0,0,0-.23,1,.9.9,0,0,0,.36.74,2.49,2.49,0,0,0,.79.45,1.93,1.93,0,0,0,.8.1q.36,0,.36-.27a3.58,3.58,0,0,1,.12-.75c.09-.34.2-.73.34-1.18s.3-.93.48-1.46.39-1.08.61-1.66q.25.6.54,1.44c.19.56.42,1.14.67,1.75a18.65,18.65,0,0,0,.87,1.81,7.65,7.65,0,0,0,1.18,1.62,5.6,5.6,0,0,0,1.56,1.17,4.53,4.53,0,0,0,2,.44,2.19,2.19,0,0,0,.83-.15,2.93,2.93,0,0,0,.66-.37,1.83,1.83,0,0,0,.45-.42.69.69,0,0,0,.16-.36Q14.58,73.3,14.46,73.3ZM6.6,64c.23-.61.45-1.2.67-1.76s.41-1.06.58-1.5.3-.82.4-1.11a5.55,5.55,0,0,0,.18-.57.52.52,0,0,0-.09-.32,1.54,1.54,0,0,0-.27-.34,3.37,3.37,0,0,0-.39-.33l-.46-.31a6.66,6.66,0,0,1,1.26-.51,4.14,4.14,0,0,1,1.23-.19,2.18,2.18,0,0,1,1.46.48,2.37,2.37,0,0,1,.74,1.23,3.31,3.31,0,0,1,0,1.62A4.1,4.1,0,0,1,11,62.08,5.48,5.48,0,0,1,9.26,63.4,6.63,6.63,0,0,1,6.6,64ZM34.92,39.61l0,0-.18.19a.25.25,0,0,0,0,.37c.13.11.34.26.56.42l0,0a11.1,11.1,0,0,1,.92.7,6.38,6.38,0,0,1,1,1.26,6.48,6.48,0,0,1,1-1.26,9.87,9.87,0,0,1,.91-.7c.23-.17.45-.32.59-.44A.31.31,0,0,0,39.8,40a.27.27,0,0,0-.08-.19l-.15-.17,0,0a2.75,2.75,0,0,0-4.6,0Zm1,6.56.06.06.4.38a9.74,9.74,0,0,0,1,1,5.83,5.83,0,0,1,.81-1l0,0c.25-.22.59-.46.88-.67s.45-.32.59-.44a.26.26,0,0,0,.09-.17.32.32,0,0,0-.08-.2l-.15-.16,0-.05a3,3,0,0,0-2.3-1.23,2.55,2.55,0,0,0-1.87.79.71.71,0,0,1,0,.25l0,.16a1.75,1.75,0,0,0-.07.71C35.33,45.64,35.63,45.92,35.89,46.17Zm-1-11.83a2,2,0,0,1-.2.21.26.26,0,0,0-.07.2.2.2,0,0,0,.09.17c.13.12.33.26.55.42l0,0a10.71,10.71,0,0,1,.92.71,5.85,5.85,0,0,1,1,1.26,5.93,5.93,0,0,1,1-1.26,9.92,9.92,0,0,1,.91-.71c.23-.16.45-.32.59-.44a.26.26,0,0,0,.09-.17.32.32,0,0,0-.08-.2l-.18-.19a2.77,2.77,0,0,0-4.62,0Zm6.73,15a10.71,10.71,0,0,1,.92-.71l0,0c.21-.15.41-.29.54-.4a.25.25,0,0,0,0-.37l0,0L43,47.65a2.77,2.77,0,0,0-4.6,0l-.2.22a.24.24,0,0,0-.07.24,8.33,8.33,0,0,0,3.42,1.39ZM39,19.6A5.76,5.76,0,0,0,34.27,22a8,8,0,0,1,4.14-1.37,13.72,13.72,0,0,1,2.81.46c-.07-.37-.14-.87-.16-1.05a5.19,5.19,0,0,0-2-.46ZM35.29,30.07l0,0c.29.21.66.47.92.7a6.38,6.38,0,0,1,1,1.26,6.48,6.48,0,0,1,1-1.26,9.87,9.87,0,0,1,.91-.7c.23-.17.45-.32.59-.44a.31.31,0,0,0,.09-.18.27.27,0,0,0-.08-.19l-.18-.2a3,3,0,0,0-2.32-1.25,2.52,2.52,0,0,0-1.52.5c-.36.37-.72.76-1.05,1.16a.26.26,0,0,0,.09.16C34.87,29.77,35.07,29.92,35.29,30.07ZM52.66,40.63c.22-.17.44-.32.58-.44a.31.31,0,0,0,.09-.18.24.24,0,0,0-.08-.19l-.19-.21a2.76,2.76,0,0,0-4.61,0l-.2.21a.26.26,0,0,0-.07.19.23.23,0,0,0,.09.18c.13.11.34.26.56.42l0,0a11.1,11.1,0,0,1,.92.7,6,6,0,0,1,1,1.26,6.48,6.48,0,0,1,1-1.26A8.85,8.85,0,0,1,52.66,40.63ZM51.47,21a5.77,5.77,0,0,0-2.51,2,10.76,10.76,0,0,1,1.82-.16,8.4,8.4,0,0,1,3.57.73A4.45,4.45,0,0,0,51.47,21ZM51.78,36a9.21,9.21,0,0,1,.88-.67c.22-.16.44-.32.58-.44a.26.26,0,0,0,.09-.17.27.27,0,0,0-.08-.2,2,2,0,0,1-.19-.21,2.77,2.77,0,0,0-4.61,0,2,2,0,0,1-.2.21.31.31,0,0,0-.07.2.2.2,0,0,0,.09.17c.13.12.33.26.55.42l0,0a9.35,9.35,0,0,1,.92.71,5.55,5.55,0,0,1,1,1.26,5.93,5.93,0,0,1,1-1.26Zm.88-5.93c.22-.17.44-.32.58-.44a.26.26,0,0,0,.09-.16c-.34-.41-.7-.8-1.08-1.18a2.44,2.44,0,0,0-1.5-.48,3,3,0,0,0-2.3,1.24l-.2.21a.26.26,0,0,0-.07.19.23.23,0,0,0,.09.18c.13.11.33.26.55.41l0,0a11.1,11.1,0,0,1,.92.7,6,6,0,0,1,1,1.26,6.48,6.48,0,0,1,1-1.26A8.85,8.85,0,0,1,52.66,30.1ZM43.81,49.8h.39l.09,0,.85-.4L44,48.59l-1.16.77.87.41Zm7.82-3.19c.06-.06.21-.21.39-.37l0-.05c.25-.23.58-.54.67-.64a1.9,1.9,0,0,0-.07-.7c0-.08,0-.12,0-.17a1,1,0,0,1,0-.25,2.58,2.58,0,0,0-1.88-.79,3,3,0,0,0-2.3,1.23l-.2.21a.31.31,0,0,0-.07.2.2.2,0,0,0,.09.17,5.4,5.4,0,0,0,.56.42l0,0a11.1,11.1,0,0,1,.92.7,5.83,5.83,0,0,1,.81,1A10.78,10.78,0,0,0,51.63,46.61Zm-5.25,2.77a.74.74,0,0,1,.13.12,8.54,8.54,0,0,0,3.43-1.44.23.23,0,0,0-.07-.19l-.2-.21a2.76,2.76,0,0,0-4.6,0l-.2.22a.23.23,0,0,0-.07.19.25.25,0,0,0,.08.18l.57.42A11.21,11.21,0,0,1,46.38,49.38Z"/></g></g></svg>